M48
;DRILL file {KiCad (2015-05-13 BZR 5653)-product} date Tue 09 Jun 2015 09:53:46 PM CEST
;FORMAT={-:-/ absolute / inch / decimal}
FMAT,2
INCH,TZ
T1C0.016
T2C0.032
T3C0.032
T4C0.035
T5C0.039
T6C0.040
T7C0.047
T8C0.050
T9C0.051
T10C0.059
T11C0.126
T12C0.128
T13C0.138
%
G90
G05
M72
T1
X4.98Y-3.49
X5.03Y-2.57
X5.03Y-3.42
X5.07Y-2.39
X5.07Y-3.3
X5.12Y-2.33
X5.12Y-3.2
X5.16Y-1.94
X5.16Y-3.49
X5.24Y-3.16
X5.24Y-3.85
X5.3Y-2.055
X5.3Y-3.1
X5.38Y-3.
X5.39Y-3.08
X5.39Y-3.82
X5.45Y-2.8
X5.45Y-3.76
X5.5Y-2.7
X5.55Y-2.6
X5.55Y-3.475
X5.59Y-2.2
X5.6Y-2.89
X5.605Y-2.975
X5.605Y-3.705
X5.65Y-3.52
X5.8Y-3.35
X5.8Y-3.6
X5.99Y-2.4
X6.075Y-1.95
X6.075Y-2.425
X6.1Y-3.15
X6.1Y-3.525
X6.16Y-3.07
X6.16Y-3.9
X6.17Y-1.995
X6.185Y-2.8
X6.185Y-2.9
X6.205Y-2.995
X6.205Y-3.57
X6.27Y-1.99
X6.39Y-3.2
X6.3937Y-1.1748
X6.4Y-1.84
X6.43Y-1.93
X6.43Y-3.1
X6.45Y-1.875
X6.46Y-2.02
X6.46Y-3.
X6.5Y-1.87
X6.5Y-2.69
X6.5Y-2.725
X6.5Y-3.325
X6.525Y-2.075
X6.525Y-2.575
X6.575Y-2.725
X6.575Y-2.875
X6.575Y-2.975
X6.575Y-3.425
X6.68Y-3.235
X6.7Y-2.825
X6.7Y-3.125
X6.71Y-3.29
X6.735Y-3.185
X6.75Y-2.8
X6.75Y-3.075
X6.8Y-2.45
X6.8Y-2.55
X6.8Y-2.6
X6.8Y-2.9
X6.85Y-2.1
X6.9Y-2.775
X6.925Y-2.675
X6.95Y-2.225
X6.95Y-2.5
X6.95Y-2.65
X7.Y-2.075
X7.Y-2.125
X7.Y-2.375
X7.Y-2.675
X7.03Y-3.46
X7.03Y-3.765
X7.05Y-1.8
X7.05Y-2.225
X7.05Y-2.575
X7.05Y-2.675
X7.1Y-2.375
X7.1Y-2.5
X7.1Y-2.675
X7.1Y-3.425
X7.15Y-2.85
X7.165Y-3.185
X7.175Y-2.6
X7.175Y-2.725
X7.225Y-2.425
X7.225Y-2.975
X7.275Y-2.55
X7.275Y-2.9
X7.4Y-2.1
X7.4Y-2.6
X7.475Y-3.9
X7.5Y-2.85
X7.5591Y-2.0472
X7.5591Y-3.189
X7.625Y-3.75
X7.65Y-2.175
X7.75Y-1.905
X7.75Y-3.36
X7.845Y-1.705
X7.85Y-2.85
X7.93Y-3.085
X7.93Y-3.85
X8.Y-2.85
X8.05Y-3.9
X8.16Y-2.665
X8.16Y-2.93
X8.28Y-3.095
X8.28Y-3.46
X8.38Y-2.81
X8.38Y-3.845
X8.445Y-1.65
X8.515Y-2.665
X8.58Y-3.355
X8.6Y-3.65
X8.69Y-1.905
X8.695Y-1.74
X8.73Y-2.635
X8.78Y-3.81
X8.805Y-3.43
T2
X4.8Y-3.3
X4.9Y-3.3
X9.73Y-3.65
X9.83Y-3.65
T3
X9.155Y-2.98
X9.155Y-3.28
X9.255Y-2.98
X9.255Y-3.28
X9.355Y-2.98
X9.355Y-3.28
T4
X4.6296Y-4.1007
X4.676Y-4.
X4.727Y-4.099
X4.777Y-4.
X4.826Y-4.099
X4.876Y-4.
X4.926Y-4.1
X4.976Y-4.
X5.224Y-1.7
X5.274Y-1.6
X5.324Y-1.7
X5.3296Y-4.1007
X5.374Y-1.601
X5.376Y-4.
X5.423Y-1.7
X5.427Y-4.099
X5.473Y-1.601
X5.477Y-4.
X5.524Y-1.7
X5.526Y-4.099
X5.5704Y-1.5993
X5.576Y-4.
X5.626Y-4.1
X5.676Y-4.
X5.924Y-1.7
X5.974Y-1.6
X6.024Y-1.7
X6.0296Y-4.1007
X6.074Y-1.601
X6.076Y-4.
X6.123Y-1.7
X6.127Y-4.099
X6.173Y-1.601
X6.177Y-4.
X6.224Y-1.7
X6.226Y-4.099
X6.2704Y-1.5993
X6.276Y-4.
X6.326Y-4.1
X6.376Y-4.
X6.624Y-1.7
X6.674Y-1.6
X6.724Y-1.7
X6.7296Y-4.1007
X6.774Y-1.601
X6.776Y-4.
X6.823Y-1.7
X6.827Y-4.099
X6.873Y-1.601
X6.877Y-4.
X6.924Y-1.7
X6.926Y-4.099
X6.9704Y-1.5993
X6.976Y-4.
X7.026Y-4.1
X7.076Y-4.
X7.324Y-1.7
X7.374Y-1.6
X7.424Y-1.7
X7.4296Y-4.1007
X7.474Y-1.601
X7.476Y-4.
X7.523Y-1.7
X7.527Y-4.099
X7.573Y-1.601
X7.577Y-4.
X7.624Y-1.7
X7.626Y-4.099
X7.6704Y-1.5993
X7.676Y-4.
X7.726Y-4.1
X7.776Y-4.
X8.024Y-1.7
X8.074Y-1.6
X8.124Y-1.7
X8.1296Y-4.1007
X8.174Y-1.601
X8.176Y-4.
X8.223Y-1.7
X8.227Y-4.099
X8.273Y-1.601
X8.277Y-4.
X8.324Y-1.7
X8.326Y-4.099
X8.3704Y-1.5993
X8.376Y-4.
X8.426Y-4.1
X8.476Y-4.
X8.8296Y-4.1007
X8.876Y-4.
X8.927Y-4.099
X8.977Y-4.
X9.026Y-4.099
X9.076Y-4.
X9.126Y-4.1
X9.176Y-4.
T5
X5.4215Y-2.015
X5.6184Y-2.015
X7.88Y-2.065
X8.235Y-2.07
X9.2281Y-3.7989
X9.295Y-3.565
X9.295Y-3.765
X9.3619Y-3.5311
T6
X4.5Y-2.9
X4.5Y-3.
X4.5Y-3.1
X4.5Y-3.2
X5.3Y-2.4
X5.3Y-2.5
X5.7Y-2.2
X5.7Y-2.3
X5.7Y-2.4
X5.7Y-2.5
X5.7Y-2.6
X5.7Y-2.7
X5.7Y-2.8
X5.7Y-2.9
X5.7Y-3.
X5.7Y-3.1
X5.7Y-3.2
X5.7Y-3.3
X5.8575Y-3.3
X5.9575Y-3.3
X6.3Y-2.2
X6.3Y-2.3
X6.3Y-2.4
X6.3Y-2.5
X6.3Y-2.6
X6.3Y-2.7
X6.3Y-2.8
X6.3Y-2.9
X6.3Y-3.
X6.3Y-3.1
X6.3Y-3.2
X6.3Y-3.3
T7
X4.75Y-1.5
X4.75Y-1.6969
X4.75Y-1.8937
X4.75Y-2.0906
X4.75Y-2.2874
X4.75Y-2.4843
X4.75Y-2.6811
X4.9469Y-1.5984
X4.9469Y-1.7953
X4.9469Y-1.9921
X4.9469Y-2.189
X4.9469Y-2.3858
X4.9469Y-2.5827
X4.9469Y-2.7795
X9.2047Y-1.4969
X9.3031Y-1.3
X9.4016Y-1.4969
X9.5Y-1.3
X9.7431Y-3.8847
X9.7431Y-4.0816
X9.7481Y-3.0697
X9.7481Y-3.2666
X9.8047Y-1.4969
X9.9031Y-1.3
X9.94Y-3.9831
X9.94Y-4.18
X9.945Y-3.1681
X9.945Y-3.365
X10.0016Y-1.4969
X10.1Y-1.3
T8
X8.03Y-2.065
X8.385Y-2.07
T9
X8.81Y-2.09
X9.01Y-2.09
X9.51Y-2.09
X9.91Y-2.09
T10
X4.5063Y-4.5252
X5.085Y-1.1748
X5.115Y-4.5252
X5.2063Y-4.5252
X5.6937Y-1.1748
X5.785Y-1.1748
X5.815Y-4.5252
X5.9063Y-4.5252
X6.3937Y-1.1748
X6.485Y-1.1748
X6.515Y-4.5252
X6.6063Y-4.5252
X7.0937Y-1.1748
X7.185Y-1.1748
X7.215Y-4.5252
X7.3063Y-4.5252
X7.7937Y-1.1748
X7.885Y-1.1748
X7.915Y-4.5252
X8.0063Y-4.5252
X8.4937Y-1.1748
X8.615Y-4.5252
X8.7063Y-4.5252
X9.315Y-4.5252
T11
X5.036Y-4.354
X5.164Y-1.346
X5.736Y-4.354
X5.864Y-1.346
X6.436Y-4.354
X6.564Y-1.346
X7.136Y-4.354
X7.264Y-1.346
X7.836Y-4.354
X7.964Y-1.346
X8.536Y-4.354
X9.236Y-4.354
T12
X4.585Y-4.354
X5.285Y-4.354
X5.615Y-1.346
X5.985Y-4.354
X6.315Y-1.346
X6.685Y-4.354
X7.015Y-1.346
X7.385Y-4.354
X7.715Y-1.346
X8.085Y-4.354
X8.415Y-1.346
X8.785Y-4.354
T13
X4.6Y-1.2
X4.6Y-3.7
X8.8Y-1.2
X9.6Y-4.5
T0
M30
