<?xml version="1.0" encoding="UTF-8" standalone="no"?>
<!-- Created with Inkscape (http://www.inkscape.org/) -->

<svg
   xmlns:dc="http://purl.org/dc/elements/1.1/"
   xmlns:cc="http://creativecommons.org/ns#"
   xmlns:rdf="http://www.w3.org/1999/02/22-rdf-syntax-ns#"
   xmlns:svg="http://www.w3.org/2000/svg"
   xmlns="http://www.w3.org/2000/svg"
   xmlns:sodipodi="http://sodipodi.sourceforge.net/DTD/sodipodi-0.dtd"
   xmlns:inkscape="http://www.inkscape.org/namespaces/inkscape"
   width="1220mm"
   height="610mm"
   viewBox="0 0 4322.8346 2161.4173"
   id="svg8254"
   version="1.1"
   inkscape:version="0.91 r13725"
   sodipodi:docname="dobbeltsidet.svg">
  <defs
     id="defs8256" />
  <sodipodi:namedview
     id="base"
     pagecolor="#ffffff"
     bordercolor="#666666"
     borderopacity="1.0"
     inkscape:pageopacity="0.0"
     inkscape:pageshadow="2"
     inkscape:zoom="4.4103036"
     inkscape:cx="52.015608"
     inkscape:cy="2095.2555"
     inkscape:document-units="px"
     inkscape:current-layer="layer1"
     showgrid="false"
     inkscape:window-width="1600"
     inkscape:window-height="847"
     inkscape:window-x="0"
     inkscape:window-y="0"
     inkscape:window-maximized="1" />
  <metadata
     id="metadata8259">
    <rdf:RDF>
      <cc:Work
         rdf:about="">
        <dc:format>image/svg+xml</dc:format>
        <dc:type
           rdf:resource="http://purl.org/dc/dcmitype/StillImage" />
        <dc:title></dc:title>
      </cc:Work>
    </rdf:RDF>
  </metadata>
  <g
     inkscape:label="Layer 1"
     inkscape:groupmode="layer"
     id="layer1"
     transform="translate(0,1109.0551)">
    <text
       xml:space="preserve"
       style="font-style:normal;font-variant:normal;font-weight:normal;font-stretch:normal;font-size:90px;line-height:125%;font-family:'Abyssinica SIL';-inkscape-font-specification:'Abyssinica SIL, Normal';text-align:start;letter-spacing:0px;word-spacing:0px;writing-mode:lr-tb;text-anchor:start;fill:none;fill-opacity:1;stroke:#ff0000;stroke-width:1px;stroke-linecap:butt;stroke-linejoin:miter;stroke-opacity:1"
       x="752.39301"
       y="-668.72943"
       id="text4173"
       sodipodi:linespacing="125%"
       transform="matrix(0.70710678,-0.70710678,0.70710678,0.70710678,0,0)"><tspan
         sodipodi:role="line"
         id="tspan4175"
         x="752.39301"
         y="-668.72943">1</tspan></text>
    <g
       style="font-style:normal;font-variant:normal;font-weight:normal;font-stretch:normal;font-size:90px;line-height:125%;font-family:'Abyssinica SIL';-inkscape-font-specification:'Abyssinica SIL, Normal';text-align:start;letter-spacing:0px;word-spacing:0px;writing-mode:lr-tb;text-anchor:start;fill:none;fill-opacity:1;stroke:#00ff00;stroke-width:1px;stroke-linecap:butt;stroke-linejoin:miter;stroke-opacity:1"
       id="text4173-2"
       transform="matrix(0.70710678,-0.70710678,0.70710678,0.70710678,346.42691,-136.54324)">
      <path
         d="m 455.59119,-858.63489 q 0,4.70215 -2.10938,8.83301 -2.06543,4.08691 -5.93262,8.04199 -3.82324,3.91114 -9.22851,7.86621 -5.40527,3.95508 -11.99707,8.34961 l 28.16894,0 0,8.56934 -37.61718,0 0,-7.91016 q 8.48144,-6.67969 14.0625,-11.7334 5.625,-5.05371 8.96484,-8.96484 3.33984,-3.95508 4.70215,-7.03125 1.3623,-3.12012 1.3623,-5.93262 0,-1.31836 -0.3955,-2.8125 -0.35157,-1.53808 -1.31836,-2.8125 -0.9668,-1.31836 -2.63672,-2.15332 -1.66992,-0.8789 -4.21875,-0.8789 -2.59278,0 -4.43848,0.96679 -1.80176,0.9668 -2.98828,2.46094 -1.14258,1.4502 -1.75781,3.25195 -0.57129,1.80176 -0.70313,3.51563 l -9.62402,0 q 0.52734,-8.56934 5.53711,-12.83203 5.00976,-4.2627 14.23828,-4.2627 4.30664,0 7.64648,1.09864 3.33985,1.09863 5.625,3.12011 2.28516,2.02149 3.47168,4.87793 1.18653,2.85645 1.18653,6.37207 z"
         style="fill:none;stroke:#00ff00;stroke-opacity:1"
         id="path4196"
         inkscape:connector-curvature="0" />
    </g>
    <circle
       style="fill:none;fill-opacity:1;stroke:#0000ff;stroke-width:0.41864234;stroke-miterlimit:4;stroke-dasharray:none;stroke-dashoffset:0;stroke-opacity:1"
       id="path4198"
       cx="777.74475"
       cy="-697.12903"
       r="52.940285"
       transform="matrix(0.70710678,-0.70710678,0.70710678,0.70710678,0,0)" />
    <path
       style="fill:none;fill-rule:evenodd;stroke:#000000;stroke-width:1.00800002;stroke-linecap:butt;stroke-linejoin:miter;stroke-opacity:1;stroke-miterlimit:4;stroke-dasharray:none"
       d="m 35.936918,-1098.929 77.952762,0 0,113.3858 -113.38583341,0 0,-77.9527 35.43307141,-35.4331"
       id="path4214"
       inkscape:connector-curvature="0"
       sodipodi:nodetypes="cccccc" />
  </g>
</svg>
