<?xml version="1.0" encoding="UTF-8" standalone="no"?>
<!-- Created with Inkscape (http://www.inkscape.org/) -->

<svg
   width="838mm"
   height="812mm"
   viewBox="0 0 838 812"
   version="1.1"
   id="svg8"
   inkscape:version="1.1 (c4e8f9ed74, 2021-05-24)"
   sodipodi:docname="front-right.svg"
   xmlns:inkscape="http://www.inkscape.org/namespaces/inkscape"
   xmlns:sodipodi="http://sodipodi.sourceforge.net/DTD/sodipodi-0.dtd"
   xmlns="http://www.w3.org/2000/svg"
   xmlns:svg="http://www.w3.org/2000/svg"
   xmlns:rdf="http://www.w3.org/1999/02/22-rdf-syntax-ns#"
   xmlns:cc="http://creativecommons.org/ns#"
   xmlns:dc="http://purl.org/dc/elements/1.1/">
  <defs
     id="defs2" />
  <sodipodi:namedview
     id="base"
     pagecolor="#ffffff"
     bordercolor="#666666"
     borderopacity="1.0"
     inkscape:pageopacity="0.0"
     inkscape:pageshadow="2"
     inkscape:zoom="0.53889972"
     inkscape:cx="798.84992"
     inkscape:cy="402.67232"
     inkscape:document-units="mm"
     inkscape:current-layer="layer1"
     showgrid="false"
     inkscape:window-width="2560"
     inkscape:window-height="1385"
     inkscape:window-x="0"
     inkscape:window-y="27"
     inkscape:window-maximized="1"
     inkscape:pagecheckerboard="0"
     width="838mm" />
  <metadata
     id="metadata5">
    <rdf:RDF>
      <cc:Work
         rdf:about="">
        <dc:format>image/svg+xml</dc:format>
        <dc:type
           rdf:resource="http://purl.org/dc/dcmitype/StillImage" />
      </cc:Work>
    </rdf:RDF>
  </metadata>
  <g
     inkscape:label="Layer 1"
     inkscape:groupmode="layer"
     id="layer1"
     transform="translate(0,313)">
    <path
       id="path817"
       d="m 332,-211.25001 a 11.25,11.25 0 0 0 11.25,11.25 11.25,11.25 0 0 0 11.25,-11.25 11.25,11.25 0 0 0 -11.25,-11.25 11.25,11.25 0 0 0 -11.25,11.25 z"
       style="fill:#000000;fill-opacity:1;stroke:#000000;stroke-width:0.112497;stroke-linecap:butt;stroke-miterlimit:4;stroke-dasharray:none;stroke-opacity:1"
       inkscape:connector-curvature="0" />
    <path
       id="circle819"
       d="m 282,-211.25001 a 11.25,11.25 0 0 0 11.25,11.25 11.25,11.25 0 0 0 11.25,-11.25 11.25,11.25 0 0 0 -11.25,-11.25 11.25,11.25 0 0 0 -11.25,11.25 z"
       style="fill:#000000;fill-opacity:1;stroke:#000000;stroke-width:0.112497;stroke-linecap:butt;stroke-miterlimit:4;stroke-dasharray:none;stroke-opacity:1"
       inkscape:connector-curvature="0" />
    <rect
       transform="scale(-1,1)"
       y="-205.50002"
       x="-173"
       height="54"
       width="60"
       id="rect821"
       style="fill:#000000;fill-opacity:1;stroke:#000000;stroke-width:0.122438;stroke-linecap:butt;stroke-miterlimit:4;stroke-dasharray:none;stroke-opacity:1" />
    <rect
       style="fill:none;fill-opacity:0.0535715;stroke:#000000;stroke-width:0.706689;stroke-linecap:round;stroke-linejoin:round;stroke-miterlimit:4;stroke-dasharray:none"
       id="rect34"
       width="423"
       height="213"
       x="0"
       y="-313" />
    <path
       id="path1028"
       d="m 273,-162.75 a 20.25,20.25 0 0 0 20.25,20.25 20.25,20.25 0 0 0 20.25,-20.25 A 20.25,20.25 0 0 0 293.25,-183 20.25,20.25 0 0 0 273,-162.75 Z"
       style="fill:#000000;fill-opacity:1;stroke:#000000;stroke-width:0.202495;stroke-linecap:butt;stroke-miterlimit:4;stroke-dasharray:none;stroke-opacity:1"
       inkscape:connector-curvature="0" />
    <path
       id="path1030"
       d="m 328,-162.75 a 15.25,15.25 0 0 0 15.25,15.25 15.25,15.25 0 0 0 15.25,-15.25 A 15.25,15.25 0 0 0 343.25,-178 15.25,15.25 0 0 0 328,-162.75 Z"
       style="fill:#000000;fill-opacity:1;stroke:#000000;stroke-width:0.152496;stroke-linecap:butt;stroke-miterlimit:4;stroke-dasharray:none;stroke-opacity:1"
       inkscape:connector-curvature="0" />
    <circle
       style="fill:none;fill-opacity:0.0535715;stroke:#000000;stroke-width:0.567654;stroke-linecap:round;stroke-linejoin:round"
       id="circle157"
       cx="10"
       cy="-298"
       r="3" />
    <circle
       style="fill:none;fill-opacity:0.0535715;stroke:#000000;stroke-width:0.567654;stroke-linecap:round;stroke-linejoin:round"
       id="circle159"
       cx="375"
       cy="-298"
       r="3" />
    <circle
       style="fill:none;fill-opacity:0.0535715;stroke:#000000;stroke-width:0.567654;stroke-linecap:round;stroke-linejoin:round"
       id="circle286"
       cx="10"
       cy="-108"
       r="3" />
    <circle
       style="fill:none;fill-opacity:0.0535715;stroke:#000000;stroke-width:0.567654;stroke-linecap:round;stroke-linejoin:round"
       id="circle288"
       cx="375"
       cy="-108"
       r="3" />
  </g>
</svg>
