<?xml version="1.0" encoding="UTF-8" standalone="no"?>
<!-- Created with Inkscape (http://www.inkscape.org/) -->

<svg
   width="838mm"
   height="812mm"
   viewBox="0 0 838 812"
   version="1.1"
   id="svg8"
   inkscape:version="1.1 (c4e8f9ed74, 2021-05-24)"
   sodipodi:docname="front.svg"
   xmlns:inkscape="http://www.inkscape.org/namespaces/inkscape"
   xmlns:sodipodi="http://sodipodi.sourceforge.net/DTD/sodipodi-0.dtd"
   xmlns="http://www.w3.org/2000/svg"
   xmlns:svg="http://www.w3.org/2000/svg"
   xmlns:rdf="http://www.w3.org/1999/02/22-rdf-syntax-ns#"
   xmlns:cc="http://creativecommons.org/ns#"
   xmlns:dc="http://purl.org/dc/elements/1.1/">
  <defs
     id="defs2" />
  <sodipodi:namedview
     id="base"
     pagecolor="#ffffff"
     bordercolor="#666666"
     borderopacity="1.0"
     inkscape:pageopacity="0.0"
     inkscape:pageshadow="2"
     inkscape:zoom="0.26926346"
     inkscape:cx="1598.8059"
     inkscape:cy="401.09415"
     inkscape:document-units="mm"
     inkscape:current-layer="layer1"
     showgrid="false"
     inkscape:window-width="1600"
     inkscape:window-height="837"
     inkscape:window-x="0"
     inkscape:window-y="0"
     inkscape:window-maximized="1"
     inkscape:pagecheckerboard="0"
     width="838mm" />
  <metadata
     id="metadata5">
    <rdf:RDF>
      <cc:Work
         rdf:about="">
        <dc:format>image/svg+xml</dc:format>
        <dc:type
           rdf:resource="http://purl.org/dc/dcmitype/StillImage" />
      </cc:Work>
    </rdf:RDF>
  </metadata>
  <g
     inkscape:label="Layer 1"
     inkscape:groupmode="layer"
     id="layer1"
     transform="translate(0,313)">
    <g
       id="g339"
       transform="rotate(45,75.306874,-131.19312)">
      <path
         id="path817"
         d="m 756,-211.50001 a 11,11 0 0 0 11,11 11,11 0 0 0 11,-11 11,11 0 0 0 -11,-11 11,11 0 0 0 -11,11 z"
         style="fill:#000000;fill-opacity:1;stroke:#000000;stroke-width:0.109997;stroke-linecap:butt;stroke-miterlimit:4;stroke-dasharray:none;stroke-opacity:1"
         inkscape:connector-curvature="0" />
      <path
         id="circle819"
         d="m 706,-211.50001 a 11,11 0 0 0 11,11 11,11 0 0 0 11,-11 11,11 0 0 0 -11,-11 11,11 0 0 0 -11,11 z"
         style="fill:#000000;fill-opacity:1;stroke:#000000;stroke-width:0.109997;stroke-linecap:butt;stroke-miterlimit:4;stroke-dasharray:none;stroke-opacity:1"
         inkscape:connector-curvature="0" />
      <rect
         transform="scale(-1,1)"
         y="-205.50002"
         x="-597"
         height="54"
         width="60"
         id="rect821"
         style="fill:#000000;fill-opacity:1;stroke:#000000;stroke-width:0.122438;stroke-linecap:butt;stroke-miterlimit:4;stroke-dasharray:none;stroke-opacity:1" />
      <rect
         style="fill:none;fill-opacity:0.0535715;stroke:#000000;stroke-width:1;stroke-linecap:round;stroke-linejoin:round;stroke-miterlimit:4;stroke-dasharray:none"
         id="rect34"
         width="847"
         height="213"
         x="0"
         y="-313" />
      <path
         id="path1028"
         d="m 697,-163 a 20,20 0 0 0 20,20 20,20 0 0 0 20,-20 20,20 0 0 0 -20,-20 20,20 0 0 0 -20,20 z"
         style="fill:#000000;fill-opacity:1;stroke:#000000;stroke-width:0.199995;stroke-linecap:butt;stroke-miterlimit:4;stroke-dasharray:none;stroke-opacity:1"
         inkscape:connector-curvature="0" />
      <path
         id="path1030"
         d="m 752,-163 a 15,15 0 0 0 15,15 15,15 0 0 0 15,-15 15,15 0 0 0 -15,-15 15,15 0 0 0 -15,15 z"
         style="fill:#000000;fill-opacity:1;stroke:#000000;stroke-width:0.149996;stroke-linecap:butt;stroke-miterlimit:4;stroke-dasharray:none;stroke-opacity:1"
         inkscape:connector-curvature="0" />
      <circle
         style="fill:none;fill-opacity:0.0535715;stroke:#000000;stroke-width:0.567654;stroke-linecap:round;stroke-linejoin:round"
         id="path60"
         cx="9"
         cy="-288"
         r="3" />
      <circle
         style="fill:none;fill-opacity:0.0535715;stroke:#000000;stroke-width:0.567654;stroke-linecap:round;stroke-linejoin:round"
         id="circle155"
         cx="269"
         cy="-288"
         r="3" />
      <circle
         style="fill:none;fill-opacity:0.0535715;stroke:#000000;stroke-width:0.567654;stroke-linecap:round;stroke-linejoin:round"
         id="circle157"
         cx="539"
         cy="-288"
         r="3" />
      <circle
         style="fill:none;fill-opacity:0.0535715;stroke:#000000;stroke-width:0.567654;stroke-linecap:round;stroke-linejoin:round"
         id="circle159"
         cx="799"
         cy="-288"
         r="3" />
      <circle
         style="fill:none;fill-opacity:0.0535715;stroke:#000000;stroke-width:0.567654;stroke-linecap:round;stroke-linejoin:round"
         id="circle282"
         cx="9"
         cy="-108"
         r="3" />
      <circle
         style="fill:none;fill-opacity:0.0535715;stroke:#000000;stroke-width:0.567654;stroke-linecap:round;stroke-linejoin:round"
         id="circle284"
         cx="269"
         cy="-108"
         r="3" />
      <circle
         style="fill:none;fill-opacity:0.0535715;stroke:#000000;stroke-width:0.567654;stroke-linecap:round;stroke-linejoin:round"
         id="circle286"
         cx="539"
         cy="-108"
         r="3" />
      <circle
         style="fill:none;fill-opacity:0.0535715;stroke:#000000;stroke-width:0.567654;stroke-linecap:round;stroke-linejoin:round"
         id="circle288"
         cx="799"
         cy="-108"
         r="3" />
    </g>
  </g>
</svg>
