G04 #@! TF.FileFunction,Legend,Top*
%FSLAX46Y46*%
G04 Gerber Fmt 4.6, Leading zero omitted, Abs format (unit mm)*
G04 Created by KiCad (PCBNEW (2015-05-13 BZR 5653)-product) date Sun 07 Jun 2015 11:31:40 AM CEST*
%MOMM*%
G01*
G04 APERTURE LIST*
%ADD10C,0.100000*%
%ADD11C,0.300000*%
%ADD12C,0.150000*%
%ADD13C,0.381000*%
%ADD14C,0.304800*%
G04 APERTURE END LIST*
D10*
D11*
X193988571Y-86534285D02*
X194988571Y-86177142D01*
X193988571Y-85820000D01*
X193488571Y-83820000D02*
X193488571Y-83677143D01*
X193560000Y-83534286D01*
X193631429Y-83462857D01*
X193774286Y-83391428D01*
X194060000Y-83320000D01*
X194417143Y-83320000D01*
X194702857Y-83391428D01*
X194845714Y-83462857D01*
X194917143Y-83534286D01*
X194988571Y-83677143D01*
X194988571Y-83820000D01*
X194917143Y-83962857D01*
X194845714Y-84034286D01*
X194702857Y-84105714D01*
X194417143Y-84177143D01*
X194060000Y-84177143D01*
X193774286Y-84105714D01*
X193631429Y-84034286D01*
X193560000Y-83962857D01*
X193488571Y-83820000D01*
X194845714Y-82677143D02*
X194917143Y-82605715D01*
X194988571Y-82677143D01*
X194917143Y-82748572D01*
X194845714Y-82677143D01*
X194988571Y-82677143D01*
X194988571Y-81177143D02*
X194988571Y-82034286D01*
X194988571Y-81605714D02*
X193488571Y-81605714D01*
X193702857Y-81748571D01*
X193845714Y-81891429D01*
X193917143Y-82034286D01*
X192253905Y-84373809D02*
X192253905Y-86754762D01*
X187253905Y-86754762D01*
X192253905Y-80564286D02*
X189634857Y-80564286D01*
X189158667Y-80802381D01*
X188920571Y-81278571D01*
X188920571Y-82230952D01*
X189158667Y-82707143D01*
X192015810Y-80564286D02*
X192253905Y-81040476D01*
X192253905Y-82230952D01*
X192015810Y-82707143D01*
X191539619Y-82945238D01*
X191063429Y-82945238D01*
X190587238Y-82707143D01*
X190349143Y-82230952D01*
X190349143Y-81040476D01*
X190111048Y-80564286D01*
X192015810Y-78421428D02*
X192253905Y-77945238D01*
X192253905Y-76992857D01*
X192015810Y-76516666D01*
X191539619Y-76278571D01*
X191301524Y-76278571D01*
X190825333Y-76516666D01*
X190587238Y-76992857D01*
X190587238Y-77707142D01*
X190349143Y-78183333D01*
X189872952Y-78421428D01*
X189634857Y-78421428D01*
X189158667Y-78183333D01*
X188920571Y-77707142D01*
X188920571Y-76992857D01*
X189158667Y-76516666D01*
X192015810Y-72230952D02*
X192253905Y-72707142D01*
X192253905Y-73659523D01*
X192015810Y-74135714D01*
X191539619Y-74373809D01*
X189634857Y-74373809D01*
X189158667Y-74135714D01*
X188920571Y-73659523D01*
X188920571Y-72707142D01*
X189158667Y-72230952D01*
X189634857Y-71992857D01*
X190111048Y-71992857D01*
X190587238Y-74373809D01*
X192253905Y-69850000D02*
X188920571Y-69850000D01*
X189872952Y-69850000D02*
X189396762Y-69611905D01*
X189158667Y-69373809D01*
X188920571Y-68897619D01*
X188920571Y-68421428D01*
X192015810Y-66992857D02*
X192253905Y-66516667D01*
X192253905Y-65564286D01*
X192015810Y-65088095D01*
X191539619Y-64850000D01*
X191301524Y-64850000D01*
X190825333Y-65088095D01*
X190587238Y-65564286D01*
X190587238Y-66278571D01*
X190349143Y-66754762D01*
X189872952Y-66992857D01*
X189634857Y-66992857D01*
X189158667Y-66754762D01*
X188920571Y-66278571D01*
X188920571Y-65564286D01*
X189158667Y-65088095D01*
X192253905Y-60564286D02*
X189634857Y-60564286D01*
X189158667Y-60802381D01*
X188920571Y-61278571D01*
X188920571Y-62230952D01*
X189158667Y-62707143D01*
X192015810Y-60564286D02*
X192253905Y-61040476D01*
X192253905Y-62230952D01*
X192015810Y-62707143D01*
X191539619Y-62945238D01*
X191063429Y-62945238D01*
X190587238Y-62707143D01*
X190349143Y-62230952D01*
X190349143Y-61040476D01*
X190111048Y-60564286D01*
X188920571Y-56040476D02*
X192253905Y-56040476D01*
X188920571Y-58183333D02*
X191539619Y-58183333D01*
X192015810Y-57945238D01*
X192253905Y-57469047D01*
X192253905Y-56754761D01*
X192015810Y-56278571D01*
X191777714Y-56040476D01*
X192253905Y-53659523D02*
X188920571Y-53659523D01*
X189872952Y-53659523D02*
X189396762Y-53421428D01*
X189158667Y-53183332D01*
X188920571Y-52707142D01*
X188920571Y-52230951D01*
D12*
X256276000Y-102422000D02*
X256276000Y-97422000D01*
X244175280Y-97422960D02*
X244175280Y-102421680D01*
X259176520Y-97422960D02*
X259176520Y-102421680D01*
X244175280Y-97422960D02*
X259176520Y-97422960D01*
X257675380Y-102421680D02*
X257675380Y-101921300D01*
X257675380Y-97422960D02*
X257675380Y-97920800D01*
X254675640Y-101972100D02*
X254076200Y-101972100D01*
X254675640Y-97971600D02*
X254675640Y-101972100D01*
X250276360Y-97971600D02*
X254675640Y-97971600D01*
X250276360Y-101972100D02*
X250276360Y-97971600D01*
X250276360Y-101972100D02*
X250875800Y-101972100D01*
X252077220Y-97971600D02*
X252077220Y-99371140D01*
X252874780Y-97971600D02*
X252874780Y-99371140D01*
X245676420Y-98771700D02*
G75*
G03X245676420Y-100773220I1000760J-1000760D01*
G01*
X245676420Y-100770680D02*
G75*
G03X247675400Y-100773220I1000760J998220D01*
G01*
X257078480Y-98774240D02*
G75*
G03X257078480Y-101172000I1198880J-1198880D01*
G01*
X258277360Y-101172000D02*
G75*
G03X258274820Y-98771700I-1201420J1198880D01*
G01*
X257075940Y-101172000D02*
G75*
G03X258274820Y-101172000I599440J599440D01*
G01*
X258277360Y-98771700D02*
G75*
G03X257075940Y-98769160I-601980J-599440D01*
G01*
X257878580Y-101372660D02*
G75*
G03X257876040Y-98571040I-1402080J1399540D01*
G01*
X246128540Y-101070400D02*
G75*
G03X247975120Y-100321100I548640J1297940D01*
G01*
X256276000Y-102422000D02*
X256276000Y-108922000D01*
X259176000Y-107422000D02*
X259176000Y-108922000D01*
X259176000Y-108922000D02*
X244176000Y-108922000D01*
X244176000Y-108922000D02*
X244176000Y-107422000D01*
X246128540Y-106070400D02*
G75*
G03X247975120Y-105321100I548640J1297940D01*
G01*
X257878580Y-106372660D02*
G75*
G03X257876040Y-103571040I-1402080J1399540D01*
G01*
X258277360Y-103771700D02*
G75*
G03X257075940Y-103769160I-601980J-599440D01*
G01*
X257075940Y-106172000D02*
G75*
G03X258274820Y-106172000I599440J599440D01*
G01*
X258277360Y-106172000D02*
G75*
G03X258274820Y-103771700I-1201420J1198880D01*
G01*
X257078480Y-103774240D02*
G75*
G03X257078480Y-106172000I1198880J-1198880D01*
G01*
X245676420Y-105770680D02*
G75*
G03X247675400Y-105773220I1000760J998220D01*
G01*
X245676420Y-103771700D02*
G75*
G03X245676420Y-105773220I1000760J-1000760D01*
G01*
X252874780Y-102971600D02*
X252874780Y-104371140D01*
X252077220Y-102971600D02*
X252077220Y-104371140D01*
X250276360Y-106972100D02*
X250875800Y-106972100D01*
X250276360Y-106972100D02*
X250276360Y-102971600D01*
X250276360Y-102971600D02*
X254675640Y-102971600D01*
X254675640Y-102971600D02*
X254675640Y-106972100D01*
X254675640Y-106972100D02*
X254076200Y-106972100D01*
X257675380Y-102422960D02*
X257675380Y-102920800D01*
X257675380Y-107421680D02*
X257675380Y-106921300D01*
X244175280Y-102422960D02*
X259176520Y-102422960D01*
X259176520Y-102422960D02*
X259176520Y-107421680D01*
X259176520Y-107421680D02*
X244175280Y-107421680D01*
X244175280Y-102422960D02*
X244175280Y-107421680D01*
X151130000Y-82550000D02*
X153670000Y-82550000D01*
X148310000Y-82270000D02*
X149860000Y-82270000D01*
X151130000Y-82550000D02*
X151130000Y-85090000D01*
X149860000Y-85370000D02*
X148310000Y-85370000D01*
X148310000Y-85370000D02*
X148310000Y-82270000D01*
X151130000Y-85090000D02*
X153670000Y-85090000D01*
X153670000Y-85090000D02*
X153670000Y-82550000D01*
X161290000Y-57150000D02*
X161290000Y-85090000D01*
X161290000Y-85090000D02*
X158750000Y-85090000D01*
X158750000Y-85090000D02*
X158750000Y-57150000D01*
X161570000Y-54330000D02*
X161570000Y-55880000D01*
X161290000Y-57150000D02*
X158750000Y-57150000D01*
X158470000Y-55880000D02*
X158470000Y-54330000D01*
X158470000Y-54330000D02*
X161570000Y-54330000D01*
X146050000Y-57150000D02*
X146050000Y-85090000D01*
X146050000Y-85090000D02*
X143510000Y-85090000D01*
X143510000Y-85090000D02*
X143510000Y-57150000D01*
X146330000Y-54330000D02*
X146330000Y-55880000D01*
X146050000Y-57150000D02*
X143510000Y-57150000D01*
X143230000Y-55880000D02*
X143230000Y-54330000D01*
X143230000Y-54330000D02*
X146330000Y-54330000D01*
D13*
X207213200Y-45770800D02*
X207314800Y-45770800D01*
X215595200Y-44627800D02*
X215671400Y-26492200D01*
X215671400Y-26492200D02*
X200482200Y-26492200D01*
X200558400Y-27101800D02*
X200558400Y-26492200D01*
X200609200Y-44754800D02*
X200558400Y-27076400D01*
X200609200Y-44678600D02*
X215620600Y-44678600D01*
D12*
X135890000Y-62230000D02*
X135890000Y-64770000D01*
X136170000Y-59410000D02*
X136170000Y-60960000D01*
X135890000Y-62230000D02*
X133350000Y-62230000D01*
X133070000Y-60960000D02*
X133070000Y-59410000D01*
X133070000Y-59410000D02*
X136170000Y-59410000D01*
X133350000Y-62230000D02*
X133350000Y-64770000D01*
X133350000Y-64770000D02*
X135890000Y-64770000D01*
X124190760Y-86019640D02*
X124190760Y-85018880D01*
X124691140Y-85519260D02*
X123690380Y-85519260D01*
X126339600Y-83820000D02*
G75*
G03X126339600Y-83820000I-3149600J0D01*
G01*
X247411240Y-90510360D02*
X247411240Y-91511120D01*
X246910860Y-91010740D02*
X247911620Y-91010740D01*
X251561600Y-92710000D02*
G75*
G03X251561600Y-92710000I-3149600J0D01*
G01*
X234642660Y-97939860D02*
X234993180Y-98041460D01*
X234993180Y-98041460D02*
X235493560Y-98140520D01*
X235493560Y-98140520D02*
X236192060Y-98191320D01*
X236192060Y-98191320D02*
X236794040Y-98092260D01*
X236794040Y-98092260D02*
X237393480Y-97990660D01*
X237393480Y-97990660D02*
X238091980Y-97741740D01*
X238091980Y-97741740D02*
X238742220Y-97442020D01*
X238742220Y-97442020D02*
X239344200Y-96989900D01*
X239344200Y-96989900D02*
X240042700Y-96291400D01*
X240042700Y-96291400D02*
X240642140Y-95392240D01*
X240642140Y-95392240D02*
X241043460Y-94289880D01*
X241043460Y-94289880D02*
X241142520Y-93540580D01*
X241142520Y-93540580D02*
X241142520Y-92641420D01*
X241142520Y-92641420D02*
X241043460Y-91940380D01*
X241043460Y-91940380D02*
X240743740Y-90990420D01*
X240743740Y-90990420D02*
X240342420Y-90291920D01*
X240342420Y-90291920D02*
X239742980Y-89590880D01*
X239742980Y-89590880D02*
X239143540Y-88991440D01*
X234942380Y-88140540D02*
X234243880Y-88341200D01*
X234243880Y-88341200D02*
X233593640Y-88640920D01*
X233593640Y-88640920D02*
X232943400Y-89090500D01*
X232943400Y-89090500D02*
X232493820Y-89491820D01*
X232493820Y-89491820D02*
X232044240Y-90040460D01*
X232044240Y-90040460D02*
X231741980Y-90490040D01*
X231741980Y-90490040D02*
X231394000Y-91140280D01*
X231394000Y-91140280D02*
X231193340Y-91742260D01*
X231193340Y-91742260D02*
X231043480Y-92389960D01*
X231043480Y-92389960D02*
X230992680Y-93141800D01*
X230992680Y-93141800D02*
X231043480Y-93792040D01*
X231043480Y-93792040D02*
X231244140Y-94592140D01*
X231244140Y-94592140D02*
X231592120Y-95440500D01*
X231592120Y-95440500D02*
X231993440Y-96090740D01*
X231993440Y-96090740D02*
X232542080Y-96690180D01*
X232542080Y-96690180D02*
X232994200Y-97139760D01*
X237492540Y-88191340D02*
X237042960Y-88089740D01*
X237042960Y-88089740D02*
X236341920Y-87990680D01*
X236341920Y-87990680D02*
X235592620Y-88041480D01*
X235592620Y-88041480D02*
X234942380Y-88140540D01*
X232537000Y-95123000D02*
X233553000Y-95123000D01*
X233045000Y-95631000D02*
X233045000Y-94615000D01*
X177301000Y-64627000D02*
X177301000Y-62627000D01*
X175251000Y-62627000D02*
X175251000Y-64627000D01*
X177301000Y-77327000D02*
X177301000Y-75327000D01*
X175251000Y-75327000D02*
X175251000Y-77327000D01*
D13*
X136093200Y-45770800D02*
X136194800Y-45770800D01*
X144475200Y-44627800D02*
X144551400Y-26492200D01*
X144551400Y-26492200D02*
X129362200Y-26492200D01*
X129438400Y-27101800D02*
X129438400Y-26492200D01*
X129489200Y-44754800D02*
X129438400Y-27076400D01*
X129489200Y-44678600D02*
X144500600Y-44678600D01*
D12*
X210693000Y-52578000D02*
X211455000Y-53594000D01*
X210693000Y-52578000D02*
X211455000Y-51562000D01*
X210693000Y-51562000D02*
X210693000Y-53594000D01*
X211455000Y-51562000D02*
X211455000Y-53594000D01*
X201676000Y-52451000D02*
X202438000Y-53467000D01*
X201676000Y-52451000D02*
X202438000Y-51435000D01*
X201676000Y-51435000D02*
X201676000Y-53467000D01*
X202438000Y-51435000D02*
X202438000Y-53467000D01*
D13*
X122986800Y-99009200D02*
X122885200Y-99009200D01*
X114604800Y-100152200D02*
X114528600Y-118287800D01*
X114528600Y-118287800D02*
X129717800Y-118287800D01*
X129641600Y-117678200D02*
X129641600Y-118287800D01*
X129590800Y-100025200D02*
X129641600Y-117703600D01*
X129590800Y-100101400D02*
X114579400Y-100101400D01*
X140766800Y-99009200D02*
X140665200Y-99009200D01*
X132384800Y-100152200D02*
X132308600Y-118287800D01*
X132308600Y-118287800D02*
X147497800Y-118287800D01*
X147421600Y-117678200D02*
X147421600Y-118287800D01*
X147370800Y-100025200D02*
X147421600Y-117703600D01*
X147370800Y-100101400D02*
X132359400Y-100101400D01*
X189433200Y-45770800D02*
X189534800Y-45770800D01*
X197815200Y-44627800D02*
X197891400Y-26492200D01*
X197891400Y-26492200D02*
X182702200Y-26492200D01*
X182778400Y-27101800D02*
X182778400Y-26492200D01*
X182829200Y-44754800D02*
X182778400Y-27076400D01*
X182829200Y-44678600D02*
X197840600Y-44678600D01*
D12*
X168571000Y-78525000D02*
X168796000Y-78525000D01*
X168571000Y-73875000D02*
X168796000Y-73875000D01*
X173821000Y-73875000D02*
X173596000Y-73875000D01*
X173821000Y-78525000D02*
X173596000Y-78525000D01*
X168571000Y-78525000D02*
X168571000Y-73875000D01*
X173821000Y-78525000D02*
X173821000Y-73875000D01*
X168796000Y-78525000D02*
X168796000Y-79875000D01*
X168571000Y-66333000D02*
X168796000Y-66333000D01*
X168571000Y-61683000D02*
X168796000Y-61683000D01*
X173821000Y-61683000D02*
X173596000Y-61683000D01*
X173821000Y-66333000D02*
X173596000Y-66333000D01*
X168571000Y-66333000D02*
X168571000Y-61683000D01*
X173821000Y-66333000D02*
X173821000Y-61683000D01*
X168796000Y-66333000D02*
X168796000Y-67683000D01*
D13*
X229666800Y-99009200D02*
X229565200Y-99009200D01*
X221284800Y-100152200D02*
X221208600Y-118287800D01*
X221208600Y-118287800D02*
X236397800Y-118287800D01*
X236321600Y-117678200D02*
X236321600Y-118287800D01*
X236270800Y-100025200D02*
X236321600Y-117703600D01*
X236270800Y-100101400D02*
X221259400Y-100101400D01*
D12*
X252790000Y-29220000D02*
X247790000Y-29220000D01*
X247790960Y-41320720D02*
X252789680Y-41320720D01*
X247790960Y-26319480D02*
X252789680Y-26319480D01*
X247790960Y-41320720D02*
X247790960Y-26319480D01*
X252789680Y-27820620D02*
X252289300Y-27820620D01*
X247790960Y-27820620D02*
X248288800Y-27820620D01*
X252340100Y-30820360D02*
X252340100Y-31419800D01*
X248339600Y-30820360D02*
X252340100Y-30820360D01*
X248339600Y-35219640D02*
X248339600Y-30820360D01*
X252340100Y-35219640D02*
X248339600Y-35219640D01*
X252340100Y-35219640D02*
X252340100Y-34620200D01*
X248339600Y-33418780D02*
X249739140Y-33418780D01*
X248339600Y-32621220D02*
X249739140Y-32621220D01*
X249139700Y-39819580D02*
G75*
G03X251141220Y-39819580I1000760J1000760D01*
G01*
X251138680Y-39819580D02*
G75*
G03X251141220Y-37820600I-998220J1000760D01*
G01*
X249142240Y-28417520D02*
G75*
G03X251540000Y-28417520I1198880J1198880D01*
G01*
X251540000Y-27218640D02*
G75*
G03X249139700Y-27221180I-1198880J-1201420D01*
G01*
X251540000Y-28420060D02*
G75*
G03X251540000Y-27221180I-599440J599440D01*
G01*
X249139700Y-27218640D02*
G75*
G03X249137160Y-28420060I599440J-601980D01*
G01*
X251740660Y-27617420D02*
G75*
G03X248939040Y-27619960I-1399540J-1402080D01*
G01*
X251438400Y-39367460D02*
G75*
G03X250689100Y-37520880I-1297940J548640D01*
G01*
X252790000Y-29220000D02*
X259290000Y-29220000D01*
X257790000Y-26320000D02*
X259290000Y-26320000D01*
X259290000Y-26320000D02*
X259290000Y-41320000D01*
X259290000Y-41320000D02*
X257790000Y-41320000D01*
X256438400Y-39367460D02*
G75*
G03X255689100Y-37520880I-1297940J548640D01*
G01*
X256740660Y-27617420D02*
G75*
G03X253939040Y-27619960I-1399540J-1402080D01*
G01*
X254139700Y-27218640D02*
G75*
G03X254137160Y-28420060I599440J-601980D01*
G01*
X256540000Y-28420060D02*
G75*
G03X256540000Y-27221180I-599440J599440D01*
G01*
X256540000Y-27218640D02*
G75*
G03X254139700Y-27221180I-1198880J-1201420D01*
G01*
X254142240Y-28417520D02*
G75*
G03X256540000Y-28417520I1198880J1198880D01*
G01*
X256138680Y-39819580D02*
G75*
G03X256141220Y-37820600I-998220J1000760D01*
G01*
X254139700Y-39819580D02*
G75*
G03X256141220Y-39819580I1000760J1000760D01*
G01*
X253339600Y-32621220D02*
X254739140Y-32621220D01*
X253339600Y-33418780D02*
X254739140Y-33418780D01*
X257340100Y-35219640D02*
X257340100Y-34620200D01*
X257340100Y-35219640D02*
X253339600Y-35219640D01*
X253339600Y-35219640D02*
X253339600Y-30820360D01*
X253339600Y-30820360D02*
X257340100Y-30820360D01*
X257340100Y-30820360D02*
X257340100Y-31419800D01*
X252790960Y-27820620D02*
X253288800Y-27820620D01*
X257789680Y-27820620D02*
X257289300Y-27820620D01*
X252790960Y-41320720D02*
X252790960Y-26319480D01*
X252790960Y-26319480D02*
X257789680Y-26319480D01*
X257789680Y-26319480D02*
X257789680Y-41320720D01*
X252790960Y-41320720D02*
X257789680Y-41320720D01*
X237550000Y-29220000D02*
X232550000Y-29220000D01*
X232550960Y-41320720D02*
X237549680Y-41320720D01*
X232550960Y-26319480D02*
X237549680Y-26319480D01*
X232550960Y-41320720D02*
X232550960Y-26319480D01*
X237549680Y-27820620D02*
X237049300Y-27820620D01*
X232550960Y-27820620D02*
X233048800Y-27820620D01*
X237100100Y-30820360D02*
X237100100Y-31419800D01*
X233099600Y-30820360D02*
X237100100Y-30820360D01*
X233099600Y-35219640D02*
X233099600Y-30820360D01*
X237100100Y-35219640D02*
X233099600Y-35219640D01*
X237100100Y-35219640D02*
X237100100Y-34620200D01*
X233099600Y-33418780D02*
X234499140Y-33418780D01*
X233099600Y-32621220D02*
X234499140Y-32621220D01*
X233899700Y-39819580D02*
G75*
G03X235901220Y-39819580I1000760J1000760D01*
G01*
X235898680Y-39819580D02*
G75*
G03X235901220Y-37820600I-998220J1000760D01*
G01*
X233902240Y-28417520D02*
G75*
G03X236300000Y-28417520I1198880J1198880D01*
G01*
X236300000Y-27218640D02*
G75*
G03X233899700Y-27221180I-1198880J-1201420D01*
G01*
X236300000Y-28420060D02*
G75*
G03X236300000Y-27221180I-599440J599440D01*
G01*
X233899700Y-27218640D02*
G75*
G03X233897160Y-28420060I599440J-601980D01*
G01*
X236500660Y-27617420D02*
G75*
G03X233699040Y-27619960I-1399540J-1402080D01*
G01*
X236198400Y-39367460D02*
G75*
G03X235449100Y-37520880I-1297940J548640D01*
G01*
X237550000Y-29220000D02*
X244050000Y-29220000D01*
X242550000Y-26320000D02*
X244050000Y-26320000D01*
X244050000Y-26320000D02*
X244050000Y-41320000D01*
X244050000Y-41320000D02*
X242550000Y-41320000D01*
X241198400Y-39367460D02*
G75*
G03X240449100Y-37520880I-1297940J548640D01*
G01*
X241500660Y-27617420D02*
G75*
G03X238699040Y-27619960I-1399540J-1402080D01*
G01*
X238899700Y-27218640D02*
G75*
G03X238897160Y-28420060I599440J-601980D01*
G01*
X241300000Y-28420060D02*
G75*
G03X241300000Y-27221180I-599440J599440D01*
G01*
X241300000Y-27218640D02*
G75*
G03X238899700Y-27221180I-1198880J-1201420D01*
G01*
X238902240Y-28417520D02*
G75*
G03X241300000Y-28417520I1198880J1198880D01*
G01*
X240898680Y-39819580D02*
G75*
G03X240901220Y-37820600I-998220J1000760D01*
G01*
X238899700Y-39819580D02*
G75*
G03X240901220Y-39819580I1000760J1000760D01*
G01*
X238099600Y-32621220D02*
X239499140Y-32621220D01*
X238099600Y-33418780D02*
X239499140Y-33418780D01*
X242100100Y-35219640D02*
X242100100Y-34620200D01*
X242100100Y-35219640D02*
X238099600Y-35219640D01*
X238099600Y-35219640D02*
X238099600Y-30820360D01*
X238099600Y-30820360D02*
X242100100Y-30820360D01*
X242100100Y-30820360D02*
X242100100Y-31419800D01*
X237550960Y-27820620D02*
X238048800Y-27820620D01*
X242549680Y-27820620D02*
X242049300Y-27820620D01*
X237550960Y-41320720D02*
X237550960Y-26319480D01*
X237550960Y-26319480D02*
X242549680Y-26319480D01*
X242549680Y-26319480D02*
X242549680Y-41320720D01*
X237550960Y-41320720D02*
X242549680Y-41320720D01*
X256403000Y-81721000D02*
X256403000Y-76721000D01*
X244302280Y-76721960D02*
X244302280Y-81720680D01*
X259303520Y-76721960D02*
X259303520Y-81720680D01*
X244302280Y-76721960D02*
X259303520Y-76721960D01*
X257802380Y-81720680D02*
X257802380Y-81220300D01*
X257802380Y-76721960D02*
X257802380Y-77219800D01*
X254802640Y-81271100D02*
X254203200Y-81271100D01*
X254802640Y-77270600D02*
X254802640Y-81271100D01*
X250403360Y-77270600D02*
X254802640Y-77270600D01*
X250403360Y-81271100D02*
X250403360Y-77270600D01*
X250403360Y-81271100D02*
X251002800Y-81271100D01*
X252204220Y-77270600D02*
X252204220Y-78670140D01*
X253001780Y-77270600D02*
X253001780Y-78670140D01*
X245803420Y-78070700D02*
G75*
G03X245803420Y-80072220I1000760J-1000760D01*
G01*
X245803420Y-80069680D02*
G75*
G03X247802400Y-80072220I1000760J998220D01*
G01*
X257205480Y-78073240D02*
G75*
G03X257205480Y-80471000I1198880J-1198880D01*
G01*
X258404360Y-80471000D02*
G75*
G03X258401820Y-78070700I-1201420J1198880D01*
G01*
X257202940Y-80471000D02*
G75*
G03X258401820Y-80471000I599440J599440D01*
G01*
X258404360Y-78070700D02*
G75*
G03X257202940Y-78068160I-601980J-599440D01*
G01*
X258005580Y-80671660D02*
G75*
G03X258003040Y-77870040I-1402080J1399540D01*
G01*
X246255540Y-80369400D02*
G75*
G03X248102120Y-79620100I548640J1297940D01*
G01*
X256403000Y-81721000D02*
X256403000Y-88221000D01*
X259303000Y-86721000D02*
X259303000Y-88221000D01*
X259303000Y-88221000D02*
X244303000Y-88221000D01*
X244303000Y-88221000D02*
X244303000Y-86721000D01*
X246255540Y-85369400D02*
G75*
G03X248102120Y-84620100I548640J1297940D01*
G01*
X258005580Y-85671660D02*
G75*
G03X258003040Y-82870040I-1402080J1399540D01*
G01*
X258404360Y-83070700D02*
G75*
G03X257202940Y-83068160I-601980J-599440D01*
G01*
X257202940Y-85471000D02*
G75*
G03X258401820Y-85471000I599440J599440D01*
G01*
X258404360Y-85471000D02*
G75*
G03X258401820Y-83070700I-1201420J1198880D01*
G01*
X257205480Y-83073240D02*
G75*
G03X257205480Y-85471000I1198880J-1198880D01*
G01*
X245803420Y-85069680D02*
G75*
G03X247802400Y-85072220I1000760J998220D01*
G01*
X245803420Y-83070700D02*
G75*
G03X245803420Y-85072220I1000760J-1000760D01*
G01*
X253001780Y-82270600D02*
X253001780Y-83670140D01*
X252204220Y-82270600D02*
X252204220Y-83670140D01*
X250403360Y-86271100D02*
X251002800Y-86271100D01*
X250403360Y-86271100D02*
X250403360Y-82270600D01*
X250403360Y-82270600D02*
X254802640Y-82270600D01*
X254802640Y-82270600D02*
X254802640Y-86271100D01*
X254802640Y-86271100D02*
X254203200Y-86271100D01*
X257802380Y-81721960D02*
X257802380Y-82219800D01*
X257802380Y-86720680D02*
X257802380Y-86220300D01*
X244302280Y-81721960D02*
X259303520Y-81721960D01*
X259303520Y-81721960D02*
X259303520Y-86720680D01*
X259303520Y-86720680D02*
X244302280Y-86720680D01*
X244302280Y-81721960D02*
X244302280Y-86720680D01*
X230632000Y-76962000D02*
X239522000Y-76962000D01*
X239522000Y-76962000D02*
X239522000Y-82042000D01*
X239522000Y-82042000D02*
X230632000Y-82042000D01*
X230632000Y-82042000D02*
X230632000Y-76962000D01*
X230632000Y-78867000D02*
X231902000Y-78867000D01*
X231902000Y-78867000D02*
X231902000Y-80137000D01*
X231902000Y-80137000D02*
X230632000Y-80137000D01*
X155440000Y-74335000D02*
X154440000Y-74335000D01*
X154440000Y-72985000D02*
X155440000Y-72985000D01*
X155440000Y-71795000D02*
X154440000Y-71795000D01*
X154440000Y-70445000D02*
X155440000Y-70445000D01*
X155440000Y-69255000D02*
X154440000Y-69255000D01*
X154440000Y-67905000D02*
X155440000Y-67905000D01*
X154440000Y-65365000D02*
X155440000Y-65365000D01*
X155440000Y-66715000D02*
X154440000Y-66715000D01*
X149090000Y-80685000D02*
X148090000Y-80685000D01*
X148090000Y-79335000D02*
X149090000Y-79335000D01*
X152900000Y-80685000D02*
X151900000Y-80685000D01*
X151900000Y-79335000D02*
X152900000Y-79335000D01*
X148090000Y-67905000D02*
X149090000Y-67905000D01*
X149090000Y-69255000D02*
X148090000Y-69255000D01*
X155440000Y-76875000D02*
X154440000Y-76875000D01*
X154440000Y-75525000D02*
X155440000Y-75525000D01*
X154440000Y-62825000D02*
X155440000Y-62825000D01*
X155440000Y-64175000D02*
X154440000Y-64175000D01*
X209764000Y-75684000D02*
X209764000Y-74684000D01*
X211114000Y-74684000D02*
X211114000Y-75684000D01*
X200747000Y-75811000D02*
X200747000Y-74811000D01*
X202097000Y-74811000D02*
X202097000Y-75811000D01*
X228211000Y-83987000D02*
X227211000Y-83987000D01*
X227211000Y-82637000D02*
X228211000Y-82637000D01*
X115570000Y-80010000D02*
X115570000Y-72390000D01*
X113030000Y-80010000D02*
X113030000Y-72390000D01*
X112750000Y-82830000D02*
X112750000Y-81280000D01*
X115570000Y-72390000D02*
X113030000Y-72390000D01*
X113030000Y-80010000D02*
X115570000Y-80010000D01*
X115850000Y-81280000D02*
X115850000Y-82830000D01*
X115850000Y-82830000D02*
X112750000Y-82830000D01*
X125727460Y-68201600D02*
G75*
G03X123880880Y-68950900I-548640J-1297940D01*
G01*
X113977420Y-67899340D02*
G75*
G03X113979960Y-70700960I1402080J-1399540D01*
G01*
X113578640Y-70500300D02*
G75*
G03X114780060Y-70502840I601980J599440D01*
G01*
X114780060Y-68100000D02*
G75*
G03X113581180Y-68100000I-599440J-599440D01*
G01*
X113578640Y-68100000D02*
G75*
G03X113581180Y-70500300I1201420J-1198880D01*
G01*
X114777520Y-70497760D02*
G75*
G03X114777520Y-68100000I-1198880J1198880D01*
G01*
X126179580Y-68501320D02*
G75*
G03X124180600Y-68498780I-1000760J-998220D01*
G01*
X126179580Y-70500300D02*
G75*
G03X126179580Y-68498780I-1000760J1000760D01*
G01*
X118981220Y-71300400D02*
X118981220Y-69900860D01*
X119778780Y-71300400D02*
X119778780Y-69900860D01*
X121579640Y-67299900D02*
X120980200Y-67299900D01*
X121579640Y-67299900D02*
X121579640Y-71300400D01*
X121579640Y-71300400D02*
X117180360Y-71300400D01*
X117180360Y-71300400D02*
X117180360Y-67299900D01*
X117180360Y-67299900D02*
X117779800Y-67299900D01*
X114180620Y-71849040D02*
X114180620Y-71351200D01*
X114180620Y-66850320D02*
X114180620Y-67350700D01*
X127680720Y-71849040D02*
X112679480Y-71849040D01*
X112679480Y-71849040D02*
X112679480Y-66850320D01*
X127680720Y-71849040D02*
X127680720Y-66850320D01*
X115580000Y-66850000D02*
X115580000Y-71850000D01*
X115580000Y-61850000D02*
X115580000Y-66850000D01*
X127680720Y-66849040D02*
X127680720Y-61850320D01*
X112679480Y-66849040D02*
X112679480Y-61850320D01*
X127680720Y-66849040D02*
X112679480Y-66849040D01*
X114180620Y-61850320D02*
X114180620Y-62350700D01*
X114180620Y-66849040D02*
X114180620Y-66351200D01*
X117180360Y-62299900D02*
X117779800Y-62299900D01*
X117180360Y-66300400D02*
X117180360Y-62299900D01*
X121579640Y-66300400D02*
X117180360Y-66300400D01*
X121579640Y-62299900D02*
X121579640Y-66300400D01*
X121579640Y-62299900D02*
X120980200Y-62299900D01*
X119778780Y-66300400D02*
X119778780Y-64900860D01*
X118981220Y-66300400D02*
X118981220Y-64900860D01*
X126179580Y-65500300D02*
G75*
G03X126179580Y-63498780I-1000760J1000760D01*
G01*
X126179580Y-63501320D02*
G75*
G03X124180600Y-63498780I-1000760J-998220D01*
G01*
X114777520Y-65497760D02*
G75*
G03X114777520Y-63100000I-1198880J1198880D01*
G01*
X113578640Y-63100000D02*
G75*
G03X113581180Y-65500300I1201420J-1198880D01*
G01*
X114780060Y-63100000D02*
G75*
G03X113581180Y-63100000I-599440J-599440D01*
G01*
X113578640Y-65500300D02*
G75*
G03X114780060Y-65502840I601980J599440D01*
G01*
X113977420Y-62899340D02*
G75*
G03X113979960Y-65700960I1402080J-1399540D01*
G01*
X125727460Y-63201600D02*
G75*
G03X123880880Y-63950900I-548640J-1297940D01*
G01*
X125727460Y-58201600D02*
G75*
G03X123880880Y-58950900I-548640J-1297940D01*
G01*
X113977420Y-57899340D02*
G75*
G03X113979960Y-60700960I1402080J-1399540D01*
G01*
X113578640Y-60500300D02*
G75*
G03X114780060Y-60502840I601980J599440D01*
G01*
X114780060Y-58100000D02*
G75*
G03X113581180Y-58100000I-599440J-599440D01*
G01*
X113578640Y-58100000D02*
G75*
G03X113581180Y-60500300I1201420J-1198880D01*
G01*
X114777520Y-60497760D02*
G75*
G03X114777520Y-58100000I-1198880J1198880D01*
G01*
X126179580Y-58501320D02*
G75*
G03X124180600Y-58498780I-1000760J-998220D01*
G01*
X126179580Y-60500300D02*
G75*
G03X126179580Y-58498780I-1000760J1000760D01*
G01*
X118981220Y-61300400D02*
X118981220Y-59900860D01*
X119778780Y-61300400D02*
X119778780Y-59900860D01*
X121579640Y-57299900D02*
X120980200Y-57299900D01*
X121579640Y-57299900D02*
X121579640Y-61300400D01*
X121579640Y-61300400D02*
X117180360Y-61300400D01*
X117180360Y-61300400D02*
X117180360Y-57299900D01*
X117180360Y-57299900D02*
X117779800Y-57299900D01*
X114180620Y-61849040D02*
X114180620Y-61351200D01*
X114180620Y-56850320D02*
X114180620Y-57350700D01*
X127680720Y-61849040D02*
X112679480Y-61849040D01*
X112679480Y-61849040D02*
X112679480Y-56850320D01*
X127680720Y-61849040D02*
X127680720Y-56850320D01*
X115580000Y-56850000D02*
X115580000Y-61850000D01*
X115580000Y-51850000D02*
X115580000Y-56850000D01*
X127680720Y-56849040D02*
X127680720Y-51850320D01*
X112679480Y-56849040D02*
X112679480Y-51850320D01*
X127680720Y-56849040D02*
X112679480Y-56849040D01*
X114180620Y-51850320D02*
X114180620Y-52350700D01*
X114180620Y-56849040D02*
X114180620Y-56351200D01*
X117180360Y-52299900D02*
X117779800Y-52299900D01*
X117180360Y-56300400D02*
X117180360Y-52299900D01*
X121579640Y-56300400D02*
X117180360Y-56300400D01*
X121579640Y-52299900D02*
X121579640Y-56300400D01*
X121579640Y-52299900D02*
X120980200Y-52299900D01*
X119778780Y-56300400D02*
X119778780Y-54900860D01*
X118981220Y-56300400D02*
X118981220Y-54900860D01*
X126179580Y-55500300D02*
G75*
G03X126179580Y-53498780I-1000760J1000760D01*
G01*
X126179580Y-53501320D02*
G75*
G03X124180600Y-53498780I-1000760J-998220D01*
G01*
X114777520Y-55497760D02*
G75*
G03X114777520Y-53100000I-1198880J1198880D01*
G01*
X113578640Y-53100000D02*
G75*
G03X113581180Y-55500300I1201420J-1198880D01*
G01*
X114780060Y-53100000D02*
G75*
G03X113581180Y-53100000I-599440J-599440D01*
G01*
X113578640Y-55500300D02*
G75*
G03X114780060Y-55502840I601980J599440D01*
G01*
X113977420Y-52899340D02*
G75*
G03X113979960Y-55700960I1402080J-1399540D01*
G01*
X125727460Y-53201600D02*
G75*
G03X123880880Y-53950900I-548640J-1297940D01*
G01*
X125727460Y-48201600D02*
G75*
G03X123880880Y-48950900I-548640J-1297940D01*
G01*
X113977420Y-47899340D02*
G75*
G03X113979960Y-50700960I1402080J-1399540D01*
G01*
X113578640Y-50500300D02*
G75*
G03X114780060Y-50502840I601980J599440D01*
G01*
X114780060Y-48100000D02*
G75*
G03X113581180Y-48100000I-599440J-599440D01*
G01*
X113578640Y-48100000D02*
G75*
G03X113581180Y-50500300I1201420J-1198880D01*
G01*
X114777520Y-50497760D02*
G75*
G03X114777520Y-48100000I-1198880J1198880D01*
G01*
X126179580Y-48501320D02*
G75*
G03X124180600Y-48498780I-1000760J-998220D01*
G01*
X126179580Y-50500300D02*
G75*
G03X126179580Y-48498780I-1000760J1000760D01*
G01*
X118981220Y-51300400D02*
X118981220Y-49900860D01*
X119778780Y-51300400D02*
X119778780Y-49900860D01*
X121579640Y-47299900D02*
X120980200Y-47299900D01*
X121579640Y-47299900D02*
X121579640Y-51300400D01*
X121579640Y-51300400D02*
X117180360Y-51300400D01*
X117180360Y-51300400D02*
X117180360Y-47299900D01*
X117180360Y-47299900D02*
X117779800Y-47299900D01*
X114180620Y-51849040D02*
X114180620Y-51351200D01*
X114180620Y-46850320D02*
X114180620Y-47350700D01*
X127680720Y-51849040D02*
X112679480Y-51849040D01*
X112679480Y-51849040D02*
X112679480Y-46850320D01*
X127680720Y-51849040D02*
X127680720Y-46850320D01*
X115580000Y-46850000D02*
X115580000Y-51850000D01*
X115580000Y-41850000D02*
X115580000Y-46850000D01*
X127680720Y-46849040D02*
X127680720Y-41850320D01*
X112679480Y-46849040D02*
X112679480Y-41850320D01*
X127680720Y-46849040D02*
X112679480Y-46849040D01*
X114180620Y-41850320D02*
X114180620Y-42350700D01*
X114180620Y-46849040D02*
X114180620Y-46351200D01*
X117180360Y-42299900D02*
X117779800Y-42299900D01*
X117180360Y-46300400D02*
X117180360Y-42299900D01*
X121579640Y-46300400D02*
X117180360Y-46300400D01*
X121579640Y-42299900D02*
X121579640Y-46300400D01*
X121579640Y-42299900D02*
X120980200Y-42299900D01*
X119778780Y-46300400D02*
X119778780Y-44900860D01*
X118981220Y-46300400D02*
X118981220Y-44900860D01*
X126179580Y-45500300D02*
G75*
G03X126179580Y-43498780I-1000760J1000760D01*
G01*
X126179580Y-43501320D02*
G75*
G03X124180600Y-43498780I-1000760J-998220D01*
G01*
X114777520Y-45497760D02*
G75*
G03X114777520Y-43100000I-1198880J1198880D01*
G01*
X113578640Y-43100000D02*
G75*
G03X113581180Y-45500300I1201420J-1198880D01*
G01*
X114780060Y-43100000D02*
G75*
G03X113581180Y-43100000I-599440J-599440D01*
G01*
X113578640Y-45500300D02*
G75*
G03X114780060Y-45502840I601980J599440D01*
G01*
X113977420Y-42899340D02*
G75*
G03X113979960Y-45700960I1402080J-1399540D01*
G01*
X125727460Y-43201600D02*
G75*
G03X123880880Y-43950900I-548640J-1297940D01*
G01*
X115580000Y-41850000D02*
X115580000Y-35350000D01*
X112680000Y-36850000D02*
X112680000Y-35350000D01*
X112680000Y-35350000D02*
X127680000Y-35350000D01*
X127680000Y-35350000D02*
X127680000Y-36850000D01*
X125727460Y-38201600D02*
G75*
G03X123880880Y-38950900I-548640J-1297940D01*
G01*
X113977420Y-37899340D02*
G75*
G03X113979960Y-40700960I1402080J-1399540D01*
G01*
X113578640Y-40500300D02*
G75*
G03X114780060Y-40502840I601980J599440D01*
G01*
X114780060Y-38100000D02*
G75*
G03X113581180Y-38100000I-599440J-599440D01*
G01*
X113578640Y-38100000D02*
G75*
G03X113581180Y-40500300I1201420J-1198880D01*
G01*
X114777520Y-40497760D02*
G75*
G03X114777520Y-38100000I-1198880J1198880D01*
G01*
X126179580Y-38501320D02*
G75*
G03X124180600Y-38498780I-1000760J-998220D01*
G01*
X126179580Y-40500300D02*
G75*
G03X126179580Y-38498780I-1000760J1000760D01*
G01*
X118981220Y-41300400D02*
X118981220Y-39900860D01*
X119778780Y-41300400D02*
X119778780Y-39900860D01*
X121579640Y-37299900D02*
X120980200Y-37299900D01*
X121579640Y-37299900D02*
X121579640Y-41300400D01*
X121579640Y-41300400D02*
X117180360Y-41300400D01*
X117180360Y-41300400D02*
X117180360Y-37299900D01*
X117180360Y-37299900D02*
X117779800Y-37299900D01*
X114180620Y-41849040D02*
X114180620Y-41351200D01*
X114180620Y-36850320D02*
X114180620Y-37350700D01*
X127680720Y-41849040D02*
X112679480Y-41849040D01*
X112679480Y-41849040D02*
X112679480Y-36850320D01*
X112679480Y-36850320D02*
X127680720Y-36850320D01*
X127680720Y-41849040D02*
X127680720Y-36850320D01*
D13*
X158546800Y-99009200D02*
X158445200Y-99009200D01*
X150164800Y-100152200D02*
X150088600Y-118287800D01*
X150088600Y-118287800D02*
X165277800Y-118287800D01*
X165201600Y-117678200D02*
X165201600Y-118287800D01*
X165150800Y-100025200D02*
X165201600Y-117703600D01*
X165150800Y-100101400D02*
X150139400Y-100101400D01*
X176326800Y-99009200D02*
X176225200Y-99009200D01*
X167944800Y-100152200D02*
X167868600Y-118287800D01*
X167868600Y-118287800D02*
X183057800Y-118287800D01*
X182981600Y-117678200D02*
X182981600Y-118287800D01*
X182930800Y-100025200D02*
X182981600Y-117703600D01*
X182930800Y-100101400D02*
X167919400Y-100101400D01*
X171653200Y-45770800D02*
X171754800Y-45770800D01*
X180035200Y-44627800D02*
X180111400Y-26492200D01*
X180111400Y-26492200D02*
X164922200Y-26492200D01*
X164998400Y-27101800D02*
X164998400Y-26492200D01*
X165049200Y-44754800D02*
X164998400Y-27076400D01*
X165049200Y-44678600D02*
X180060600Y-44678600D01*
X153873200Y-45770800D02*
X153974800Y-45770800D01*
X162255200Y-44627800D02*
X162331400Y-26492200D01*
X162331400Y-26492200D02*
X147142200Y-26492200D01*
X147218400Y-27101800D02*
X147218400Y-26492200D01*
X147269200Y-44754800D02*
X147218400Y-27076400D01*
X147269200Y-44678600D02*
X162280600Y-44678600D01*
X194106800Y-99009200D02*
X194005200Y-99009200D01*
X185724800Y-100152200D02*
X185648600Y-118287800D01*
X185648600Y-118287800D02*
X200837800Y-118287800D01*
X200761600Y-117678200D02*
X200761600Y-118287800D01*
X200710800Y-100025200D02*
X200761600Y-117703600D01*
X200710800Y-100101400D02*
X185699400Y-100101400D01*
X211886800Y-99009200D02*
X211785200Y-99009200D01*
X203504800Y-100152200D02*
X203428600Y-118287800D01*
X203428600Y-118287800D02*
X218617800Y-118287800D01*
X218541600Y-117678200D02*
X218541600Y-118287800D01*
X218490800Y-100025200D02*
X218541600Y-117703600D01*
X218490800Y-100101400D02*
X203479400Y-100101400D01*
D12*
X208534000Y-61341000D02*
X214979000Y-61341000D01*
X214884000Y-61341000D02*
X214884000Y-66421000D01*
X214979000Y-66421000D02*
X208534000Y-66421000D01*
X208534000Y-66421000D02*
X208534000Y-61341000D01*
X208534000Y-63246000D02*
X209804000Y-63246000D01*
X209804000Y-63246000D02*
X209804000Y-64516000D01*
X209804000Y-64516000D02*
X208534000Y-64516000D01*
X199517000Y-61341000D02*
X205962000Y-61341000D01*
X205867000Y-61341000D02*
X205867000Y-66421000D01*
X205962000Y-66421000D02*
X199517000Y-66421000D01*
X199517000Y-66421000D02*
X199517000Y-61341000D01*
X199517000Y-63246000D02*
X200787000Y-63246000D01*
X200787000Y-63246000D02*
X200787000Y-64516000D01*
X200787000Y-64516000D02*
X199517000Y-64516000D01*
X259334000Y-71374000D02*
X259334000Y-48514000D01*
X259334000Y-71374000D02*
X216154000Y-71374000D01*
X216154000Y-71374000D02*
X216154000Y-48514000D01*
X259334000Y-48514000D02*
X216154000Y-48514000D01*
X255095524Y-95432619D02*
X255143143Y-95385000D01*
X255238381Y-95337381D01*
X255476477Y-95337381D01*
X255571715Y-95385000D01*
X255619334Y-95432619D01*
X255666953Y-95527857D01*
X255666953Y-95623095D01*
X255619334Y-95765952D01*
X255047905Y-96337381D01*
X255666953Y-96337381D01*
X256524096Y-95670714D02*
X256524096Y-96337381D01*
X256286000Y-95289762D02*
X256047905Y-96004048D01*
X256666953Y-96004048D01*
X256905048Y-95337381D02*
X257238381Y-96337381D01*
X257571715Y-95337381D01*
X148987143Y-86526667D02*
X149463334Y-86526667D01*
X148891905Y-86812381D02*
X149225238Y-85812381D01*
X149558572Y-86812381D01*
X150320477Y-86145714D02*
X150320477Y-86812381D01*
X150082381Y-85764762D02*
X149844286Y-86479048D01*
X150463334Y-86479048D01*
X151558572Y-85764762D02*
X150701429Y-87050476D01*
X151844286Y-86526667D02*
X152320477Y-86526667D01*
X151749048Y-86812381D02*
X152082381Y-85812381D01*
X152415715Y-86812381D01*
X153225239Y-85812381D02*
X152749048Y-85812381D01*
X152701429Y-86288571D01*
X152749048Y-86240952D01*
X152844286Y-86193333D01*
X153082382Y-86193333D01*
X153177620Y-86240952D01*
X153225239Y-86288571D01*
X153272858Y-86383810D01*
X153272858Y-86621905D01*
X153225239Y-86717143D01*
X153177620Y-86764762D01*
X153082382Y-86812381D01*
X152844286Y-86812381D01*
X152749048Y-86764762D01*
X152701429Y-86717143D01*
X156948571Y-52236667D02*
X157424762Y-52236667D01*
X156853333Y-52522381D02*
X157186666Y-51522381D01*
X157520000Y-52522381D01*
X157853333Y-52522381D02*
X157853333Y-51855714D01*
X157853333Y-52046190D02*
X157900952Y-51950952D01*
X157948571Y-51903333D01*
X158043809Y-51855714D01*
X158139048Y-51855714D01*
X158900953Y-52522381D02*
X158900953Y-51522381D01*
X158900953Y-52474762D02*
X158805715Y-52522381D01*
X158615238Y-52522381D01*
X158520000Y-52474762D01*
X158472381Y-52427143D01*
X158424762Y-52331905D01*
X158424762Y-52046190D01*
X158472381Y-51950952D01*
X158520000Y-51903333D01*
X158615238Y-51855714D01*
X158805715Y-51855714D01*
X158900953Y-51903333D01*
X159805715Y-51855714D02*
X159805715Y-52522381D01*
X159377143Y-51855714D02*
X159377143Y-52379524D01*
X159424762Y-52474762D01*
X159520000Y-52522381D01*
X159662858Y-52522381D01*
X159758096Y-52474762D01*
X159805715Y-52427143D01*
X160281905Y-52522381D02*
X160281905Y-51855714D01*
X160281905Y-51522381D02*
X160234286Y-51570000D01*
X160281905Y-51617619D01*
X160329524Y-51570000D01*
X160281905Y-51522381D01*
X160281905Y-51617619D01*
X160758095Y-51855714D02*
X160758095Y-52522381D01*
X160758095Y-51950952D02*
X160805714Y-51903333D01*
X160900952Y-51855714D01*
X161043810Y-51855714D01*
X161139048Y-51903333D01*
X161186667Y-51998571D01*
X161186667Y-52522381D01*
X161805714Y-52522381D02*
X161710476Y-52474762D01*
X161662857Y-52427143D01*
X161615238Y-52331905D01*
X161615238Y-52046190D01*
X161662857Y-51950952D01*
X161710476Y-51903333D01*
X161805714Y-51855714D01*
X161948572Y-51855714D01*
X162043810Y-51903333D01*
X162091429Y-51950952D01*
X162139048Y-52046190D01*
X162139048Y-52331905D01*
X162091429Y-52427143D01*
X162043810Y-52474762D01*
X161948572Y-52522381D01*
X161805714Y-52522381D01*
X163091429Y-52522381D02*
X162520000Y-52522381D01*
X162805714Y-52522381D02*
X162805714Y-51522381D01*
X162710476Y-51665238D01*
X162615238Y-51760476D01*
X162520000Y-51808095D01*
X141708571Y-52236667D02*
X142184762Y-52236667D01*
X141613333Y-52522381D02*
X141946666Y-51522381D01*
X142280000Y-52522381D01*
X142613333Y-52522381D02*
X142613333Y-51855714D01*
X142613333Y-52046190D02*
X142660952Y-51950952D01*
X142708571Y-51903333D01*
X142803809Y-51855714D01*
X142899048Y-51855714D01*
X143660953Y-52522381D02*
X143660953Y-51522381D01*
X143660953Y-52474762D02*
X143565715Y-52522381D01*
X143375238Y-52522381D01*
X143280000Y-52474762D01*
X143232381Y-52427143D01*
X143184762Y-52331905D01*
X143184762Y-52046190D01*
X143232381Y-51950952D01*
X143280000Y-51903333D01*
X143375238Y-51855714D01*
X143565715Y-51855714D01*
X143660953Y-51903333D01*
X144565715Y-51855714D02*
X144565715Y-52522381D01*
X144137143Y-51855714D02*
X144137143Y-52379524D01*
X144184762Y-52474762D01*
X144280000Y-52522381D01*
X144422858Y-52522381D01*
X144518096Y-52474762D01*
X144565715Y-52427143D01*
X145041905Y-52522381D02*
X145041905Y-51855714D01*
X145041905Y-51522381D02*
X144994286Y-51570000D01*
X145041905Y-51617619D01*
X145089524Y-51570000D01*
X145041905Y-51522381D01*
X145041905Y-51617619D01*
X145518095Y-51855714D02*
X145518095Y-52522381D01*
X145518095Y-51950952D02*
X145565714Y-51903333D01*
X145660952Y-51855714D01*
X145803810Y-51855714D01*
X145899048Y-51903333D01*
X145946667Y-51998571D01*
X145946667Y-52522381D01*
X146565714Y-52522381D02*
X146470476Y-52474762D01*
X146422857Y-52427143D01*
X146375238Y-52331905D01*
X146375238Y-52046190D01*
X146422857Y-51950952D01*
X146470476Y-51903333D01*
X146565714Y-51855714D01*
X146708572Y-51855714D01*
X146803810Y-51903333D01*
X146851429Y-51950952D01*
X146899048Y-52046190D01*
X146899048Y-52331905D01*
X146851429Y-52427143D01*
X146803810Y-52474762D01*
X146708572Y-52522381D01*
X146565714Y-52522381D01*
X147280000Y-51617619D02*
X147327619Y-51570000D01*
X147422857Y-51522381D01*
X147660953Y-51522381D01*
X147756191Y-51570000D01*
X147803810Y-51617619D01*
X147851429Y-51712857D01*
X147851429Y-51808095D01*
X147803810Y-51950952D01*
X147232381Y-52522381D01*
X147851429Y-52522381D01*
D14*
X204032395Y-46266100D02*
X204758109Y-46266100D01*
X203887252Y-46701529D02*
X204395252Y-45177529D01*
X204903252Y-46701529D01*
X205338681Y-46628957D02*
X205483824Y-46701529D01*
X205774109Y-46701529D01*
X205919252Y-46628957D01*
X205991824Y-46483814D01*
X205991824Y-46411243D01*
X205919252Y-46266100D01*
X205774109Y-46193529D01*
X205556395Y-46193529D01*
X205411252Y-46120957D01*
X205338681Y-45975814D01*
X205338681Y-45903243D01*
X205411252Y-45758100D01*
X205556395Y-45685529D01*
X205774109Y-45685529D01*
X205919252Y-45758100D01*
X206572395Y-46628957D02*
X206717538Y-46701529D01*
X207007823Y-46701529D01*
X207152966Y-46628957D01*
X207225538Y-46483814D01*
X207225538Y-46411243D01*
X207152966Y-46266100D01*
X207007823Y-46193529D01*
X206790109Y-46193529D01*
X206644966Y-46120957D01*
X206572395Y-45975814D01*
X206572395Y-45903243D01*
X206644966Y-45758100D01*
X206790109Y-45685529D01*
X207007823Y-45685529D01*
X207152966Y-45758100D01*
X207878680Y-46701529D02*
X207878680Y-45685529D01*
X207878680Y-45177529D02*
X207806109Y-45250100D01*
X207878680Y-45322671D01*
X207951252Y-45250100D01*
X207878680Y-45177529D01*
X207878680Y-45322671D01*
X208531823Y-46628957D02*
X208676966Y-46701529D01*
X208967251Y-46701529D01*
X209112394Y-46628957D01*
X209184966Y-46483814D01*
X209184966Y-46411243D01*
X209112394Y-46266100D01*
X208967251Y-46193529D01*
X208749537Y-46193529D01*
X208604394Y-46120957D01*
X208531823Y-45975814D01*
X208531823Y-45903243D01*
X208604394Y-45758100D01*
X208749537Y-45685529D01*
X208967251Y-45685529D01*
X209112394Y-45758100D01*
X209620394Y-45685529D02*
X210200965Y-45685529D01*
X209838108Y-45177529D02*
X209838108Y-46483814D01*
X209910680Y-46628957D01*
X210055822Y-46701529D01*
X210200965Y-46701529D01*
X210636394Y-46628957D02*
X210781537Y-46701529D01*
X211071822Y-46701529D01*
X211216965Y-46628957D01*
X211289537Y-46483814D01*
X211289537Y-46411243D01*
X211216965Y-46266100D01*
X211071822Y-46193529D01*
X210854108Y-46193529D01*
X210708965Y-46120957D01*
X210636394Y-45975814D01*
X210636394Y-45903243D01*
X210708965Y-45758100D01*
X210854108Y-45685529D01*
X211071822Y-45685529D01*
X211216965Y-45758100D01*
X212740965Y-46701529D02*
X211870108Y-46701529D01*
X212305536Y-46701529D02*
X212305536Y-45177529D01*
X212160393Y-45395243D01*
X212015251Y-45540386D01*
X211870108Y-45612957D01*
X206364114Y-29162829D02*
X205856114Y-28437114D01*
X205493257Y-29162829D02*
X205493257Y-27638829D01*
X206073829Y-27638829D01*
X206218971Y-27711400D01*
X206291543Y-27783971D01*
X206364114Y-27929114D01*
X206364114Y-28146829D01*
X206291543Y-28291971D01*
X206218971Y-28364543D01*
X206073829Y-28437114D01*
X205493257Y-28437114D01*
X207452686Y-27638829D02*
X207452686Y-28727400D01*
X207380114Y-28945114D01*
X207234971Y-29090257D01*
X207017257Y-29162829D01*
X206872114Y-29162829D01*
X208831543Y-28146829D02*
X208831543Y-29162829D01*
X208468686Y-27566257D02*
X208105829Y-28654829D01*
X209049257Y-28654829D01*
X210355543Y-27638829D02*
X209629829Y-27638829D01*
X209557258Y-28364543D01*
X209629829Y-28291971D01*
X209774972Y-28219400D01*
X210137829Y-28219400D01*
X210282972Y-28291971D01*
X210355543Y-28364543D01*
X210428115Y-28509686D01*
X210428115Y-28872543D01*
X210355543Y-29017686D01*
X210282972Y-29090257D01*
X210137829Y-29162829D01*
X209774972Y-29162829D01*
X209629829Y-29090257D01*
X209557258Y-29017686D01*
D12*
X131143809Y-57316667D02*
X131620000Y-57316667D01*
X131048571Y-57602381D02*
X131381904Y-56602381D01*
X131715238Y-57602381D01*
X132477143Y-56935714D02*
X132477143Y-57602381D01*
X132048571Y-56935714D02*
X132048571Y-57459524D01*
X132096190Y-57554762D01*
X132191428Y-57602381D01*
X132334286Y-57602381D01*
X132429524Y-57554762D01*
X132477143Y-57507143D01*
X132810476Y-56935714D02*
X133191428Y-56935714D01*
X132953333Y-56602381D02*
X132953333Y-57459524D01*
X133000952Y-57554762D01*
X133096190Y-57602381D01*
X133191428Y-57602381D01*
X133667619Y-57602381D02*
X133572381Y-57554762D01*
X133524762Y-57507143D01*
X133477143Y-57411905D01*
X133477143Y-57126190D01*
X133524762Y-57030952D01*
X133572381Y-56983333D01*
X133667619Y-56935714D01*
X133810477Y-56935714D01*
X133905715Y-56983333D01*
X133953334Y-57030952D01*
X134000953Y-57126190D01*
X134000953Y-57411905D01*
X133953334Y-57507143D01*
X133905715Y-57554762D01*
X133810477Y-57602381D01*
X133667619Y-57602381D01*
X135000953Y-57602381D02*
X134667619Y-57126190D01*
X134429524Y-57602381D02*
X134429524Y-56602381D01*
X134810477Y-56602381D01*
X134905715Y-56650000D01*
X134953334Y-56697619D01*
X135000953Y-56792857D01*
X135000953Y-56935714D01*
X134953334Y-57030952D01*
X134905715Y-57078571D01*
X134810477Y-57126190D01*
X134429524Y-57126190D01*
X135810477Y-57554762D02*
X135715239Y-57602381D01*
X135524762Y-57602381D01*
X135429524Y-57554762D01*
X135381905Y-57459524D01*
X135381905Y-57078571D01*
X135429524Y-56983333D01*
X135524762Y-56935714D01*
X135715239Y-56935714D01*
X135810477Y-56983333D01*
X135858096Y-57078571D01*
X135858096Y-57173810D01*
X135381905Y-57269048D01*
X136239048Y-57554762D02*
X136334286Y-57602381D01*
X136524762Y-57602381D01*
X136620001Y-57554762D01*
X136667620Y-57459524D01*
X136667620Y-57411905D01*
X136620001Y-57316667D01*
X136524762Y-57269048D01*
X136381905Y-57269048D01*
X136286667Y-57221429D01*
X136239048Y-57126190D01*
X136239048Y-57078571D01*
X136286667Y-56983333D01*
X136381905Y-56935714D01*
X136524762Y-56935714D01*
X136620001Y-56983333D01*
X137477144Y-57554762D02*
X137381906Y-57602381D01*
X137191429Y-57602381D01*
X137096191Y-57554762D01*
X137048572Y-57459524D01*
X137048572Y-57078571D01*
X137096191Y-56983333D01*
X137191429Y-56935714D01*
X137381906Y-56935714D01*
X137477144Y-56983333D01*
X137524763Y-57078571D01*
X137524763Y-57173810D01*
X137048572Y-57269048D01*
X137810477Y-56935714D02*
X138191429Y-56935714D01*
X137953334Y-56602381D02*
X137953334Y-57459524D01*
X138000953Y-57554762D01*
X138096191Y-57602381D01*
X138191429Y-57602381D01*
X123023334Y-89257143D02*
X122975715Y-89304762D01*
X122832858Y-89352381D01*
X122737620Y-89352381D01*
X122594762Y-89304762D01*
X122499524Y-89209524D01*
X122451905Y-89114286D01*
X122404286Y-88923810D01*
X122404286Y-88780952D01*
X122451905Y-88590476D01*
X122499524Y-88495238D01*
X122594762Y-88400000D01*
X122737620Y-88352381D01*
X122832858Y-88352381D01*
X122975715Y-88400000D01*
X123023334Y-88447619D01*
X123356667Y-88352381D02*
X123975715Y-88352381D01*
X123642381Y-88733333D01*
X123785239Y-88733333D01*
X123880477Y-88780952D01*
X123928096Y-88828571D01*
X123975715Y-88923810D01*
X123975715Y-89161905D01*
X123928096Y-89257143D01*
X123880477Y-89304762D01*
X123785239Y-89352381D01*
X123499524Y-89352381D01*
X123404286Y-89304762D01*
X123356667Y-89257143D01*
X252563334Y-90781143D02*
X252515715Y-90828762D01*
X252372858Y-90876381D01*
X252277620Y-90876381D01*
X252134762Y-90828762D01*
X252039524Y-90733524D01*
X251991905Y-90638286D01*
X251944286Y-90447810D01*
X251944286Y-90304952D01*
X251991905Y-90114476D01*
X252039524Y-90019238D01*
X252134762Y-89924000D01*
X252277620Y-89876381D01*
X252372858Y-89876381D01*
X252515715Y-89924000D01*
X252563334Y-89971619D01*
X253420477Y-90209714D02*
X253420477Y-90876381D01*
X253182381Y-89828762D02*
X252944286Y-90543048D01*
X253563334Y-90543048D01*
X230100143Y-93257666D02*
X230147762Y-93305285D01*
X230195381Y-93448142D01*
X230195381Y-93543380D01*
X230147762Y-93686238D01*
X230052524Y-93781476D01*
X229957286Y-93829095D01*
X229766810Y-93876714D01*
X229623952Y-93876714D01*
X229433476Y-93829095D01*
X229338238Y-93781476D01*
X229243000Y-93686238D01*
X229195381Y-93543380D01*
X229195381Y-93448142D01*
X229243000Y-93305285D01*
X229290619Y-93257666D01*
X229195381Y-92352904D02*
X229195381Y-92829095D01*
X229671571Y-92876714D01*
X229623952Y-92829095D01*
X229576333Y-92733857D01*
X229576333Y-92495761D01*
X229623952Y-92400523D01*
X229671571Y-92352904D01*
X229766810Y-92305285D01*
X230004905Y-92305285D01*
X230100143Y-92352904D01*
X230147762Y-92400523D01*
X230195381Y-92495761D01*
X230195381Y-92733857D01*
X230147762Y-92829095D01*
X230100143Y-92876714D01*
X178933143Y-63793666D02*
X178980762Y-63841285D01*
X179028381Y-63984142D01*
X179028381Y-64079380D01*
X178980762Y-64222238D01*
X178885524Y-64317476D01*
X178790286Y-64365095D01*
X178599810Y-64412714D01*
X178456952Y-64412714D01*
X178266476Y-64365095D01*
X178171238Y-64317476D01*
X178076000Y-64222238D01*
X178028381Y-64079380D01*
X178028381Y-63984142D01*
X178076000Y-63841285D01*
X178123619Y-63793666D01*
X179028381Y-63317476D02*
X179028381Y-63127000D01*
X178980762Y-63031761D01*
X178933143Y-62984142D01*
X178790286Y-62888904D01*
X178599810Y-62841285D01*
X178218857Y-62841285D01*
X178123619Y-62888904D01*
X178076000Y-62936523D01*
X178028381Y-63031761D01*
X178028381Y-63222238D01*
X178076000Y-63317476D01*
X178123619Y-63365095D01*
X178218857Y-63412714D01*
X178456952Y-63412714D01*
X178552190Y-63365095D01*
X178599810Y-63317476D01*
X178647429Y-63222238D01*
X178647429Y-63031761D01*
X178599810Y-62936523D01*
X178552190Y-62888904D01*
X178456952Y-62841285D01*
X178933143Y-76969857D02*
X178980762Y-77017476D01*
X179028381Y-77160333D01*
X179028381Y-77255571D01*
X178980762Y-77398429D01*
X178885524Y-77493667D01*
X178790286Y-77541286D01*
X178599810Y-77588905D01*
X178456952Y-77588905D01*
X178266476Y-77541286D01*
X178171238Y-77493667D01*
X178076000Y-77398429D01*
X178028381Y-77255571D01*
X178028381Y-77160333D01*
X178076000Y-77017476D01*
X178123619Y-76969857D01*
X179028381Y-76017476D02*
X179028381Y-76588905D01*
X179028381Y-76303191D02*
X178028381Y-76303191D01*
X178171238Y-76398429D01*
X178266476Y-76493667D01*
X178314095Y-76588905D01*
X178028381Y-75398429D02*
X178028381Y-75303190D01*
X178076000Y-75207952D01*
X178123619Y-75160333D01*
X178218857Y-75112714D01*
X178409333Y-75065095D01*
X178647429Y-75065095D01*
X178837905Y-75112714D01*
X178933143Y-75160333D01*
X178980762Y-75207952D01*
X179028381Y-75303190D01*
X179028381Y-75398429D01*
X178980762Y-75493667D01*
X178933143Y-75541286D01*
X178837905Y-75588905D01*
X178647429Y-75636524D01*
X178409333Y-75636524D01*
X178218857Y-75588905D01*
X178123619Y-75541286D01*
X178076000Y-75493667D01*
X178028381Y-75398429D01*
D14*
X133928394Y-46628957D02*
X133783251Y-46701529D01*
X133492965Y-46701529D01*
X133347823Y-46628957D01*
X133275251Y-46556386D01*
X133202680Y-46411243D01*
X133202680Y-45975814D01*
X133275251Y-45830671D01*
X133347823Y-45758100D01*
X133492965Y-45685529D01*
X133783251Y-45685529D01*
X133928394Y-45758100D01*
X134581537Y-46701529D02*
X134581537Y-45177529D01*
X135234680Y-46701529D02*
X135234680Y-45903243D01*
X135162109Y-45758100D01*
X135016966Y-45685529D01*
X134799251Y-45685529D01*
X134654109Y-45758100D01*
X134581537Y-45830671D01*
X135960394Y-46701529D02*
X135960394Y-45685529D01*
X135960394Y-45177529D02*
X135887823Y-45250100D01*
X135960394Y-45322671D01*
X136032966Y-45250100D01*
X135960394Y-45177529D01*
X135960394Y-45322671D01*
X136903822Y-46701529D02*
X136758680Y-46628957D01*
X136686108Y-46483814D01*
X136686108Y-45177529D01*
X137702108Y-46701529D02*
X137556966Y-46628957D01*
X137484394Y-46483814D01*
X137484394Y-45177529D01*
X138863252Y-46628957D02*
X138718109Y-46701529D01*
X138427823Y-46701529D01*
X138282680Y-46628957D01*
X138210109Y-46483814D01*
X138210109Y-45903243D01*
X138282680Y-45758100D01*
X138427823Y-45685529D01*
X138718109Y-45685529D01*
X138863252Y-45758100D01*
X138935823Y-45903243D01*
X138935823Y-46048386D01*
X138210109Y-46193529D01*
X139588966Y-46701529D02*
X139588966Y-45685529D01*
X139588966Y-45975814D02*
X139661538Y-45830671D01*
X139734109Y-45758100D01*
X139879252Y-45685529D01*
X140024395Y-45685529D01*
X141330681Y-46701529D02*
X140459824Y-46701529D01*
X140895252Y-46701529D02*
X140895252Y-45177529D01*
X140750109Y-45395243D01*
X140604967Y-45540386D01*
X140459824Y-45612957D01*
X135244114Y-29162829D02*
X134736114Y-28437114D01*
X134373257Y-29162829D02*
X134373257Y-27638829D01*
X134953829Y-27638829D01*
X135098971Y-27711400D01*
X135171543Y-27783971D01*
X135244114Y-27929114D01*
X135244114Y-28146829D01*
X135171543Y-28291971D01*
X135098971Y-28364543D01*
X134953829Y-28437114D01*
X134373257Y-28437114D01*
X136332686Y-27638829D02*
X136332686Y-28727400D01*
X136260114Y-28945114D01*
X136114971Y-29090257D01*
X135897257Y-29162829D01*
X135752114Y-29162829D01*
X137711543Y-28146829D02*
X137711543Y-29162829D01*
X137348686Y-27566257D02*
X136985829Y-28654829D01*
X137929257Y-28654829D01*
X139235543Y-27638829D02*
X138509829Y-27638829D01*
X138437258Y-28364543D01*
X138509829Y-28291971D01*
X138654972Y-28219400D01*
X139017829Y-28219400D01*
X139162972Y-28291971D01*
X139235543Y-28364543D01*
X139308115Y-28509686D01*
X139308115Y-28872543D01*
X139235543Y-29017686D01*
X139162972Y-29090257D01*
X139017829Y-29162829D01*
X138654972Y-29162829D01*
X138509829Y-29090257D01*
X138437258Y-29017686D01*
D12*
X208430905Y-56205381D02*
X208430905Y-55205381D01*
X208669000Y-55205381D01*
X208811858Y-55253000D01*
X208907096Y-55348238D01*
X208954715Y-55443476D01*
X209002334Y-55633952D01*
X209002334Y-55776810D01*
X208954715Y-55967286D01*
X208907096Y-56062524D01*
X208811858Y-56157762D01*
X208669000Y-56205381D01*
X208430905Y-56205381D01*
X209954715Y-56205381D02*
X209383286Y-56205381D01*
X209669000Y-56205381D02*
X209669000Y-55205381D01*
X209573762Y-55348238D01*
X209478524Y-55443476D01*
X209383286Y-55491095D01*
X211724905Y-54395667D02*
X212201096Y-54395667D01*
X211629667Y-54681381D02*
X211963000Y-53681381D01*
X212296334Y-54681381D01*
X199413905Y-56078381D02*
X199413905Y-55078381D01*
X199652000Y-55078381D01*
X199794858Y-55126000D01*
X199890096Y-55221238D01*
X199937715Y-55316476D01*
X199985334Y-55506952D01*
X199985334Y-55649810D01*
X199937715Y-55840286D01*
X199890096Y-55935524D01*
X199794858Y-56030762D01*
X199652000Y-56078381D01*
X199413905Y-56078381D01*
X200366286Y-55173619D02*
X200413905Y-55126000D01*
X200509143Y-55078381D01*
X200747239Y-55078381D01*
X200842477Y-55126000D01*
X200890096Y-55173619D01*
X200937715Y-55268857D01*
X200937715Y-55364095D01*
X200890096Y-55506952D01*
X200318667Y-56078381D01*
X200937715Y-56078381D01*
X202707905Y-54268667D02*
X203184096Y-54268667D01*
X202612667Y-54554381D02*
X202946000Y-53554381D01*
X203279334Y-54554381D01*
D14*
X119563606Y-99457329D02*
X119563606Y-97933329D01*
X119563606Y-99384757D02*
X119418463Y-99457329D01*
X119128177Y-99457329D01*
X118983035Y-99384757D01*
X118910463Y-99312186D01*
X118837892Y-99167043D01*
X118837892Y-98731614D01*
X118910463Y-98586471D01*
X118983035Y-98513900D01*
X119128177Y-98441329D01*
X119418463Y-98441329D01*
X119563606Y-98513900D01*
X120507034Y-99457329D02*
X120361892Y-99384757D01*
X120289320Y-99312186D01*
X120216749Y-99167043D01*
X120216749Y-98731614D01*
X120289320Y-98586471D01*
X120361892Y-98513900D01*
X120507034Y-98441329D01*
X120724749Y-98441329D01*
X120869892Y-98513900D01*
X120942463Y-98586471D01*
X121015034Y-98731614D01*
X121015034Y-99167043D01*
X120942463Y-99312186D01*
X120869892Y-99384757D01*
X120724749Y-99457329D01*
X120507034Y-99457329D01*
X121885891Y-99457329D02*
X121740749Y-99384757D01*
X121668177Y-99312186D01*
X121595606Y-99167043D01*
X121595606Y-98731614D01*
X121668177Y-98586471D01*
X121740749Y-98513900D01*
X121885891Y-98441329D01*
X122103606Y-98441329D01*
X122248749Y-98513900D01*
X122321320Y-98586471D01*
X122393891Y-98731614D01*
X122393891Y-99167043D01*
X122321320Y-99312186D01*
X122248749Y-99384757D01*
X122103606Y-99457329D01*
X121885891Y-99457329D01*
X123047034Y-99457329D02*
X123047034Y-98441329D01*
X123047034Y-98731614D02*
X123119606Y-98586471D01*
X123192177Y-98513900D01*
X123337320Y-98441329D01*
X123482463Y-98441329D01*
X124788749Y-99457329D02*
X123917892Y-99457329D01*
X124353320Y-99457329D02*
X124353320Y-97933329D01*
X124208177Y-98151043D01*
X124063035Y-98296186D01*
X123917892Y-98368757D01*
X120715314Y-116996029D02*
X120207314Y-116270314D01*
X119844457Y-116996029D02*
X119844457Y-115472029D01*
X120425029Y-115472029D01*
X120570171Y-115544600D01*
X120642743Y-115617171D01*
X120715314Y-115762314D01*
X120715314Y-115980029D01*
X120642743Y-116125171D01*
X120570171Y-116197743D01*
X120425029Y-116270314D01*
X119844457Y-116270314D01*
X121803886Y-115472029D02*
X121803886Y-116560600D01*
X121731314Y-116778314D01*
X121586171Y-116923457D01*
X121368457Y-116996029D01*
X121223314Y-116996029D01*
X123182743Y-115980029D02*
X123182743Y-116996029D01*
X122819886Y-115399457D02*
X122457029Y-116488029D01*
X123400457Y-116488029D01*
X124706743Y-115472029D02*
X123981029Y-115472029D01*
X123908458Y-116197743D01*
X123981029Y-116125171D01*
X124126172Y-116052600D01*
X124489029Y-116052600D01*
X124634172Y-116125171D01*
X124706743Y-116197743D01*
X124779315Y-116342886D01*
X124779315Y-116705743D01*
X124706743Y-116850886D01*
X124634172Y-116923457D01*
X124489029Y-116996029D01*
X124126172Y-116996029D01*
X123981029Y-116923457D01*
X123908458Y-116850886D01*
X137343606Y-99457329D02*
X137343606Y-97933329D01*
X137343606Y-99384757D02*
X137198463Y-99457329D01*
X136908177Y-99457329D01*
X136763035Y-99384757D01*
X136690463Y-99312186D01*
X136617892Y-99167043D01*
X136617892Y-98731614D01*
X136690463Y-98586471D01*
X136763035Y-98513900D01*
X136908177Y-98441329D01*
X137198463Y-98441329D01*
X137343606Y-98513900D01*
X138287034Y-99457329D02*
X138141892Y-99384757D01*
X138069320Y-99312186D01*
X137996749Y-99167043D01*
X137996749Y-98731614D01*
X138069320Y-98586471D01*
X138141892Y-98513900D01*
X138287034Y-98441329D01*
X138504749Y-98441329D01*
X138649892Y-98513900D01*
X138722463Y-98586471D01*
X138795034Y-98731614D01*
X138795034Y-99167043D01*
X138722463Y-99312186D01*
X138649892Y-99384757D01*
X138504749Y-99457329D01*
X138287034Y-99457329D01*
X139665891Y-99457329D02*
X139520749Y-99384757D01*
X139448177Y-99312186D01*
X139375606Y-99167043D01*
X139375606Y-98731614D01*
X139448177Y-98586471D01*
X139520749Y-98513900D01*
X139665891Y-98441329D01*
X139883606Y-98441329D01*
X140028749Y-98513900D01*
X140101320Y-98586471D01*
X140173891Y-98731614D01*
X140173891Y-99167043D01*
X140101320Y-99312186D01*
X140028749Y-99384757D01*
X139883606Y-99457329D01*
X139665891Y-99457329D01*
X140827034Y-99457329D02*
X140827034Y-98441329D01*
X140827034Y-98731614D02*
X140899606Y-98586471D01*
X140972177Y-98513900D01*
X141117320Y-98441329D01*
X141262463Y-98441329D01*
X141697892Y-98078471D02*
X141770463Y-98005900D01*
X141915606Y-97933329D01*
X142278463Y-97933329D01*
X142423606Y-98005900D01*
X142496177Y-98078471D01*
X142568749Y-98223614D01*
X142568749Y-98368757D01*
X142496177Y-98586471D01*
X141625320Y-99457329D01*
X142568749Y-99457329D01*
X138495314Y-116996029D02*
X137987314Y-116270314D01*
X137624457Y-116996029D02*
X137624457Y-115472029D01*
X138205029Y-115472029D01*
X138350171Y-115544600D01*
X138422743Y-115617171D01*
X138495314Y-115762314D01*
X138495314Y-115980029D01*
X138422743Y-116125171D01*
X138350171Y-116197743D01*
X138205029Y-116270314D01*
X137624457Y-116270314D01*
X139583886Y-115472029D02*
X139583886Y-116560600D01*
X139511314Y-116778314D01*
X139366171Y-116923457D01*
X139148457Y-116996029D01*
X139003314Y-116996029D01*
X140962743Y-115980029D02*
X140962743Y-116996029D01*
X140599886Y-115399457D02*
X140237029Y-116488029D01*
X141180457Y-116488029D01*
X142486743Y-115472029D02*
X141761029Y-115472029D01*
X141688458Y-116197743D01*
X141761029Y-116125171D01*
X141906172Y-116052600D01*
X142269029Y-116052600D01*
X142414172Y-116125171D01*
X142486743Y-116197743D01*
X142559315Y-116342886D01*
X142559315Y-116705743D01*
X142486743Y-116850886D01*
X142414172Y-116923457D01*
X142269029Y-116996029D01*
X141906172Y-116996029D01*
X141761029Y-116923457D01*
X141688458Y-116850886D01*
X186179823Y-45903243D02*
X186687823Y-45903243D01*
X186905537Y-46701529D02*
X186179823Y-46701529D01*
X186179823Y-45177529D01*
X186905537Y-45177529D01*
X187558680Y-46120957D02*
X188719823Y-46120957D01*
X189372966Y-46628957D02*
X189518109Y-46701529D01*
X189808394Y-46701529D01*
X189953537Y-46628957D01*
X190026109Y-46483814D01*
X190026109Y-46411243D01*
X189953537Y-46266100D01*
X189808394Y-46193529D01*
X189590680Y-46193529D01*
X189445537Y-46120957D01*
X189372966Y-45975814D01*
X189372966Y-45903243D01*
X189445537Y-45758100D01*
X189590680Y-45685529D01*
X189808394Y-45685529D01*
X189953537Y-45758100D01*
X190461537Y-45685529D02*
X191042108Y-45685529D01*
X190679251Y-45177529D02*
X190679251Y-46483814D01*
X190751823Y-46628957D01*
X190896965Y-46701529D01*
X191042108Y-46701529D01*
X191767822Y-46701529D02*
X191622680Y-46628957D01*
X191550108Y-46556386D01*
X191477537Y-46411243D01*
X191477537Y-45975814D01*
X191550108Y-45830671D01*
X191622680Y-45758100D01*
X191767822Y-45685529D01*
X191985537Y-45685529D01*
X192130680Y-45758100D01*
X192203251Y-45830671D01*
X192275822Y-45975814D01*
X192275822Y-46411243D01*
X192203251Y-46556386D01*
X192130680Y-46628957D01*
X191985537Y-46701529D01*
X191767822Y-46701529D01*
X192928965Y-45685529D02*
X192928965Y-47209529D01*
X192928965Y-45758100D02*
X193074108Y-45685529D01*
X193364394Y-45685529D01*
X193509537Y-45758100D01*
X193582108Y-45830671D01*
X193654679Y-45975814D01*
X193654679Y-46411243D01*
X193582108Y-46556386D01*
X193509537Y-46628957D01*
X193364394Y-46701529D01*
X193074108Y-46701529D01*
X192928965Y-46628957D01*
X195106108Y-46701529D02*
X194235251Y-46701529D01*
X194670679Y-46701529D02*
X194670679Y-45177529D01*
X194525536Y-45395243D01*
X194380394Y-45540386D01*
X194235251Y-45612957D01*
X188584114Y-29162829D02*
X188076114Y-28437114D01*
X187713257Y-29162829D02*
X187713257Y-27638829D01*
X188293829Y-27638829D01*
X188438971Y-27711400D01*
X188511543Y-27783971D01*
X188584114Y-27929114D01*
X188584114Y-28146829D01*
X188511543Y-28291971D01*
X188438971Y-28364543D01*
X188293829Y-28437114D01*
X187713257Y-28437114D01*
X189672686Y-27638829D02*
X189672686Y-28727400D01*
X189600114Y-28945114D01*
X189454971Y-29090257D01*
X189237257Y-29162829D01*
X189092114Y-29162829D01*
X191051543Y-28146829D02*
X191051543Y-29162829D01*
X190688686Y-27566257D02*
X190325829Y-28654829D01*
X191269257Y-28654829D01*
X192575543Y-27638829D02*
X191849829Y-27638829D01*
X191777258Y-28364543D01*
X191849829Y-28291971D01*
X191994972Y-28219400D01*
X192357829Y-28219400D01*
X192502972Y-28291971D01*
X192575543Y-28364543D01*
X192648115Y-28509686D01*
X192648115Y-28872543D01*
X192575543Y-29017686D01*
X192502972Y-29090257D01*
X192357829Y-29162829D01*
X191994972Y-29162829D01*
X191849829Y-29090257D01*
X191777258Y-29017686D01*
D12*
X168098381Y-77176190D02*
X167098381Y-77176190D01*
X168003143Y-76128571D02*
X168050762Y-76176190D01*
X168098381Y-76319047D01*
X168098381Y-76414285D01*
X168050762Y-76557143D01*
X167955524Y-76652381D01*
X167860286Y-76700000D01*
X167669810Y-76747619D01*
X167526952Y-76747619D01*
X167336476Y-76700000D01*
X167241238Y-76652381D01*
X167146000Y-76557143D01*
X167098381Y-76414285D01*
X167098381Y-76319047D01*
X167146000Y-76176190D01*
X167193619Y-76128571D01*
X168098381Y-75176190D02*
X168098381Y-75747619D01*
X168098381Y-75461905D02*
X167098381Y-75461905D01*
X167241238Y-75557143D01*
X167336476Y-75652381D01*
X167384095Y-75747619D01*
X168098381Y-64984190D02*
X167098381Y-64984190D01*
X168003143Y-63936571D02*
X168050762Y-63984190D01*
X168098381Y-64127047D01*
X168098381Y-64222285D01*
X168050762Y-64365143D01*
X167955524Y-64460381D01*
X167860286Y-64508000D01*
X167669810Y-64555619D01*
X167526952Y-64555619D01*
X167336476Y-64508000D01*
X167241238Y-64460381D01*
X167146000Y-64365143D01*
X167098381Y-64222285D01*
X167098381Y-64127047D01*
X167146000Y-63984190D01*
X167193619Y-63936571D01*
X167193619Y-63555619D02*
X167146000Y-63508000D01*
X167098381Y-63412762D01*
X167098381Y-63174666D01*
X167146000Y-63079428D01*
X167193619Y-63031809D01*
X167288857Y-62984190D01*
X167384095Y-62984190D01*
X167526952Y-63031809D01*
X168098381Y-63603238D01*
X168098381Y-62984190D01*
D14*
X225517891Y-99457329D02*
X225372749Y-99384757D01*
X225300177Y-99239614D01*
X225300177Y-97933329D01*
X226751606Y-99457329D02*
X226751606Y-98659043D01*
X226679035Y-98513900D01*
X226533892Y-98441329D01*
X226243606Y-98441329D01*
X226098463Y-98513900D01*
X226751606Y-99384757D02*
X226606463Y-99457329D01*
X226243606Y-99457329D01*
X226098463Y-99384757D01*
X226025892Y-99239614D01*
X226025892Y-99094471D01*
X226098463Y-98949329D01*
X226243606Y-98876757D01*
X226606463Y-98876757D01*
X226751606Y-98804186D01*
X227404749Y-99384757D02*
X227549892Y-99457329D01*
X227840177Y-99457329D01*
X227985320Y-99384757D01*
X228057892Y-99239614D01*
X228057892Y-99167043D01*
X227985320Y-99021900D01*
X227840177Y-98949329D01*
X227622463Y-98949329D01*
X227477320Y-98876757D01*
X227404749Y-98731614D01*
X227404749Y-98659043D01*
X227477320Y-98513900D01*
X227622463Y-98441329D01*
X227840177Y-98441329D01*
X227985320Y-98513900D01*
X229291606Y-99384757D02*
X229146463Y-99457329D01*
X228856177Y-99457329D01*
X228711034Y-99384757D01*
X228638463Y-99239614D01*
X228638463Y-98659043D01*
X228711034Y-98513900D01*
X228856177Y-98441329D01*
X229146463Y-98441329D01*
X229291606Y-98513900D01*
X229364177Y-98659043D01*
X229364177Y-98804186D01*
X228638463Y-98949329D01*
X230017320Y-99457329D02*
X230017320Y-98441329D01*
X230017320Y-98731614D02*
X230089892Y-98586471D01*
X230162463Y-98513900D01*
X230307606Y-98441329D01*
X230452749Y-98441329D01*
X231759035Y-99457329D02*
X230888178Y-99457329D01*
X231323606Y-99457329D02*
X231323606Y-97933329D01*
X231178463Y-98151043D01*
X231033321Y-98296186D01*
X230888178Y-98368757D01*
X227395314Y-116996029D02*
X226887314Y-116270314D01*
X226524457Y-116996029D02*
X226524457Y-115472029D01*
X227105029Y-115472029D01*
X227250171Y-115544600D01*
X227322743Y-115617171D01*
X227395314Y-115762314D01*
X227395314Y-115980029D01*
X227322743Y-116125171D01*
X227250171Y-116197743D01*
X227105029Y-116270314D01*
X226524457Y-116270314D01*
X228483886Y-115472029D02*
X228483886Y-116560600D01*
X228411314Y-116778314D01*
X228266171Y-116923457D01*
X228048457Y-116996029D01*
X227903314Y-116996029D01*
X229862743Y-115980029D02*
X229862743Y-116996029D01*
X229499886Y-115399457D02*
X229137029Y-116488029D01*
X230080457Y-116488029D01*
X231386743Y-115472029D02*
X230661029Y-115472029D01*
X230588458Y-116197743D01*
X230661029Y-116125171D01*
X230806172Y-116052600D01*
X231169029Y-116052600D01*
X231314172Y-116125171D01*
X231386743Y-116197743D01*
X231459315Y-116342886D01*
X231459315Y-116705743D01*
X231386743Y-116850886D01*
X231314172Y-116923457D01*
X231169029Y-116996029D01*
X230806172Y-116996029D01*
X230661029Y-116923457D01*
X230588458Y-116850886D01*
D12*
X255801905Y-42972381D02*
X255801905Y-41972381D01*
X256182858Y-41972381D01*
X256278096Y-42020000D01*
X256325715Y-42067619D01*
X256373334Y-42162857D01*
X256373334Y-42305714D01*
X256325715Y-42400952D01*
X256278096Y-42448571D01*
X256182858Y-42496190D01*
X255801905Y-42496190D01*
X257325715Y-42972381D02*
X256754286Y-42972381D01*
X257040000Y-42972381D02*
X257040000Y-41972381D01*
X256944762Y-42115238D01*
X256849524Y-42210476D01*
X256754286Y-42258095D01*
X240561905Y-42972381D02*
X240561905Y-41972381D01*
X240942858Y-41972381D01*
X241038096Y-42020000D01*
X241085715Y-42067619D01*
X241133334Y-42162857D01*
X241133334Y-42305714D01*
X241085715Y-42400952D01*
X241038096Y-42448571D01*
X240942858Y-42496190D01*
X240561905Y-42496190D01*
X241514286Y-42067619D02*
X241561905Y-42020000D01*
X241657143Y-41972381D01*
X241895239Y-41972381D01*
X241990477Y-42020000D01*
X242038096Y-42067619D01*
X242085715Y-42162857D01*
X242085715Y-42258095D01*
X242038096Y-42400952D01*
X241466667Y-42972381D01*
X242085715Y-42972381D01*
X243555381Y-86209095D02*
X242555381Y-86209095D01*
X242555381Y-85828142D01*
X242603000Y-85732904D01*
X242650619Y-85685285D01*
X242745857Y-85637666D01*
X242888714Y-85637666D01*
X242983952Y-85685285D01*
X243031571Y-85732904D01*
X243079190Y-85828142D01*
X243079190Y-86209095D01*
X242555381Y-85304333D02*
X242555381Y-84685285D01*
X242936333Y-85018619D01*
X242936333Y-84875761D01*
X242983952Y-84780523D01*
X243031571Y-84732904D01*
X243126810Y-84685285D01*
X243364905Y-84685285D01*
X243460143Y-84732904D01*
X243507762Y-84780523D01*
X243555381Y-84875761D01*
X243555381Y-85161476D01*
X243507762Y-85256714D01*
X243460143Y-85304333D01*
X228242905Y-76017381D02*
X228242905Y-75017381D01*
X228623858Y-75017381D01*
X228719096Y-75065000D01*
X228766715Y-75112619D01*
X228814334Y-75207857D01*
X228814334Y-75350714D01*
X228766715Y-75445952D01*
X228719096Y-75493571D01*
X228623858Y-75541190D01*
X228242905Y-75541190D01*
X229671477Y-75017381D02*
X229481000Y-75017381D01*
X229385762Y-75065000D01*
X229338143Y-75112619D01*
X229242905Y-75255476D01*
X229195286Y-75445952D01*
X229195286Y-75826905D01*
X229242905Y-75922143D01*
X229290524Y-75969762D01*
X229385762Y-76017381D01*
X229576239Y-76017381D01*
X229671477Y-75969762D01*
X229719096Y-75922143D01*
X229766715Y-75826905D01*
X229766715Y-75588810D01*
X229719096Y-75493571D01*
X229671477Y-75445952D01*
X229576239Y-75398333D01*
X229385762Y-75398333D01*
X229290524Y-75445952D01*
X229242905Y-75493571D01*
X229195286Y-75588810D01*
X152233334Y-74112381D02*
X151900000Y-73636190D01*
X151661905Y-74112381D02*
X151661905Y-73112381D01*
X152042858Y-73112381D01*
X152138096Y-73160000D01*
X152185715Y-73207619D01*
X152233334Y-73302857D01*
X152233334Y-73445714D01*
X152185715Y-73540952D01*
X152138096Y-73588571D01*
X152042858Y-73636190D01*
X151661905Y-73636190D01*
X153185715Y-74112381D02*
X152614286Y-74112381D01*
X152900000Y-74112381D02*
X152900000Y-73112381D01*
X152804762Y-73255238D01*
X152709524Y-73350476D01*
X152614286Y-73398095D01*
X152233334Y-71572381D02*
X151900000Y-71096190D01*
X151661905Y-71572381D02*
X151661905Y-70572381D01*
X152042858Y-70572381D01*
X152138096Y-70620000D01*
X152185715Y-70667619D01*
X152233334Y-70762857D01*
X152233334Y-70905714D01*
X152185715Y-71000952D01*
X152138096Y-71048571D01*
X152042858Y-71096190D01*
X151661905Y-71096190D01*
X152614286Y-70667619D02*
X152661905Y-70620000D01*
X152757143Y-70572381D01*
X152995239Y-70572381D01*
X153090477Y-70620000D01*
X153138096Y-70667619D01*
X153185715Y-70762857D01*
X153185715Y-70858095D01*
X153138096Y-71000952D01*
X152566667Y-71572381D01*
X153185715Y-71572381D01*
X152233334Y-69032381D02*
X151900000Y-68556190D01*
X151661905Y-69032381D02*
X151661905Y-68032381D01*
X152042858Y-68032381D01*
X152138096Y-68080000D01*
X152185715Y-68127619D01*
X152233334Y-68222857D01*
X152233334Y-68365714D01*
X152185715Y-68460952D01*
X152138096Y-68508571D01*
X152042858Y-68556190D01*
X151661905Y-68556190D01*
X152566667Y-68032381D02*
X153185715Y-68032381D01*
X152852381Y-68413333D01*
X152995239Y-68413333D01*
X153090477Y-68460952D01*
X153138096Y-68508571D01*
X153185715Y-68603810D01*
X153185715Y-68841905D01*
X153138096Y-68937143D01*
X153090477Y-68984762D01*
X152995239Y-69032381D01*
X152709524Y-69032381D01*
X152614286Y-68984762D01*
X152566667Y-68937143D01*
X152233334Y-66492381D02*
X151900000Y-66016190D01*
X151661905Y-66492381D02*
X151661905Y-65492381D01*
X152042858Y-65492381D01*
X152138096Y-65540000D01*
X152185715Y-65587619D01*
X152233334Y-65682857D01*
X152233334Y-65825714D01*
X152185715Y-65920952D01*
X152138096Y-65968571D01*
X152042858Y-66016190D01*
X151661905Y-66016190D01*
X153090477Y-65825714D02*
X153090477Y-66492381D01*
X152852381Y-65444762D02*
X152614286Y-66159048D01*
X153233334Y-66159048D01*
X148423334Y-78562381D02*
X148090000Y-78086190D01*
X147851905Y-78562381D02*
X147851905Y-77562381D01*
X148232858Y-77562381D01*
X148328096Y-77610000D01*
X148375715Y-77657619D01*
X148423334Y-77752857D01*
X148423334Y-77895714D01*
X148375715Y-77990952D01*
X148328096Y-78038571D01*
X148232858Y-78086190D01*
X147851905Y-78086190D01*
X149328096Y-77562381D02*
X148851905Y-77562381D01*
X148804286Y-78038571D01*
X148851905Y-77990952D01*
X148947143Y-77943333D01*
X149185239Y-77943333D01*
X149280477Y-77990952D01*
X149328096Y-78038571D01*
X149375715Y-78133810D01*
X149375715Y-78371905D01*
X149328096Y-78467143D01*
X149280477Y-78514762D01*
X149185239Y-78562381D01*
X148947143Y-78562381D01*
X148851905Y-78514762D01*
X148804286Y-78467143D01*
X152233334Y-78562381D02*
X151900000Y-78086190D01*
X151661905Y-78562381D02*
X151661905Y-77562381D01*
X152042858Y-77562381D01*
X152138096Y-77610000D01*
X152185715Y-77657619D01*
X152233334Y-77752857D01*
X152233334Y-77895714D01*
X152185715Y-77990952D01*
X152138096Y-78038571D01*
X152042858Y-78086190D01*
X151661905Y-78086190D01*
X153090477Y-77562381D02*
X152900000Y-77562381D01*
X152804762Y-77610000D01*
X152757143Y-77657619D01*
X152661905Y-77800476D01*
X152614286Y-77990952D01*
X152614286Y-78371905D01*
X152661905Y-78467143D01*
X152709524Y-78514762D01*
X152804762Y-78562381D01*
X152995239Y-78562381D01*
X153090477Y-78514762D01*
X153138096Y-78467143D01*
X153185715Y-78371905D01*
X153185715Y-78133810D01*
X153138096Y-78038571D01*
X153090477Y-77990952D01*
X152995239Y-77943333D01*
X152804762Y-77943333D01*
X152709524Y-77990952D01*
X152661905Y-78038571D01*
X152614286Y-78133810D01*
X148423334Y-70932381D02*
X148090000Y-70456190D01*
X147851905Y-70932381D02*
X147851905Y-69932381D01*
X148232858Y-69932381D01*
X148328096Y-69980000D01*
X148375715Y-70027619D01*
X148423334Y-70122857D01*
X148423334Y-70265714D01*
X148375715Y-70360952D01*
X148328096Y-70408571D01*
X148232858Y-70456190D01*
X147851905Y-70456190D01*
X148756667Y-69932381D02*
X149423334Y-69932381D01*
X148994762Y-70932381D01*
X152233334Y-76652381D02*
X151900000Y-76176190D01*
X151661905Y-76652381D02*
X151661905Y-75652381D01*
X152042858Y-75652381D01*
X152138096Y-75700000D01*
X152185715Y-75747619D01*
X152233334Y-75842857D01*
X152233334Y-75985714D01*
X152185715Y-76080952D01*
X152138096Y-76128571D01*
X152042858Y-76176190D01*
X151661905Y-76176190D01*
X152804762Y-76080952D02*
X152709524Y-76033333D01*
X152661905Y-75985714D01*
X152614286Y-75890476D01*
X152614286Y-75842857D01*
X152661905Y-75747619D01*
X152709524Y-75700000D01*
X152804762Y-75652381D01*
X152995239Y-75652381D01*
X153090477Y-75700000D01*
X153138096Y-75747619D01*
X153185715Y-75842857D01*
X153185715Y-75890476D01*
X153138096Y-75985714D01*
X153090477Y-76033333D01*
X152995239Y-76080952D01*
X152804762Y-76080952D01*
X152709524Y-76128571D01*
X152661905Y-76176190D01*
X152614286Y-76271429D01*
X152614286Y-76461905D01*
X152661905Y-76557143D01*
X152709524Y-76604762D01*
X152804762Y-76652381D01*
X152995239Y-76652381D01*
X153090477Y-76604762D01*
X153138096Y-76557143D01*
X153185715Y-76461905D01*
X153185715Y-76271429D01*
X153138096Y-76176190D01*
X153090477Y-76128571D01*
X152995239Y-76080952D01*
X152233334Y-63952381D02*
X151900000Y-63476190D01*
X151661905Y-63952381D02*
X151661905Y-62952381D01*
X152042858Y-62952381D01*
X152138096Y-63000000D01*
X152185715Y-63047619D01*
X152233334Y-63142857D01*
X152233334Y-63285714D01*
X152185715Y-63380952D01*
X152138096Y-63428571D01*
X152042858Y-63476190D01*
X151661905Y-63476190D01*
X152709524Y-63952381D02*
X152900000Y-63952381D01*
X152995239Y-63904762D01*
X153042858Y-63857143D01*
X153138096Y-63714286D01*
X153185715Y-63523810D01*
X153185715Y-63142857D01*
X153138096Y-63047619D01*
X153090477Y-63000000D01*
X152995239Y-62952381D01*
X152804762Y-62952381D01*
X152709524Y-63000000D01*
X152661905Y-63047619D01*
X152614286Y-63142857D01*
X152614286Y-63380952D01*
X152661905Y-63476190D01*
X152709524Y-63523810D01*
X152804762Y-63571429D01*
X152995239Y-63571429D01*
X153090477Y-63523810D01*
X153138096Y-63476190D01*
X153185715Y-63380952D01*
X212791381Y-75826857D02*
X212315190Y-76160191D01*
X212791381Y-76398286D02*
X211791381Y-76398286D01*
X211791381Y-76017333D01*
X211839000Y-75922095D01*
X211886619Y-75874476D01*
X211981857Y-75826857D01*
X212124714Y-75826857D01*
X212219952Y-75874476D01*
X212267571Y-75922095D01*
X212315190Y-76017333D01*
X212315190Y-76398286D01*
X212791381Y-74874476D02*
X212791381Y-75445905D01*
X212791381Y-75160191D02*
X211791381Y-75160191D01*
X211934238Y-75255429D01*
X212029476Y-75350667D01*
X212077095Y-75445905D01*
X211791381Y-74255429D02*
X211791381Y-74160190D01*
X211839000Y-74064952D01*
X211886619Y-74017333D01*
X211981857Y-73969714D01*
X212172333Y-73922095D01*
X212410429Y-73922095D01*
X212600905Y-73969714D01*
X212696143Y-74017333D01*
X212743762Y-74064952D01*
X212791381Y-74160190D01*
X212791381Y-74255429D01*
X212743762Y-74350667D01*
X212696143Y-74398286D01*
X212600905Y-74445905D01*
X212410429Y-74493524D01*
X212172333Y-74493524D01*
X211981857Y-74445905D01*
X211886619Y-74398286D01*
X211839000Y-74350667D01*
X211791381Y-74255429D01*
X203774381Y-75953857D02*
X203298190Y-76287191D01*
X203774381Y-76525286D02*
X202774381Y-76525286D01*
X202774381Y-76144333D01*
X202822000Y-76049095D01*
X202869619Y-76001476D01*
X202964857Y-75953857D01*
X203107714Y-75953857D01*
X203202952Y-76001476D01*
X203250571Y-76049095D01*
X203298190Y-76144333D01*
X203298190Y-76525286D01*
X203774381Y-75001476D02*
X203774381Y-75572905D01*
X203774381Y-75287191D02*
X202774381Y-75287191D01*
X202917238Y-75382429D01*
X203012476Y-75477667D01*
X203060095Y-75572905D01*
X203774381Y-74049095D02*
X203774381Y-74620524D01*
X203774381Y-74334810D02*
X202774381Y-74334810D01*
X202917238Y-74430048D01*
X203012476Y-74525286D01*
X203060095Y-74620524D01*
X227068143Y-81864381D02*
X226734809Y-81388190D01*
X226496714Y-81864381D02*
X226496714Y-80864381D01*
X226877667Y-80864381D01*
X226972905Y-80912000D01*
X227020524Y-80959619D01*
X227068143Y-81054857D01*
X227068143Y-81197714D01*
X227020524Y-81292952D01*
X226972905Y-81340571D01*
X226877667Y-81388190D01*
X226496714Y-81388190D01*
X228020524Y-81864381D02*
X227449095Y-81864381D01*
X227734809Y-81864381D02*
X227734809Y-80864381D01*
X227639571Y-81007238D01*
X227544333Y-81102476D01*
X227449095Y-81150095D01*
X228353857Y-80864381D02*
X229020524Y-80864381D01*
X228591952Y-81864381D01*
X113871429Y-86832381D02*
X113538095Y-86356190D01*
X113300000Y-86832381D02*
X113300000Y-85832381D01*
X113680953Y-85832381D01*
X113776191Y-85880000D01*
X113823810Y-85927619D01*
X113871429Y-86022857D01*
X113871429Y-86165714D01*
X113823810Y-86260952D01*
X113776191Y-86308571D01*
X113680953Y-86356190D01*
X113300000Y-86356190D01*
X114300000Y-86832381D02*
X114300000Y-85832381D01*
X114680953Y-85832381D01*
X114776191Y-85880000D01*
X114823810Y-85927619D01*
X114871429Y-86022857D01*
X114871429Y-86165714D01*
X114823810Y-86260952D01*
X114776191Y-86308571D01*
X114680953Y-86356190D01*
X114300000Y-86356190D01*
X115300000Y-86832381D02*
X115300000Y-86165714D01*
X115300000Y-85832381D02*
X115252381Y-85880000D01*
X115300000Y-85927619D01*
X115347619Y-85880000D01*
X115300000Y-85832381D01*
X115300000Y-85927619D01*
X121412380Y-33424762D02*
X121555237Y-33472381D01*
X121793333Y-33472381D01*
X121888571Y-33424762D01*
X121936190Y-33377143D01*
X121983809Y-33281905D01*
X121983809Y-33186667D01*
X121936190Y-33091429D01*
X121888571Y-33043810D01*
X121793333Y-32996190D01*
X121602856Y-32948571D01*
X121507618Y-32900952D01*
X121459999Y-32853333D01*
X121412380Y-32758095D01*
X121412380Y-32662857D01*
X121459999Y-32567619D01*
X121507618Y-32520000D01*
X121602856Y-32472381D01*
X121840952Y-32472381D01*
X121983809Y-32520000D01*
X122269523Y-32805714D02*
X122650475Y-32805714D01*
X122412380Y-32472381D02*
X122412380Y-33329524D01*
X122459999Y-33424762D01*
X122555237Y-33472381D01*
X122650475Y-33472381D01*
X123364762Y-33424762D02*
X123269524Y-33472381D01*
X123079047Y-33472381D01*
X122983809Y-33424762D01*
X122936190Y-33329524D01*
X122936190Y-32948571D01*
X122983809Y-32853333D01*
X123079047Y-32805714D01*
X123269524Y-32805714D01*
X123364762Y-32853333D01*
X123412381Y-32948571D01*
X123412381Y-33043810D01*
X122936190Y-33139048D01*
X123840952Y-32805714D02*
X123840952Y-33805714D01*
X123840952Y-32853333D02*
X123936190Y-32805714D01*
X124126667Y-32805714D01*
X124221905Y-32853333D01*
X124269524Y-32900952D01*
X124317143Y-32996190D01*
X124317143Y-33281905D01*
X124269524Y-33377143D01*
X124221905Y-33424762D01*
X124126667Y-33472381D01*
X123936190Y-33472381D01*
X123840952Y-33424762D01*
X124745714Y-32805714D02*
X124745714Y-33805714D01*
X124745714Y-32853333D02*
X124840952Y-32805714D01*
X125031429Y-32805714D01*
X125126667Y-32853333D01*
X125174286Y-32900952D01*
X125221905Y-32996190D01*
X125221905Y-33281905D01*
X125174286Y-33377143D01*
X125126667Y-33424762D01*
X125031429Y-33472381D01*
X124840952Y-33472381D01*
X124745714Y-33424762D01*
X126031429Y-33424762D02*
X125936191Y-33472381D01*
X125745714Y-33472381D01*
X125650476Y-33424762D01*
X125602857Y-33329524D01*
X125602857Y-32948571D01*
X125650476Y-32853333D01*
X125745714Y-32805714D01*
X125936191Y-32805714D01*
X126031429Y-32853333D01*
X126079048Y-32948571D01*
X126079048Y-33043810D01*
X125602857Y-33139048D01*
X126507619Y-33472381D02*
X126507619Y-32805714D01*
X126507619Y-32996190D02*
X126555238Y-32900952D01*
X126602857Y-32853333D01*
X126698095Y-32805714D01*
X126793334Y-32805714D01*
X127079048Y-33424762D02*
X127174286Y-33472381D01*
X127364762Y-33472381D01*
X127460001Y-33424762D01*
X127507620Y-33329524D01*
X127507620Y-33281905D01*
X127460001Y-33186667D01*
X127364762Y-33139048D01*
X127221905Y-33139048D01*
X127126667Y-33091429D01*
X127079048Y-32996190D01*
X127079048Y-32948571D01*
X127126667Y-32853333D01*
X127221905Y-32805714D01*
X127364762Y-32805714D01*
X127460001Y-32853333D01*
D14*
X156248463Y-99457329D02*
X157046749Y-98441329D01*
X156248463Y-98441329D02*
X157046749Y-99457329D01*
X158425606Y-99457329D02*
X157554749Y-99457329D01*
X157990177Y-99457329D02*
X157990177Y-97933329D01*
X157845034Y-98151043D01*
X157699892Y-98296186D01*
X157554749Y-98368757D01*
X156275314Y-116996029D02*
X155767314Y-116270314D01*
X155404457Y-116996029D02*
X155404457Y-115472029D01*
X155985029Y-115472029D01*
X156130171Y-115544600D01*
X156202743Y-115617171D01*
X156275314Y-115762314D01*
X156275314Y-115980029D01*
X156202743Y-116125171D01*
X156130171Y-116197743D01*
X155985029Y-116270314D01*
X155404457Y-116270314D01*
X157363886Y-115472029D02*
X157363886Y-116560600D01*
X157291314Y-116778314D01*
X157146171Y-116923457D01*
X156928457Y-116996029D01*
X156783314Y-116996029D01*
X158742743Y-115980029D02*
X158742743Y-116996029D01*
X158379886Y-115399457D02*
X158017029Y-116488029D01*
X158960457Y-116488029D01*
X160266743Y-115472029D02*
X159541029Y-115472029D01*
X159468458Y-116197743D01*
X159541029Y-116125171D01*
X159686172Y-116052600D01*
X160049029Y-116052600D01*
X160194172Y-116125171D01*
X160266743Y-116197743D01*
X160339315Y-116342886D01*
X160339315Y-116705743D01*
X160266743Y-116850886D01*
X160194172Y-116923457D01*
X160049029Y-116996029D01*
X159686172Y-116996029D01*
X159541029Y-116923457D01*
X159468458Y-116850886D01*
X174028463Y-99457329D02*
X174826749Y-98441329D01*
X174028463Y-98441329D02*
X174826749Y-99457329D01*
X175334749Y-98078471D02*
X175407320Y-98005900D01*
X175552463Y-97933329D01*
X175915320Y-97933329D01*
X176060463Y-98005900D01*
X176133034Y-98078471D01*
X176205606Y-98223614D01*
X176205606Y-98368757D01*
X176133034Y-98586471D01*
X175262177Y-99457329D01*
X176205606Y-99457329D01*
X174055314Y-116996029D02*
X173547314Y-116270314D01*
X173184457Y-116996029D02*
X173184457Y-115472029D01*
X173765029Y-115472029D01*
X173910171Y-115544600D01*
X173982743Y-115617171D01*
X174055314Y-115762314D01*
X174055314Y-115980029D01*
X173982743Y-116125171D01*
X173910171Y-116197743D01*
X173765029Y-116270314D01*
X173184457Y-116270314D01*
X175143886Y-115472029D02*
X175143886Y-116560600D01*
X175071314Y-116778314D01*
X174926171Y-116923457D01*
X174708457Y-116996029D01*
X174563314Y-116996029D01*
X176522743Y-115980029D02*
X176522743Y-116996029D01*
X176159886Y-115399457D02*
X175797029Y-116488029D01*
X176740457Y-116488029D01*
X178046743Y-115472029D02*
X177321029Y-115472029D01*
X177248458Y-116197743D01*
X177321029Y-116125171D01*
X177466172Y-116052600D01*
X177829029Y-116052600D01*
X177974172Y-116125171D01*
X178046743Y-116197743D01*
X178119315Y-116342886D01*
X178119315Y-116705743D01*
X178046743Y-116850886D01*
X177974172Y-116923457D01*
X177829029Y-116996029D01*
X177466172Y-116996029D01*
X177321029Y-116923457D01*
X177248458Y-116850886D01*
X171738108Y-45685529D02*
X172100965Y-46701529D01*
X172463823Y-45685529D02*
X172100965Y-46701529D01*
X171955823Y-47064386D01*
X171883251Y-47136957D01*
X171738108Y-47209529D01*
X173842680Y-46701529D02*
X172971823Y-46701529D01*
X173407251Y-46701529D02*
X173407251Y-45177529D01*
X173262108Y-45395243D01*
X173116966Y-45540386D01*
X172971823Y-45612957D01*
X170804114Y-29162829D02*
X170296114Y-28437114D01*
X169933257Y-29162829D02*
X169933257Y-27638829D01*
X170513829Y-27638829D01*
X170658971Y-27711400D01*
X170731543Y-27783971D01*
X170804114Y-27929114D01*
X170804114Y-28146829D01*
X170731543Y-28291971D01*
X170658971Y-28364543D01*
X170513829Y-28437114D01*
X169933257Y-28437114D01*
X171892686Y-27638829D02*
X171892686Y-28727400D01*
X171820114Y-28945114D01*
X171674971Y-29090257D01*
X171457257Y-29162829D01*
X171312114Y-29162829D01*
X173271543Y-28146829D02*
X173271543Y-29162829D01*
X172908686Y-27566257D02*
X172545829Y-28654829D01*
X173489257Y-28654829D01*
X174795543Y-27638829D02*
X174069829Y-27638829D01*
X173997258Y-28364543D01*
X174069829Y-28291971D01*
X174214972Y-28219400D01*
X174577829Y-28219400D01*
X174722972Y-28291971D01*
X174795543Y-28364543D01*
X174868115Y-28509686D01*
X174868115Y-28872543D01*
X174795543Y-29017686D01*
X174722972Y-29090257D01*
X174577829Y-29162829D01*
X174214972Y-29162829D01*
X174069829Y-29090257D01*
X173997258Y-29017686D01*
X153958108Y-45685529D02*
X154320965Y-46701529D01*
X154683823Y-45685529D02*
X154320965Y-46701529D01*
X154175823Y-47064386D01*
X154103251Y-47136957D01*
X153958108Y-47209529D01*
X155191823Y-45322671D02*
X155264394Y-45250100D01*
X155409537Y-45177529D01*
X155772394Y-45177529D01*
X155917537Y-45250100D01*
X155990108Y-45322671D01*
X156062680Y-45467814D01*
X156062680Y-45612957D01*
X155990108Y-45830671D01*
X155119251Y-46701529D01*
X156062680Y-46701529D01*
X153024114Y-29162829D02*
X152516114Y-28437114D01*
X152153257Y-29162829D02*
X152153257Y-27638829D01*
X152733829Y-27638829D01*
X152878971Y-27711400D01*
X152951543Y-27783971D01*
X153024114Y-27929114D01*
X153024114Y-28146829D01*
X152951543Y-28291971D01*
X152878971Y-28364543D01*
X152733829Y-28437114D01*
X152153257Y-28437114D01*
X154112686Y-27638829D02*
X154112686Y-28727400D01*
X154040114Y-28945114D01*
X153894971Y-29090257D01*
X153677257Y-29162829D01*
X153532114Y-29162829D01*
X155491543Y-28146829D02*
X155491543Y-29162829D01*
X155128686Y-27566257D02*
X154765829Y-28654829D01*
X155709257Y-28654829D01*
X157015543Y-27638829D02*
X156289829Y-27638829D01*
X156217258Y-28364543D01*
X156289829Y-28291971D01*
X156434972Y-28219400D01*
X156797829Y-28219400D01*
X156942972Y-28291971D01*
X157015543Y-28364543D01*
X157088115Y-28509686D01*
X157088115Y-28872543D01*
X157015543Y-29017686D01*
X156942972Y-29090257D01*
X156797829Y-29162829D01*
X156434972Y-29162829D01*
X156289829Y-29090257D01*
X156217258Y-29017686D01*
X191808463Y-98441329D02*
X192606749Y-98441329D01*
X191808463Y-99457329D01*
X192606749Y-99457329D01*
X193985606Y-99457329D02*
X193114749Y-99457329D01*
X193550177Y-99457329D02*
X193550177Y-97933329D01*
X193405034Y-98151043D01*
X193259892Y-98296186D01*
X193114749Y-98368757D01*
X191835314Y-116996029D02*
X191327314Y-116270314D01*
X190964457Y-116996029D02*
X190964457Y-115472029D01*
X191545029Y-115472029D01*
X191690171Y-115544600D01*
X191762743Y-115617171D01*
X191835314Y-115762314D01*
X191835314Y-115980029D01*
X191762743Y-116125171D01*
X191690171Y-116197743D01*
X191545029Y-116270314D01*
X190964457Y-116270314D01*
X192923886Y-115472029D02*
X192923886Y-116560600D01*
X192851314Y-116778314D01*
X192706171Y-116923457D01*
X192488457Y-116996029D01*
X192343314Y-116996029D01*
X194302743Y-115980029D02*
X194302743Y-116996029D01*
X193939886Y-115399457D02*
X193577029Y-116488029D01*
X194520457Y-116488029D01*
X195826743Y-115472029D02*
X195101029Y-115472029D01*
X195028458Y-116197743D01*
X195101029Y-116125171D01*
X195246172Y-116052600D01*
X195609029Y-116052600D01*
X195754172Y-116125171D01*
X195826743Y-116197743D01*
X195899315Y-116342886D01*
X195899315Y-116705743D01*
X195826743Y-116850886D01*
X195754172Y-116923457D01*
X195609029Y-116996029D01*
X195246172Y-116996029D01*
X195101029Y-116923457D01*
X195028458Y-116850886D01*
X209588463Y-98441329D02*
X210386749Y-98441329D01*
X209588463Y-99457329D01*
X210386749Y-99457329D01*
X210894749Y-98078471D02*
X210967320Y-98005900D01*
X211112463Y-97933329D01*
X211475320Y-97933329D01*
X211620463Y-98005900D01*
X211693034Y-98078471D01*
X211765606Y-98223614D01*
X211765606Y-98368757D01*
X211693034Y-98586471D01*
X210822177Y-99457329D01*
X211765606Y-99457329D01*
X209615314Y-116996029D02*
X209107314Y-116270314D01*
X208744457Y-116996029D02*
X208744457Y-115472029D01*
X209325029Y-115472029D01*
X209470171Y-115544600D01*
X209542743Y-115617171D01*
X209615314Y-115762314D01*
X209615314Y-115980029D01*
X209542743Y-116125171D01*
X209470171Y-116197743D01*
X209325029Y-116270314D01*
X208744457Y-116270314D01*
X210703886Y-115472029D02*
X210703886Y-116560600D01*
X210631314Y-116778314D01*
X210486171Y-116923457D01*
X210268457Y-116996029D01*
X210123314Y-116996029D01*
X212082743Y-115980029D02*
X212082743Y-116996029D01*
X211719886Y-115399457D02*
X211357029Y-116488029D01*
X212300457Y-116488029D01*
X213606743Y-115472029D02*
X212881029Y-115472029D01*
X212808458Y-116197743D01*
X212881029Y-116125171D01*
X213026172Y-116052600D01*
X213389029Y-116052600D01*
X213534172Y-116125171D01*
X213606743Y-116197743D01*
X213679315Y-116342886D01*
X213679315Y-116705743D01*
X213606743Y-116850886D01*
X213534172Y-116923457D01*
X213389029Y-116996029D01*
X213026172Y-116996029D01*
X212881029Y-116923457D01*
X212808458Y-116850886D01*
D12*
X216582667Y-62682381D02*
X216582667Y-62158571D01*
X216535048Y-62063333D01*
X216439810Y-62015714D01*
X216249333Y-62015714D01*
X216154095Y-62063333D01*
X216582667Y-62634762D02*
X216487429Y-62682381D01*
X216249333Y-62682381D01*
X216154095Y-62634762D01*
X216106476Y-62539524D01*
X216106476Y-62444286D01*
X216154095Y-62349048D01*
X216249333Y-62301429D01*
X216487429Y-62301429D01*
X216582667Y-62253810D01*
X217058857Y-62682381D02*
X217058857Y-62015714D01*
X217058857Y-61682381D02*
X217011238Y-61730000D01*
X217058857Y-61777619D01*
X217106476Y-61730000D01*
X217058857Y-61682381D01*
X217058857Y-61777619D01*
X217535047Y-62682381D02*
X217535047Y-62015714D01*
X217535047Y-62206190D02*
X217582666Y-62110952D01*
X217630285Y-62063333D01*
X217725523Y-62015714D01*
X217820762Y-62015714D01*
X215566952Y-64555667D02*
X216043143Y-64555667D01*
X215471714Y-64841381D02*
X215805047Y-63841381D01*
X216138381Y-64841381D01*
X217138381Y-64936619D02*
X217043143Y-64889000D01*
X216947905Y-64793762D01*
X216805048Y-64650905D01*
X216709809Y-64603286D01*
X216614571Y-64603286D01*
X216662190Y-64841381D02*
X216566952Y-64793762D01*
X216471714Y-64698524D01*
X216424095Y-64508048D01*
X216424095Y-64174714D01*
X216471714Y-63984238D01*
X216566952Y-63889000D01*
X216662190Y-63841381D01*
X216852667Y-63841381D01*
X216947905Y-63889000D01*
X217043143Y-63984238D01*
X217090762Y-64174714D01*
X217090762Y-64508048D01*
X217043143Y-64698524D01*
X216947905Y-64793762D01*
X216852667Y-64841381D01*
X216662190Y-64841381D01*
X217709809Y-64365190D02*
X217709809Y-64841381D01*
X217376476Y-63841381D02*
X217709809Y-64365190D01*
X218043143Y-63841381D01*
X218328857Y-63936619D02*
X218376476Y-63889000D01*
X218471714Y-63841381D01*
X218709810Y-63841381D01*
X218805048Y-63889000D01*
X218852667Y-63936619D01*
X218900286Y-64031857D01*
X218900286Y-64127095D01*
X218852667Y-64269952D01*
X218281238Y-64841381D01*
X218900286Y-64841381D01*
X219852667Y-64841381D02*
X219281238Y-64841381D01*
X219566952Y-64841381D02*
X219566952Y-63841381D01*
X219471714Y-63984238D01*
X219376476Y-64079476D01*
X219281238Y-64127095D01*
X220233619Y-63936619D02*
X220281238Y-63889000D01*
X220376476Y-63841381D01*
X220614572Y-63841381D01*
X220709810Y-63889000D01*
X220757429Y-63936619D01*
X220805048Y-64031857D01*
X220805048Y-64127095D01*
X220757429Y-64269952D01*
X220186000Y-64841381D01*
X220805048Y-64841381D01*
X196207143Y-62682381D02*
X196207143Y-62158571D01*
X196159524Y-62063333D01*
X196064286Y-62015714D01*
X195873809Y-62015714D01*
X195778571Y-62063333D01*
X196207143Y-62634762D02*
X196111905Y-62682381D01*
X195873809Y-62682381D01*
X195778571Y-62634762D01*
X195730952Y-62539524D01*
X195730952Y-62444286D01*
X195778571Y-62349048D01*
X195873809Y-62301429D01*
X196111905Y-62301429D01*
X196207143Y-62253810D01*
X197111905Y-62015714D02*
X197111905Y-62682381D01*
X196683333Y-62015714D02*
X196683333Y-62539524D01*
X196730952Y-62634762D01*
X196826190Y-62682381D01*
X196969048Y-62682381D01*
X197064286Y-62634762D01*
X197111905Y-62587143D01*
X197492857Y-62682381D02*
X198016667Y-62015714D01*
X197492857Y-62015714D02*
X198016667Y-62682381D01*
X193722952Y-64174667D02*
X194199143Y-64174667D01*
X193627714Y-64460381D02*
X193961047Y-63460381D01*
X194294381Y-64460381D01*
X195294381Y-64555619D02*
X195199143Y-64508000D01*
X195103905Y-64412762D01*
X194961048Y-64269905D01*
X194865809Y-64222286D01*
X194770571Y-64222286D01*
X194818190Y-64460381D02*
X194722952Y-64412762D01*
X194627714Y-64317524D01*
X194580095Y-64127048D01*
X194580095Y-63793714D01*
X194627714Y-63603238D01*
X194722952Y-63508000D01*
X194818190Y-63460381D01*
X195008667Y-63460381D01*
X195103905Y-63508000D01*
X195199143Y-63603238D01*
X195246762Y-63793714D01*
X195246762Y-64127048D01*
X195199143Y-64317524D01*
X195103905Y-64412762D01*
X195008667Y-64460381D01*
X194818190Y-64460381D01*
X195865809Y-63984190D02*
X195865809Y-64460381D01*
X195532476Y-63460381D02*
X195865809Y-63984190D01*
X196199143Y-63460381D01*
X196484857Y-63555619D02*
X196532476Y-63508000D01*
X196627714Y-63460381D01*
X196865810Y-63460381D01*
X196961048Y-63508000D01*
X197008667Y-63555619D01*
X197056286Y-63650857D01*
X197056286Y-63746095D01*
X197008667Y-63888952D01*
X196437238Y-64460381D01*
X197056286Y-64460381D01*
X198008667Y-64460381D02*
X197437238Y-64460381D01*
X197722952Y-64460381D02*
X197722952Y-63460381D01*
X197627714Y-63603238D01*
X197532476Y-63698476D01*
X197437238Y-63746095D01*
X198389619Y-63555619D02*
X198437238Y-63508000D01*
X198532476Y-63460381D01*
X198770572Y-63460381D01*
X198865810Y-63508000D01*
X198913429Y-63555619D01*
X198961048Y-63650857D01*
X198961048Y-63746095D01*
X198913429Y-63888952D01*
X198342000Y-64460381D01*
X198961048Y-64460381D01*
X225464905Y-47013762D02*
X225607762Y-47061381D01*
X225845858Y-47061381D01*
X225941096Y-47013762D01*
X225988715Y-46966143D01*
X226036334Y-46870905D01*
X226036334Y-46775667D01*
X225988715Y-46680429D01*
X225941096Y-46632810D01*
X225845858Y-46585190D01*
X225655381Y-46537571D01*
X225560143Y-46489952D01*
X225512524Y-46442333D01*
X225464905Y-46347095D01*
X225464905Y-46251857D01*
X225512524Y-46156619D01*
X225560143Y-46109000D01*
X225655381Y-46061381D01*
X225893477Y-46061381D01*
X226036334Y-46109000D01*
X226417286Y-47013762D02*
X226560143Y-47061381D01*
X226798239Y-47061381D01*
X226893477Y-47013762D01*
X226941096Y-46966143D01*
X226988715Y-46870905D01*
X226988715Y-46775667D01*
X226941096Y-46680429D01*
X226893477Y-46632810D01*
X226798239Y-46585190D01*
X226607762Y-46537571D01*
X226512524Y-46489952D01*
X226464905Y-46442333D01*
X226417286Y-46347095D01*
X226417286Y-46251857D01*
X226464905Y-46156619D01*
X226512524Y-46109000D01*
X226607762Y-46061381D01*
X226845858Y-46061381D01*
X226988715Y-46109000D01*
X227988715Y-47061381D02*
X227655381Y-46585190D01*
X227417286Y-47061381D02*
X227417286Y-46061381D01*
X227798239Y-46061381D01*
X227893477Y-46109000D01*
X227941096Y-46156619D01*
X227988715Y-46251857D01*
X227988715Y-46394714D01*
X227941096Y-46489952D01*
X227893477Y-46537571D01*
X227798239Y-46585190D01*
X227417286Y-46585190D01*
X228941096Y-47061381D02*
X228369667Y-47061381D01*
X228655381Y-47061381D02*
X228655381Y-46061381D01*
X228560143Y-46204238D01*
X228464905Y-46299476D01*
X228369667Y-46347095D01*
M02*
