G04 #@! TF.FileFunction,Soldermask,Bot*
%FSLAX46Y46*%
G04 Gerber Fmt 4.6, Leading zero omitted, Abs format (unit mm)*
G04 Created by KiCad (PCBNEW (2015-05-13 BZR 5653)-product) date Tue 09 Jun 2015 09:53:40 PM CEST*
%MOMM*%
G01*
G04 APERTURE LIST*
%ADD10C,0.100000*%
%ADD11C,3.000000*%
%ADD12R,2.032000X2.032000*%
%ADD13O,2.032000X2.032000*%
%ADD14R,2.032000X1.727200*%
%ADD15O,2.032000X1.727200*%
%ADD16C,3.251200*%
%ADD17C,3.200400*%
%ADD18C,1.143000*%
%ADD19C,1.501140*%
%ADD20C,1.998980*%
%ADD21R,1.998980X1.998980*%
%ADD22R,1.397000X1.397000*%
%ADD23C,1.397000*%
%ADD24C,4.000000*%
G04 APERTURE END LIST*
D10*
D11*
X247474740Y-98672640D03*
X252476000Y-101172000D03*
X252476000Y-106172000D03*
X247474740Y-103672640D03*
D12*
X148780000Y-83820000D03*
D13*
X151320000Y-83820000D03*
D14*
X160020000Y-55880000D03*
D15*
X160020000Y-58420000D03*
X160020000Y-60960000D03*
X160020000Y-63500000D03*
X160020000Y-66040000D03*
X160020000Y-68580000D03*
X160020000Y-71120000D03*
X160020000Y-73660000D03*
X160020000Y-76200000D03*
X160020000Y-78740000D03*
X160020000Y-81280000D03*
X160020000Y-83820000D03*
D14*
X144780000Y-55880000D03*
D15*
X144780000Y-58420000D03*
X144780000Y-60960000D03*
X144780000Y-63500000D03*
X144780000Y-66040000D03*
X144780000Y-68580000D03*
X144780000Y-71120000D03*
X144780000Y-73660000D03*
X144780000Y-76200000D03*
X144780000Y-78740000D03*
X144780000Y-81280000D03*
X144780000Y-83820000D03*
D16*
X213741000Y-34188400D03*
D17*
X202285600Y-34188400D03*
D18*
X205079600Y-40640000D03*
X207619600Y-40665400D03*
X210134200Y-40665400D03*
X212608160Y-40622220D03*
X203809600Y-43180000D03*
X206349600Y-43180000D03*
X208864200Y-43180000D03*
X211429600Y-43180000D03*
D11*
X215741000Y-29840000D03*
X200280000Y-29840000D03*
D12*
X134620000Y-60960000D03*
D13*
X134620000Y-63500000D03*
D19*
X121920000Y-83820000D03*
X124460000Y-83820000D03*
X249682000Y-92710000D03*
X247142000Y-92710000D03*
D20*
X237792260Y-89689940D03*
X234393740Y-96492060D03*
X236093000Y-90551000D03*
X236093000Y-95631000D03*
D16*
X142621000Y-34188400D03*
D17*
X131165600Y-34188400D03*
D18*
X133959600Y-40640000D03*
X136499600Y-40665400D03*
X139014200Y-40665400D03*
X141488160Y-40622220D03*
X132689600Y-43180000D03*
X135229600Y-43180000D03*
X137744200Y-43180000D03*
X140309600Y-43180000D03*
D11*
X144621000Y-29840000D03*
X129160000Y-29840000D03*
D20*
X212979000Y-52578000D03*
D21*
X209169000Y-52578000D03*
D20*
X203962000Y-52451000D03*
D21*
X200152000Y-52451000D03*
D16*
X116459000Y-110591600D03*
D17*
X127914400Y-110591600D03*
D18*
X125120400Y-104140000D03*
X122580400Y-104114600D03*
X120065800Y-104114600D03*
X117591840Y-104157780D03*
X126390400Y-101600000D03*
X123850400Y-101600000D03*
X121335800Y-101600000D03*
X118770400Y-101600000D03*
D11*
X114459000Y-114940000D03*
X129920000Y-114940000D03*
D16*
X134239000Y-110591600D03*
D17*
X145694400Y-110591600D03*
D18*
X142900400Y-104140000D03*
X140360400Y-104114600D03*
X137845800Y-104114600D03*
X135371840Y-104157780D03*
X144170400Y-101600000D03*
X141630400Y-101600000D03*
X139115800Y-101600000D03*
X136550400Y-101600000D03*
D11*
X132239000Y-114940000D03*
X147700000Y-114940000D03*
D16*
X195961000Y-34188400D03*
D17*
X184505600Y-34188400D03*
D18*
X187299600Y-40640000D03*
X189839600Y-40665400D03*
X192354200Y-40665400D03*
X194828160Y-40622220D03*
X186029600Y-43180000D03*
X188569600Y-43180000D03*
X191084200Y-43180000D03*
X193649600Y-43180000D03*
D11*
X197961000Y-29840000D03*
X182500000Y-29840000D03*
D16*
X223139000Y-110591600D03*
D17*
X234594400Y-110591600D03*
D18*
X231800400Y-104140000D03*
X229260400Y-104114600D03*
X226745800Y-104114600D03*
X224271840Y-104157780D03*
X233070400Y-101600000D03*
X230530400Y-101600000D03*
X228015800Y-101600000D03*
X225450400Y-101600000D03*
D11*
X221139000Y-114940000D03*
X236600000Y-114940000D03*
X249040640Y-38021260D03*
X251540000Y-33020000D03*
X256540000Y-33020000D03*
X254040640Y-38021260D03*
X233800640Y-38021260D03*
X236300000Y-33020000D03*
X241300000Y-33020000D03*
X238800640Y-38021260D03*
X247601740Y-77971640D03*
X252603000Y-80471000D03*
X252603000Y-85471000D03*
X247601740Y-82971640D03*
D22*
X232537000Y-83312000D03*
D23*
X235077000Y-83312000D03*
X237617000Y-83312000D03*
X237617000Y-75692000D03*
X235077000Y-75692000D03*
X232537000Y-75692000D03*
D14*
X114300000Y-81280000D03*
D15*
X114300000Y-78740000D03*
X114300000Y-76200000D03*
X114300000Y-73660000D03*
D11*
X120650000Y-68100000D03*
X125651260Y-70599360D03*
X125651260Y-65599360D03*
X120650000Y-63100000D03*
X120650000Y-58100000D03*
X125651260Y-60599360D03*
X125651260Y-55599360D03*
X120650000Y-53100000D03*
X120650000Y-48100000D03*
X125651260Y-50599360D03*
X125651260Y-45599360D03*
X120650000Y-43100000D03*
X120650000Y-38100000D03*
X125651260Y-40599360D03*
D16*
X152019000Y-110591600D03*
D17*
X163474400Y-110591600D03*
D18*
X160680400Y-104140000D03*
X158140400Y-104114600D03*
X155625800Y-104114600D03*
X153151840Y-104157780D03*
X161950400Y-101600000D03*
X159410400Y-101600000D03*
X156895800Y-101600000D03*
X154330400Y-101600000D03*
D11*
X150019000Y-114940000D03*
X165480000Y-114940000D03*
D16*
X169799000Y-110591600D03*
D17*
X181254400Y-110591600D03*
D18*
X178460400Y-104140000D03*
X175920400Y-104114600D03*
X173405800Y-104114600D03*
X170931840Y-104157780D03*
X179730400Y-101600000D03*
X177190400Y-101600000D03*
X174675800Y-101600000D03*
X172110400Y-101600000D03*
D11*
X167799000Y-114940000D03*
X183260000Y-114940000D03*
D16*
X178181000Y-34188400D03*
D17*
X166725600Y-34188400D03*
D18*
X169519600Y-40640000D03*
X172059600Y-40665400D03*
X174574200Y-40665400D03*
X177048160Y-40622220D03*
X168249600Y-43180000D03*
X170789600Y-43180000D03*
X173304200Y-43180000D03*
X175869600Y-43180000D03*
D11*
X180181000Y-29840000D03*
X164720000Y-29840000D03*
D16*
X160401000Y-34188400D03*
D17*
X148945600Y-34188400D03*
D18*
X151739600Y-40640000D03*
X154279600Y-40665400D03*
X156794200Y-40665400D03*
X159268160Y-40622220D03*
X150469600Y-43180000D03*
X153009600Y-43180000D03*
X155524200Y-43180000D03*
X158089600Y-43180000D03*
D11*
X162401000Y-29840000D03*
X146940000Y-29840000D03*
D16*
X187579000Y-110591600D03*
D17*
X199034400Y-110591600D03*
D18*
X196240400Y-104140000D03*
X193700400Y-104114600D03*
X191185800Y-104114600D03*
X188711840Y-104157780D03*
X197510400Y-101600000D03*
X194970400Y-101600000D03*
X192455800Y-101600000D03*
X189890400Y-101600000D03*
D11*
X185579000Y-114940000D03*
X201040000Y-114940000D03*
D16*
X205359000Y-110591600D03*
D17*
X216814400Y-110591600D03*
D18*
X214020400Y-104140000D03*
X211480400Y-104114600D03*
X208965800Y-104114600D03*
X206491840Y-104157780D03*
X215290400Y-101600000D03*
X212750400Y-101600000D03*
X210235800Y-101600000D03*
X207670400Y-101600000D03*
D11*
X203359000Y-114940000D03*
X218820000Y-114940000D03*
D24*
X251714000Y-53086000D03*
X241554000Y-53086000D03*
X228854000Y-53086000D03*
X223774000Y-53086000D03*
D20*
X142707360Y-51181000D03*
X137706100Y-51181000D03*
M02*
