G04 #@! TF.FileFunction,Copper,L1,Top,Signal*
%FSLAX46Y46*%
G04 Gerber Fmt 4.6, Leading zero omitted, Abs format (unit mm)*
G04 Created by KiCad (PCBNEW (2015-05-13 BZR 5653)-product) date Sun 07 Jun 2015 11:31:40 AM CEST*
%MOMM*%
G01*
G04 APERTURE LIST*
%ADD10C,0.100000*%
%ADD11C,0.150000*%
%ADD12C,0.381000*%
%ADD13C,3.000000*%
%ADD14R,2.032000X2.032000*%
%ADD15O,2.032000X2.032000*%
%ADD16R,2.032000X1.727200*%
%ADD17O,2.032000X1.727200*%
%ADD18C,3.251200*%
%ADD19C,3.200400*%
%ADD20C,1.143000*%
%ADD21C,1.501140*%
%ADD22C,1.998980*%
%ADD23R,1.600000X1.000000*%
%ADD24R,1.998980X1.998980*%
%ADD25R,0.450000X1.450000*%
%ADD26R,1.397000X1.397000*%
%ADD27C,1.397000*%
%ADD28R,0.500000X0.900000*%
%ADD29R,0.900000X0.500000*%
%ADD30R,1.800000X3.000000*%
%ADD31O,1.800000X3.000000*%
%ADD32C,4.000000*%
%ADD33C,0.600000*%
%ADD34C,1.000000*%
%ADD35C,0.250000*%
%ADD36C,4.000000*%
G04 APERTURE END LIST*
D10*
D11*
X124190760Y-85519260D02*
X123690380Y-85519260D01*
X124190760Y-85519260D02*
X124190760Y-86019640D01*
X124691140Y-85519260D02*
X124190760Y-85519260D01*
X124190760Y-85519260D02*
X124190760Y-85120480D01*
X124190760Y-85120480D02*
X124190760Y-85018880D01*
X247411240Y-91010740D02*
X247911620Y-91010740D01*
X247411240Y-91010740D02*
X247411240Y-90510360D01*
X246910860Y-91010740D02*
X247411240Y-91010740D01*
X247411240Y-91010740D02*
X247411240Y-91409520D01*
X247411240Y-91409520D02*
X247411240Y-91511120D01*
D12*
X232537000Y-95123000D02*
X233553000Y-95123000D01*
X233045000Y-95631000D02*
X233045000Y-94615000D01*
D13*
X247474740Y-98672640D03*
X252476000Y-101172000D03*
X252476000Y-106172000D03*
X247474740Y-103672640D03*
D14*
X149860000Y-83820000D03*
D15*
X152400000Y-83820000D03*
D16*
X160020000Y-55880000D03*
D17*
X160020000Y-58420000D03*
X160020000Y-60960000D03*
X160020000Y-63500000D03*
X160020000Y-66040000D03*
X160020000Y-68580000D03*
X160020000Y-71120000D03*
X160020000Y-73660000D03*
X160020000Y-76200000D03*
X160020000Y-78740000D03*
X160020000Y-81280000D03*
X160020000Y-83820000D03*
D16*
X144780000Y-55880000D03*
D17*
X144780000Y-58420000D03*
X144780000Y-60960000D03*
X144780000Y-63500000D03*
X144780000Y-66040000D03*
X144780000Y-68580000D03*
X144780000Y-71120000D03*
X144780000Y-73660000D03*
X144780000Y-76200000D03*
X144780000Y-78740000D03*
X144780000Y-81280000D03*
X144780000Y-83820000D03*
D18*
X213741000Y-34188400D03*
D19*
X202285600Y-34188400D03*
D20*
X205079600Y-40640000D03*
X207619600Y-40665400D03*
X210134200Y-40665400D03*
X212608160Y-40622220D03*
X203809600Y-43180000D03*
X206349600Y-43180000D03*
X208864200Y-43180000D03*
X211429600Y-43180000D03*
D13*
X215741000Y-29840000D03*
X200280000Y-29840000D03*
D14*
X134620000Y-60960000D03*
D15*
X134620000Y-63500000D03*
D21*
X121920000Y-83820000D03*
X124460000Y-83820000D03*
X249682000Y-92710000D03*
X247142000Y-92710000D03*
D22*
X237792260Y-89689940D03*
X234393740Y-96492060D03*
X236093000Y-90551000D03*
X236093000Y-95631000D03*
D23*
X176276000Y-62127000D03*
X176276000Y-65127000D03*
X176276000Y-74827000D03*
X176276000Y-77827000D03*
D18*
X142621000Y-34188400D03*
D19*
X131165600Y-34188400D03*
D20*
X133959600Y-40640000D03*
X136499600Y-40665400D03*
X139014200Y-40665400D03*
X141488160Y-40622220D03*
X132689600Y-43180000D03*
X135229600Y-43180000D03*
X137744200Y-43180000D03*
X140309600Y-43180000D03*
D13*
X144621000Y-29840000D03*
X129160000Y-29840000D03*
D22*
X212979000Y-52578000D03*
D24*
X209169000Y-52578000D03*
D22*
X203962000Y-52451000D03*
D24*
X200152000Y-52451000D03*
D18*
X116459000Y-110591600D03*
D19*
X127914400Y-110591600D03*
D20*
X125120400Y-104140000D03*
X122580400Y-104114600D03*
X120065800Y-104114600D03*
X117591840Y-104157780D03*
X126390400Y-101600000D03*
X123850400Y-101600000D03*
X121335800Y-101600000D03*
X118770400Y-101600000D03*
D13*
X114459000Y-114940000D03*
X129920000Y-114940000D03*
D18*
X134239000Y-110591600D03*
D19*
X145694400Y-110591600D03*
D20*
X142900400Y-104140000D03*
X140360400Y-104114600D03*
X137845800Y-104114600D03*
X135371840Y-104157780D03*
X144170400Y-101600000D03*
X141630400Y-101600000D03*
X139115800Y-101600000D03*
X136550400Y-101600000D03*
D13*
X132239000Y-114940000D03*
X147700000Y-114940000D03*
D18*
X195961000Y-34188400D03*
D19*
X184505600Y-34188400D03*
D20*
X187299600Y-40640000D03*
X189839600Y-40665400D03*
X192354200Y-40665400D03*
X194828160Y-40622220D03*
X186029600Y-43180000D03*
X188569600Y-43180000D03*
X191084200Y-43180000D03*
X193649600Y-43180000D03*
D13*
X197961000Y-29840000D03*
X182500000Y-29840000D03*
D25*
X169246000Y-79150000D03*
X169896000Y-79150000D03*
X170546000Y-79150000D03*
X171196000Y-79150000D03*
X171846000Y-79150000D03*
X172496000Y-79150000D03*
X173146000Y-79150000D03*
X173146000Y-73250000D03*
X172496000Y-73250000D03*
X171846000Y-73250000D03*
X171196000Y-73250000D03*
X170546000Y-73250000D03*
X169896000Y-73250000D03*
X169246000Y-73250000D03*
X169246000Y-66958000D03*
X169896000Y-66958000D03*
X170546000Y-66958000D03*
X171196000Y-66958000D03*
X171846000Y-66958000D03*
X172496000Y-66958000D03*
X173146000Y-66958000D03*
X173146000Y-61058000D03*
X172496000Y-61058000D03*
X171846000Y-61058000D03*
X171196000Y-61058000D03*
X170546000Y-61058000D03*
X169896000Y-61058000D03*
X169246000Y-61058000D03*
D18*
X223139000Y-110591600D03*
D19*
X234594400Y-110591600D03*
D20*
X231800400Y-104140000D03*
X229260400Y-104114600D03*
X226745800Y-104114600D03*
X224271840Y-104157780D03*
X233070400Y-101600000D03*
X230530400Y-101600000D03*
X228015800Y-101600000D03*
X225450400Y-101600000D03*
D13*
X221139000Y-114940000D03*
X236600000Y-114940000D03*
X249040640Y-38021260D03*
X251540000Y-33020000D03*
X256540000Y-33020000D03*
X254040640Y-38021260D03*
X233800640Y-38021260D03*
X236300000Y-33020000D03*
X241300000Y-33020000D03*
X238800640Y-38021260D03*
X247601740Y-77971640D03*
X252603000Y-80471000D03*
X252603000Y-85471000D03*
X247601740Y-82971640D03*
D26*
X232537000Y-83312000D03*
D27*
X235077000Y-83312000D03*
X237617000Y-83312000D03*
X237617000Y-75692000D03*
X235077000Y-75692000D03*
X232537000Y-75692000D03*
D28*
X154190000Y-73660000D03*
X155690000Y-73660000D03*
X154190000Y-71120000D03*
X155690000Y-71120000D03*
X154190000Y-68580000D03*
X155690000Y-68580000D03*
X155690000Y-66040000D03*
X154190000Y-66040000D03*
X147840000Y-80010000D03*
X149340000Y-80010000D03*
X151650000Y-80010000D03*
X153150000Y-80010000D03*
X149340000Y-68580000D03*
X147840000Y-68580000D03*
X154190000Y-76200000D03*
X155690000Y-76200000D03*
X155690000Y-63500000D03*
X154190000Y-63500000D03*
D29*
X210439000Y-74434000D03*
X210439000Y-75934000D03*
X201422000Y-74561000D03*
X201422000Y-76061000D03*
D28*
X226961000Y-83312000D03*
X228461000Y-83312000D03*
D16*
X114300000Y-81280000D03*
D17*
X114300000Y-78740000D03*
X114300000Y-76200000D03*
X114300000Y-73660000D03*
D13*
X119380000Y-68100000D03*
X124381260Y-70599360D03*
X124381260Y-65599360D03*
X119380000Y-63100000D03*
X119380000Y-58100000D03*
X124381260Y-60599360D03*
X124381260Y-55599360D03*
X119380000Y-53100000D03*
X119380000Y-48100000D03*
X124381260Y-50599360D03*
X124381260Y-45599360D03*
X119380000Y-43100000D03*
X119380000Y-38100000D03*
X124381260Y-40599360D03*
D18*
X152019000Y-110591600D03*
D19*
X163474400Y-110591600D03*
D20*
X160680400Y-104140000D03*
X158140400Y-104114600D03*
X155625800Y-104114600D03*
X153151840Y-104157780D03*
X161950400Y-101600000D03*
X159410400Y-101600000D03*
X156895800Y-101600000D03*
X154330400Y-101600000D03*
D13*
X150019000Y-114940000D03*
X165480000Y-114940000D03*
D18*
X169799000Y-110591600D03*
D19*
X181254400Y-110591600D03*
D20*
X178460400Y-104140000D03*
X175920400Y-104114600D03*
X173405800Y-104114600D03*
X170931840Y-104157780D03*
X179730400Y-101600000D03*
X177190400Y-101600000D03*
X174675800Y-101600000D03*
X172110400Y-101600000D03*
D13*
X167799000Y-114940000D03*
X183260000Y-114940000D03*
D18*
X178181000Y-34188400D03*
D19*
X166725600Y-34188400D03*
D20*
X169519600Y-40640000D03*
X172059600Y-40665400D03*
X174574200Y-40665400D03*
X177048160Y-40622220D03*
X168249600Y-43180000D03*
X170789600Y-43180000D03*
X173304200Y-43180000D03*
X175869600Y-43180000D03*
D13*
X180181000Y-29840000D03*
X164720000Y-29840000D03*
D18*
X160401000Y-34188400D03*
D19*
X148945600Y-34188400D03*
D20*
X151739600Y-40640000D03*
X154279600Y-40665400D03*
X156794200Y-40665400D03*
X159268160Y-40622220D03*
X150469600Y-43180000D03*
X153009600Y-43180000D03*
X155524200Y-43180000D03*
X158089600Y-43180000D03*
D13*
X162401000Y-29840000D03*
X146940000Y-29840000D03*
D18*
X187579000Y-110591600D03*
D19*
X199034400Y-110591600D03*
D20*
X196240400Y-104140000D03*
X193700400Y-104114600D03*
X191185800Y-104114600D03*
X188711840Y-104157780D03*
X197510400Y-101600000D03*
X194970400Y-101600000D03*
X192455800Y-101600000D03*
X189890400Y-101600000D03*
D13*
X185579000Y-114940000D03*
X201040000Y-114940000D03*
D18*
X205359000Y-110591600D03*
D19*
X216814400Y-110591600D03*
D20*
X214020400Y-104140000D03*
X211480400Y-104114600D03*
X208965800Y-104114600D03*
X206491840Y-104157780D03*
X215290400Y-101600000D03*
X212750400Y-101600000D03*
X210235800Y-101600000D03*
X207670400Y-101600000D03*
D13*
X203359000Y-114940000D03*
X218820000Y-114940000D03*
D30*
X210439000Y-67691000D03*
D31*
X212979000Y-67691000D03*
X212979000Y-60071000D03*
X210439000Y-60071000D03*
D30*
X201422000Y-67691000D03*
D31*
X203962000Y-67691000D03*
X203962000Y-60071000D03*
X201422000Y-60071000D03*
D32*
X251714000Y-53086000D03*
X241554000Y-53086000D03*
X228854000Y-53086000D03*
X223774000Y-53086000D03*
D33*
X212852000Y-97663000D03*
X212852000Y-71374000D03*
X162401000Y-29840000D03*
X181991000Y-77851000D03*
X181991000Y-65151000D03*
X216281000Y-67691000D03*
X214503000Y-41910000D03*
X186817000Y-83693000D03*
X154813000Y-82550000D03*
X164338000Y-82423000D03*
X164338000Y-79121000D03*
X165862000Y-90297000D03*
X205867000Y-90297000D03*
X155194000Y-83820000D03*
X155194000Y-89662000D03*
X165862000Y-86614000D03*
X169926000Y-74930000D03*
X207264000Y-74422000D03*
X207264000Y-67691000D03*
X156464000Y-99060000D03*
X156464000Y-77978000D03*
X167513000Y-58420000D03*
X169672000Y-62992000D03*
X172466000Y-62992000D03*
X172466000Y-70104000D03*
X169164000Y-70104000D03*
X174625000Y-59055000D03*
X165862000Y-80899000D03*
X166116000Y-70485000D03*
X157607000Y-53848000D03*
X169926000Y-82169000D03*
X183261000Y-53467000D03*
X166497000Y-53467000D03*
X166497000Y-57912000D03*
X186944000Y-47625000D03*
X186944000Y-76327000D03*
X165100000Y-68326000D03*
X165100000Y-47498000D03*
X170434000Y-83566000D03*
X156718000Y-50673000D03*
X159258000Y-50546000D03*
X163830000Y-47625000D03*
X185801000Y-51943000D03*
X185801000Y-80899000D03*
X181991000Y-80899000D03*
X171069000Y-80899000D03*
X157099000Y-71120000D03*
X171831000Y-91186000D03*
X171831000Y-83312000D03*
X146558000Y-90170000D03*
X157099000Y-73660000D03*
X164084000Y-76200000D03*
X164084000Y-51308000D03*
X163322000Y-78740000D03*
X163322000Y-49022000D03*
X162306000Y-81280000D03*
X162560000Y-46736000D03*
X127762000Y-86868000D03*
X127762000Y-65278000D03*
X141986000Y-55880000D03*
X142240000Y-73406000D03*
X140716000Y-58420000D03*
X140716000Y-76200000D03*
X134620000Y-78740000D03*
X148463000Y-66040000D03*
X148463000Y-52705000D03*
X178435000Y-73279000D03*
X178562000Y-55880000D03*
X139700000Y-88392000D03*
X165100000Y-83566000D03*
X171196000Y-59309000D03*
X139700000Y-68580000D03*
X210312000Y-78613000D03*
X210312000Y-87884000D03*
X178562000Y-87884000D03*
X178562000Y-95631000D03*
X138430000Y-95504000D03*
X138430000Y-71120000D03*
X142367000Y-75565000D03*
X142367000Y-94107000D03*
X223012000Y-96774000D03*
X136906000Y-97028000D03*
X136906000Y-77978000D03*
X133096000Y-80264000D03*
X133096000Y-97790000D03*
X201422000Y-97790000D03*
X201422000Y-78359000D03*
X130048000Y-81280000D03*
X130048000Y-59182000D03*
X128778000Y-83820000D03*
X128778000Y-60706000D03*
X218440000Y-92710000D03*
X220853000Y-44196000D03*
X220726000Y-48387000D03*
X221742000Y-66929000D03*
X167132000Y-62357000D03*
X180594000Y-54737000D03*
X180467000Y-71755000D03*
X174117000Y-71755000D03*
X171831000Y-71755000D03*
X154178000Y-49276000D03*
X131064000Y-49276000D03*
X131064000Y-88646000D03*
X126492000Y-88646000D03*
X143510000Y-89408000D03*
X167259000Y-77851000D03*
X167259000Y-85725000D03*
X157607000Y-90678000D03*
X157607000Y-76073000D03*
X199263000Y-43307000D03*
X196850000Y-48387000D03*
X196850000Y-85344000D03*
X217932000Y-85217000D03*
X223647000Y-87122000D03*
X172466000Y-76327000D03*
X167640000Y-76327000D03*
X179324000Y-58039000D03*
X179324000Y-68707000D03*
X184531000Y-95250000D03*
X184531000Y-60325000D03*
D34*
X212852000Y-97663000D02*
X212725000Y-97790000D01*
X212725000Y-97790000D02*
X208915000Y-97790000D01*
X208915000Y-97790000D02*
X207670400Y-99034600D01*
X207670400Y-99034600D02*
X207670400Y-101600000D01*
X212979000Y-71247000D02*
X212852000Y-71374000D01*
X212979000Y-67691000D02*
X212979000Y-71247000D01*
X225450400Y-101600000D02*
X228015800Y-101600000D01*
X201930000Y-106172000D02*
X202184000Y-106172000D01*
X221234000Y-101600000D02*
X225450400Y-101600000D01*
X219964000Y-102870000D02*
X221234000Y-101600000D01*
X219964000Y-105918000D02*
X219964000Y-102870000D01*
X218948000Y-106934000D02*
X219964000Y-105918000D01*
X202946000Y-106934000D02*
X218948000Y-106934000D01*
X202184000Y-106172000D02*
X202946000Y-106934000D01*
X189890400Y-101600000D02*
X192455800Y-101600000D01*
X207670400Y-101600000D02*
X210235800Y-101600000D01*
X184150000Y-105664000D02*
X185674000Y-107188000D01*
X202946000Y-101600000D02*
X207670400Y-101600000D01*
X201930000Y-102616000D02*
X202946000Y-101600000D01*
X201930000Y-106172000D02*
X201930000Y-102616000D01*
X200914000Y-107188000D02*
X201930000Y-106172000D01*
X185674000Y-107188000D02*
X200914000Y-107188000D01*
D35*
X221139000Y-113697000D02*
X221139000Y-114940000D01*
D34*
X221139000Y-114940000D02*
X236600000Y-114940000D01*
X146940000Y-29840000D02*
X144621000Y-29840000D01*
X164720000Y-29840000D02*
X162401000Y-29840000D01*
X144621000Y-29840000D02*
X129160000Y-29840000D01*
X162401000Y-29840000D02*
X146940000Y-29840000D01*
D35*
X162401000Y-29840000D02*
X164720000Y-29840000D01*
X155524200Y-43180000D02*
X158089600Y-43180000D01*
X176276000Y-65127000D02*
X181967000Y-65127000D01*
X181967000Y-77827000D02*
X176276000Y-77827000D01*
X181991000Y-77851000D02*
X181967000Y-77827000D01*
X181967000Y-65127000D02*
X181991000Y-65151000D01*
X173146000Y-79150000D02*
X175993000Y-79150000D01*
X175993000Y-79150000D02*
X176276000Y-78867000D01*
X176276000Y-78867000D02*
X176276000Y-77827000D01*
X176276000Y-65127000D02*
X173379000Y-65127000D01*
X173146000Y-65360000D02*
X173146000Y-66958000D01*
X173379000Y-65127000D02*
X173146000Y-65360000D01*
D34*
X165480000Y-114940000D02*
X167799000Y-114940000D01*
D35*
X154178000Y-101447600D02*
X154330400Y-101600000D01*
X180181000Y-29840000D02*
X175773000Y-29840000D01*
X175773000Y-29840000D02*
X174117000Y-31496000D01*
X174117000Y-31496000D02*
X174117000Y-36322000D01*
X174117000Y-36322000D02*
X176022000Y-38227000D01*
X176022000Y-38227000D02*
X178562000Y-38227000D01*
X178562000Y-38227000D02*
X179324000Y-38989000D01*
X179324000Y-38989000D02*
X179324000Y-42291000D01*
X179324000Y-42291000D02*
X178435000Y-43180000D01*
X178435000Y-43180000D02*
X175869600Y-43180000D01*
X173304200Y-43180000D02*
X175869600Y-43180000D01*
D34*
X180181000Y-29840000D02*
X164720000Y-29840000D01*
X150019000Y-114940000D02*
X165480000Y-114940000D01*
X167799000Y-114940000D02*
X183260000Y-114940000D01*
D35*
X172085000Y-101574600D02*
X172110400Y-101600000D01*
D34*
X180181000Y-29840000D02*
X182500000Y-29840000D01*
X183260000Y-114940000D02*
X185579000Y-114940000D01*
X182500000Y-29840000D02*
X197961000Y-29840000D01*
X124381260Y-70599360D02*
X134124640Y-70599360D01*
X141224000Y-63500000D02*
X144780000Y-63500000D01*
X134124640Y-70599360D02*
X141224000Y-63500000D01*
X144780000Y-63500000D02*
X149606000Y-63500000D01*
X149606000Y-63500000D02*
X154686000Y-58420000D01*
X154686000Y-58420000D02*
X160020000Y-58420000D01*
X247474740Y-98672640D02*
X243198640Y-98672640D01*
X241427000Y-93324680D02*
X237792260Y-89689940D01*
X241427000Y-96901000D02*
X241427000Y-93324680D01*
X243198640Y-98672640D02*
X241427000Y-96901000D01*
X212979000Y-67691000D02*
X216281000Y-67691000D01*
X114300000Y-81280000D02*
X119380000Y-81280000D01*
X119380000Y-81280000D02*
X121920000Y-83820000D01*
X119380000Y-68100000D02*
X121881900Y-68100000D01*
X121881900Y-68100000D02*
X124381260Y-70599360D01*
D35*
X203359000Y-113824000D02*
X203359000Y-114940000D01*
D34*
X218820000Y-114940000D02*
X221139000Y-114940000D01*
X201040000Y-114940000D02*
X203359000Y-114940000D01*
X203359000Y-114940000D02*
X218820000Y-114940000D01*
X147700000Y-114940000D02*
X150019000Y-114940000D01*
X129920000Y-114940000D02*
X132239000Y-114940000D01*
X114459000Y-114940000D02*
X129920000Y-114940000D01*
X132239000Y-114940000D02*
X147700000Y-114940000D01*
X185579000Y-114940000D02*
X201040000Y-114940000D01*
D35*
X136398000Y-101447600D02*
X136550400Y-101600000D01*
X189992000Y-101498400D02*
X189890400Y-101600000D01*
D34*
X236954060Y-89689940D02*
X236093000Y-90551000D01*
X237792260Y-89689940D02*
X236954060Y-89689940D01*
X206375000Y-43154600D02*
X206349600Y-43180000D01*
X206375000Y-41910000D02*
X206375000Y-43154600D01*
X207619600Y-40665400D02*
X206375000Y-41910000D01*
X212608160Y-42001440D02*
X211429600Y-43180000D01*
X212608160Y-40622220D02*
X212608160Y-42001440D01*
D35*
X210947000Y-42037000D02*
X208991200Y-42037000D01*
X208991200Y-42037000D02*
X207619600Y-40665400D01*
X212361780Y-40622220D02*
X210947000Y-42037000D01*
X212608160Y-40622220D02*
X212361780Y-40622220D01*
D34*
X213215220Y-40622220D02*
X214503000Y-41910000D01*
X212608160Y-40622220D02*
X213215220Y-40622220D01*
X239725200Y-75692000D02*
X240538000Y-76504800D01*
X240538000Y-76504800D02*
X240538000Y-86944200D01*
X240538000Y-86944200D02*
X237792260Y-89689940D01*
X237617000Y-75692000D02*
X239725200Y-75692000D01*
X237617000Y-74549000D02*
X236728000Y-73660000D01*
X236728000Y-73660000D02*
X233426000Y-73660000D01*
X233426000Y-73660000D02*
X232537000Y-74549000D01*
X232537000Y-74549000D02*
X232537000Y-75692000D01*
X237617000Y-75692000D02*
X237617000Y-74549000D01*
X212979000Y-70637400D02*
X211937600Y-71678800D01*
X211937600Y-71678800D02*
X205130400Y-71678800D01*
X205130400Y-71678800D02*
X203962000Y-70510400D01*
X203962000Y-70510400D02*
X203962000Y-67691000D01*
X212979000Y-67691000D02*
X212979000Y-70637400D01*
X200280000Y-29840000D02*
X215741000Y-29840000D01*
X197961000Y-29840000D02*
X200280000Y-29840000D01*
X249974100Y-101473000D02*
X247474740Y-98973640D01*
X252476000Y-101473000D02*
X249974100Y-101473000D01*
X116205000Y-101600000D02*
X114935000Y-102870000D01*
X114935000Y-102870000D02*
X114935000Y-106045000D01*
X114935000Y-106045000D02*
X116205000Y-107823000D01*
X116205000Y-107823000D02*
X129540000Y-107823000D01*
X129540000Y-107823000D02*
X130810000Y-106045000D01*
X130810000Y-105918000D02*
X130810000Y-102235000D01*
X130810000Y-106045000D02*
X130810000Y-105918000D01*
X130810000Y-102235000D02*
X131445000Y-101600000D01*
X131445000Y-101600000D02*
X136550400Y-101600000D01*
X118770400Y-101600000D02*
X116205000Y-101600000D01*
X131064000Y-105918000D02*
X131826000Y-106680000D01*
X131826000Y-106680000D02*
X147828000Y-106680000D01*
X147828000Y-106680000D02*
X148844000Y-105664000D01*
X148844000Y-105664000D02*
X148844000Y-102362000D01*
X148844000Y-102362000D02*
X149606000Y-101600000D01*
X149606000Y-101600000D02*
X154330400Y-101600000D01*
X130810000Y-105918000D02*
X131064000Y-105918000D01*
X149352000Y-105664000D02*
X150368000Y-107188000D01*
X150368000Y-107188000D02*
X165608000Y-107188000D01*
X165608000Y-107188000D02*
X166370000Y-105410000D01*
X166370000Y-105410000D02*
X166370000Y-102362000D01*
X166370000Y-102362000D02*
X167132000Y-101600000D01*
X167132000Y-101600000D02*
X172110400Y-101600000D01*
X148844000Y-105664000D02*
X149352000Y-105664000D01*
X167386000Y-107188000D02*
X183388000Y-107188000D01*
X183388000Y-107188000D02*
X184150000Y-105664000D01*
X184150000Y-105664000D02*
X184150000Y-102362000D01*
X184150000Y-102362000D02*
X184912000Y-101600000D01*
X184912000Y-101600000D02*
X189890400Y-101600000D01*
X166370000Y-105410000D02*
X167386000Y-107188000D01*
X116332000Y-101600000D02*
X112776000Y-105156000D01*
X112776000Y-105156000D02*
X112776000Y-113257000D01*
X112776000Y-113257000D02*
X114459000Y-114940000D01*
X118770400Y-101600000D02*
X116332000Y-101600000D01*
X118770400Y-101600000D02*
X121335800Y-101600000D01*
X154330400Y-101600000D02*
X156895800Y-101600000D01*
X172110400Y-101600000D02*
X174675800Y-101600000D01*
X136550400Y-101600000D02*
X139115800Y-101600000D01*
X252476000Y-106172000D02*
X249974100Y-106172000D01*
X249974100Y-106172000D02*
X247474740Y-103672640D01*
X234393740Y-96492060D02*
X234414060Y-96492060D01*
X234414060Y-96492060D02*
X241594640Y-103672640D01*
X241594640Y-103672640D02*
X247474740Y-103672640D01*
X235254800Y-95631000D02*
X234393740Y-96492060D01*
X236093000Y-95631000D02*
X235254800Y-95631000D01*
X229080060Y-96492060D02*
X219837000Y-87249000D01*
X219837000Y-87249000D02*
X219837000Y-67818000D01*
X219837000Y-67818000D02*
X215646000Y-63627000D01*
X209804000Y-63627000D02*
X201422000Y-63627000D01*
X215646000Y-63627000D02*
X209804000Y-63627000D01*
X201422000Y-63627000D02*
X201422000Y-60071000D01*
X234393740Y-96492060D02*
X229080060Y-96492060D01*
X210439000Y-62992000D02*
X209804000Y-63627000D01*
X210439000Y-60071000D02*
X210439000Y-62992000D01*
X200152000Y-54991000D02*
X201422000Y-56261000D01*
X201422000Y-56261000D02*
X201422000Y-60071000D01*
X200152000Y-52451000D02*
X200152000Y-54991000D01*
X209169000Y-54737000D02*
X210439000Y-56007000D01*
X210439000Y-56007000D02*
X210439000Y-60071000D01*
X209169000Y-52578000D02*
X209169000Y-54737000D01*
D35*
X188711840Y-104157780D02*
X188711840Y-105399840D01*
X193548000Y-105664000D02*
X193548000Y-104267000D01*
X193294000Y-105918000D02*
X193548000Y-105664000D01*
X189230000Y-105918000D02*
X193294000Y-105918000D01*
X188711840Y-105399840D02*
X189230000Y-105918000D01*
X193548000Y-104267000D02*
X193700400Y-104114600D01*
X166624000Y-82423000D02*
X164338000Y-82423000D01*
X169037000Y-84836000D02*
X166624000Y-82423000D01*
X172720000Y-84836000D02*
X169037000Y-84836000D01*
X173863000Y-83693000D02*
X172720000Y-84836000D01*
X186817000Y-83693000D02*
X173863000Y-83693000D01*
X169246000Y-79150000D02*
X164367000Y-79150000D01*
X164211000Y-82550000D02*
X154813000Y-82550000D01*
X164338000Y-82423000D02*
X164211000Y-82550000D01*
X164367000Y-79150000D02*
X164338000Y-79121000D01*
X149340000Y-80010000D02*
X149340000Y-83300000D01*
X149340000Y-83300000D02*
X149860000Y-83820000D01*
X188711840Y-104157780D02*
X188711840Y-104129840D01*
X197510400Y-101600000D02*
X194970400Y-101600000D01*
X194970400Y-102844600D02*
X193700400Y-104114600D01*
X194970400Y-101600000D02*
X194970400Y-102844600D01*
X206491840Y-104157780D02*
X206491840Y-105145840D01*
X211328000Y-105410000D02*
X211328000Y-104267000D01*
X211074000Y-105664000D02*
X211328000Y-105410000D01*
X210820000Y-105664000D02*
X211074000Y-105664000D01*
X207010000Y-105664000D02*
X210820000Y-105664000D01*
X206491840Y-105145840D02*
X207010000Y-105664000D01*
X211328000Y-104267000D02*
X211480400Y-104114600D01*
X205867000Y-90297000D02*
X165862000Y-90297000D01*
X169896000Y-73250000D02*
X169896000Y-74900000D01*
X155194000Y-83820000D02*
X152400000Y-83820000D01*
X162814000Y-89662000D02*
X155194000Y-89662000D01*
X165862000Y-86614000D02*
X162814000Y-89662000D01*
X169896000Y-74900000D02*
X169926000Y-74930000D01*
X153150000Y-80010000D02*
X153150000Y-83070000D01*
X153150000Y-83070000D02*
X152400000Y-83820000D01*
X215290400Y-101600000D02*
X212750400Y-101600000D01*
X212750400Y-101600000D02*
X211480400Y-102870000D01*
X211480400Y-102870000D02*
X211480400Y-104114600D01*
X210439000Y-67691000D02*
X207264000Y-67691000D01*
X207276000Y-74434000D02*
X210439000Y-74434000D01*
X207264000Y-74422000D02*
X207276000Y-74434000D01*
D34*
X212979000Y-52578000D02*
X212979000Y-60071000D01*
X210134200Y-39547800D02*
X211455000Y-38227000D01*
X211455000Y-38227000D02*
X215138000Y-38227000D01*
X215138000Y-38227000D02*
X216408000Y-39497000D01*
X216408000Y-39497000D02*
X216408000Y-45720000D01*
X216408000Y-45720000D02*
X212979000Y-49149000D01*
X212979000Y-49149000D02*
X212979000Y-52578000D01*
X210134200Y-40665400D02*
X210134200Y-39547800D01*
X210134200Y-39547800D02*
X210134200Y-40665400D01*
X205079600Y-40030400D02*
X206756000Y-38354000D01*
X206756000Y-38354000D02*
X208940400Y-38354000D01*
X208940400Y-38354000D02*
X210134200Y-39547800D01*
X205079600Y-40640000D02*
X205079600Y-40030400D01*
D35*
X154190000Y-76200000D02*
X154190000Y-77482000D01*
X162560000Y-104140000D02*
X160680400Y-104140000D01*
X163322000Y-103378000D02*
X162560000Y-104140000D01*
X163322000Y-99822000D02*
X163322000Y-103378000D01*
X162560000Y-99060000D02*
X163322000Y-99822000D01*
X156464000Y-99060000D02*
X162560000Y-99060000D01*
X154686000Y-77978000D02*
X156464000Y-77978000D01*
X154190000Y-77482000D02*
X154686000Y-77978000D01*
X151650000Y-80010000D02*
X151650000Y-78740000D01*
X151650000Y-78740000D02*
X154190000Y-76200000D01*
X154190000Y-76200000D02*
X148717000Y-76200000D01*
X147840000Y-77077000D02*
X147840000Y-80010000D01*
X148717000Y-76200000D02*
X147840000Y-77077000D01*
X154190000Y-73660000D02*
X154190000Y-76200000D01*
X154190000Y-71120000D02*
X154190000Y-73660000D01*
X154190000Y-68580000D02*
X154190000Y-71120000D01*
X154190000Y-66040000D02*
X154190000Y-68580000D01*
X155690000Y-63500000D02*
X155690000Y-63766000D01*
X155690000Y-63766000D02*
X154190000Y-65266000D01*
X154190000Y-65266000D02*
X154190000Y-66040000D01*
X160020000Y-63500000D02*
X155690000Y-63500000D01*
X169246000Y-61058000D02*
X168119000Y-61058000D01*
X167513000Y-60452000D02*
X167513000Y-58420000D01*
X168119000Y-61058000D02*
X167513000Y-60452000D01*
X160020000Y-63500000D02*
X167894000Y-63500000D01*
X168402000Y-62992000D02*
X169672000Y-62992000D01*
X167894000Y-63500000D02*
X168402000Y-62992000D01*
X176276000Y-62127000D02*
X174982000Y-62127000D01*
X174117000Y-62992000D02*
X172466000Y-62992000D01*
X174982000Y-62127000D02*
X174117000Y-62992000D01*
X172496000Y-61058000D02*
X172496000Y-62962000D01*
X169246000Y-62566000D02*
X169246000Y-61058000D01*
X169672000Y-62992000D02*
X169246000Y-62566000D01*
X172496000Y-62962000D02*
X172466000Y-62992000D01*
X169246000Y-61058000D02*
X169246000Y-63545000D01*
X170546000Y-64845000D02*
X170546000Y-66958000D01*
X169246000Y-63545000D02*
X170546000Y-64845000D01*
X172496000Y-73250000D02*
X172496000Y-74452000D01*
X172871000Y-74827000D02*
X176276000Y-74827000D01*
X172496000Y-74452000D02*
X172871000Y-74827000D01*
X171196000Y-66958000D02*
X171196000Y-68961000D01*
X172339000Y-70104000D02*
X172466000Y-70104000D01*
X171196000Y-68961000D02*
X172339000Y-70104000D01*
X169246000Y-73250000D02*
X169246000Y-70186000D01*
X172496000Y-70134000D02*
X172496000Y-73250000D01*
X172466000Y-70104000D02*
X172496000Y-70134000D01*
X169246000Y-70186000D02*
X169164000Y-70104000D01*
X151650000Y-80010000D02*
X151650000Y-79768000D01*
X155690000Y-63500000D02*
X155690000Y-63893000D01*
X172496000Y-59279000D02*
X172496000Y-61058000D01*
X172720000Y-59055000D02*
X172496000Y-59279000D01*
X174625000Y-59055000D02*
X172720000Y-59055000D01*
X171196000Y-66958000D02*
X170546000Y-66958000D01*
X149340000Y-68580000D02*
X154190000Y-68580000D01*
X226695000Y-104165400D02*
X226745800Y-104114600D01*
X139014200Y-40665400D02*
X139014200Y-39420800D01*
X151511000Y-39370000D02*
X151511000Y-40411400D01*
X150876000Y-38735000D02*
X151511000Y-39370000D01*
X139700000Y-38735000D02*
X150876000Y-38735000D01*
X139014200Y-39420800D02*
X139700000Y-38735000D01*
X151511000Y-40411400D02*
X151739600Y-40640000D01*
X133959600Y-40640000D02*
X133959600Y-39522400D01*
X139014200Y-39319200D02*
X139014200Y-40665400D01*
X138430000Y-38735000D02*
X139014200Y-39319200D01*
X134747000Y-38735000D02*
X138430000Y-38735000D01*
X133959600Y-39522400D02*
X134747000Y-38735000D01*
X169519600Y-40640000D02*
X169519600Y-39979600D01*
X156794200Y-39293800D02*
X156794200Y-40665400D01*
X157353000Y-38735000D02*
X156794200Y-39293800D01*
X168275000Y-38735000D02*
X157353000Y-38735000D01*
X169519600Y-39979600D02*
X168275000Y-38735000D01*
X169519600Y-40640000D02*
X169519600Y-39522400D01*
X174574200Y-39827200D02*
X174574200Y-40665400D01*
X173482000Y-38735000D02*
X174574200Y-39827200D01*
X170307000Y-38735000D02*
X173482000Y-38735000D01*
X169519600Y-39522400D02*
X170307000Y-38735000D01*
X151739600Y-40640000D02*
X151739600Y-39776400D01*
X156794200Y-39319200D02*
X156794200Y-40665400D01*
X156210000Y-38735000D02*
X156794200Y-39319200D01*
X152781000Y-38735000D02*
X156210000Y-38735000D01*
X151739600Y-39776400D02*
X152781000Y-38735000D01*
X125120400Y-104140000D02*
X125120400Y-104622600D01*
X155702000Y-104190800D02*
X155625800Y-104114600D01*
X173482000Y-104190800D02*
X173405800Y-104114600D01*
X196088000Y-104292400D02*
X196240400Y-104140000D01*
X155321000Y-104419400D02*
X155625800Y-104114600D01*
X160020000Y-66040000D02*
X164592000Y-66040000D01*
X168783000Y-81026000D02*
X169926000Y-82169000D01*
X165989000Y-81026000D02*
X168783000Y-81026000D01*
X165862000Y-80899000D02*
X165989000Y-81026000D01*
X166116000Y-67564000D02*
X166116000Y-70485000D01*
X164592000Y-66040000D02*
X166116000Y-67564000D01*
X169896000Y-79150000D02*
X169896000Y-82139000D01*
X169896000Y-82139000D02*
X169926000Y-82169000D01*
X183261000Y-53467000D02*
X166497000Y-53467000D01*
X166497000Y-57912000D02*
X162433000Y-53848000D01*
X162433000Y-53848000D02*
X157607000Y-53848000D01*
X155690000Y-66040000D02*
X160020000Y-66040000D01*
X153009600Y-43180000D02*
X150469600Y-43180000D01*
X153009600Y-43180000D02*
X154279600Y-41910000D01*
X154279600Y-41910000D02*
X157861000Y-41910000D01*
X157861000Y-41910000D02*
X159148780Y-40622220D01*
X159148780Y-40622220D02*
X159268160Y-40622220D01*
X154279600Y-40665400D02*
X154279600Y-41910000D01*
X170546000Y-79150000D02*
X170546000Y-76977000D01*
X186817000Y-47498000D02*
X165100000Y-47498000D01*
X186944000Y-47625000D02*
X186817000Y-47498000D01*
X173736000Y-76327000D02*
X186944000Y-76327000D01*
X172974000Y-75565000D02*
X173736000Y-76327000D01*
X171958000Y-75565000D02*
X172974000Y-75565000D01*
X172212000Y-75311000D02*
X171958000Y-75565000D01*
X170546000Y-76977000D02*
X172212000Y-75311000D01*
X168249600Y-43180000D02*
X168249600Y-46634400D01*
X164846000Y-68580000D02*
X160020000Y-68580000D01*
X165100000Y-68326000D02*
X164846000Y-68580000D01*
X167386000Y-47498000D02*
X165100000Y-47498000D01*
X168249600Y-46634400D02*
X167386000Y-47498000D01*
X155690000Y-68580000D02*
X160020000Y-68580000D01*
X170789600Y-43180000D02*
X171069000Y-43180000D01*
X171069000Y-43180000D02*
X172212000Y-42037000D01*
X175633380Y-42037000D02*
X177048160Y-40622220D01*
X172212000Y-42037000D02*
X175633380Y-42037000D01*
X171069000Y-43180000D02*
X172059600Y-42189400D01*
X171069000Y-43180000D02*
X172059600Y-42189400D01*
X172059600Y-42189400D02*
X172059600Y-40665400D01*
X168249600Y-43180000D02*
X170789600Y-43180000D01*
X171069000Y-80899000D02*
X171069000Y-82931000D01*
X171069000Y-82931000D02*
X170434000Y-83566000D01*
X177190400Y-101600000D02*
X179730400Y-101600000D01*
X175920400Y-104114600D02*
X176301400Y-104114600D01*
X176301400Y-104114600D02*
X177190400Y-103225600D01*
X177190400Y-103225600D02*
X177190400Y-101600000D01*
X170931840Y-104157780D02*
X170931840Y-104891840D01*
X175920400Y-105257600D02*
X175920400Y-104114600D01*
X175514000Y-105664000D02*
X175920400Y-105257600D01*
X171704000Y-105664000D02*
X175514000Y-105664000D01*
X170931840Y-104891840D02*
X171704000Y-105664000D01*
X171196000Y-79150000D02*
X171196000Y-80772000D01*
X159131000Y-50673000D02*
X156718000Y-50673000D01*
X159258000Y-50546000D02*
X159131000Y-50673000D01*
X168021000Y-51816000D02*
X163830000Y-47625000D01*
X185674000Y-51816000D02*
X168021000Y-51816000D01*
X185801000Y-51943000D02*
X185674000Y-51816000D01*
X181991000Y-80899000D02*
X185801000Y-80899000D01*
X171196000Y-80772000D02*
X171069000Y-80899000D01*
X155690000Y-71120000D02*
X157099000Y-71120000D01*
X155690000Y-71120000D02*
X160020000Y-71120000D01*
X159410400Y-101600000D02*
X161950400Y-101600000D01*
X158140400Y-104114600D02*
X158521400Y-104114600D01*
X158521400Y-104114600D02*
X159410400Y-103225600D01*
X159410400Y-103225600D02*
X159410400Y-101600000D01*
X153151840Y-104157780D02*
X153151840Y-104891840D01*
X158140400Y-105003600D02*
X158140400Y-104114600D01*
X157480000Y-105664000D02*
X158140400Y-105003600D01*
X153924000Y-105664000D02*
X157480000Y-105664000D01*
X153151840Y-104891840D02*
X153924000Y-105664000D01*
X171846000Y-79150000D02*
X171846000Y-83297000D01*
X152654000Y-90297000D02*
X151257000Y-90297000D01*
X153924000Y-91567000D02*
X152654000Y-90297000D01*
X171450000Y-91567000D02*
X153924000Y-91567000D01*
X171831000Y-91186000D02*
X171450000Y-91567000D01*
X171846000Y-83297000D02*
X171831000Y-83312000D01*
X155690000Y-73660000D02*
X157099000Y-73660000D01*
X146685000Y-90297000D02*
X151257000Y-90297000D01*
X146558000Y-90170000D02*
X146685000Y-90297000D01*
X155690000Y-73660000D02*
X160020000Y-73660000D01*
X124381260Y-50599360D02*
X127454640Y-50599360D01*
X164084000Y-76200000D02*
X160020000Y-76200000D01*
X160528000Y-47752000D02*
X164084000Y-51308000D01*
X130302000Y-47752000D02*
X160528000Y-47752000D01*
X127454640Y-50599360D02*
X130302000Y-47752000D01*
D34*
X119380000Y-48100000D02*
X121881900Y-48100000D01*
X121881900Y-48100000D02*
X124381260Y-50599360D01*
D35*
X124381260Y-50599360D02*
X124381260Y-51356260D01*
X124381260Y-45599360D02*
X124381260Y-45641260D01*
X124381260Y-45641260D02*
X125476000Y-46736000D01*
X163322000Y-78740000D02*
X160020000Y-78740000D01*
X161036000Y-46736000D02*
X163322000Y-49022000D01*
X125476000Y-46736000D02*
X161036000Y-46736000D01*
D34*
X119380000Y-43100000D02*
X121881900Y-43100000D01*
X121881900Y-43100000D02*
X124381260Y-45599360D01*
D35*
X124381260Y-40599360D02*
X124381260Y-40815260D01*
X124381260Y-40815260D02*
X129540000Y-45974000D01*
X162306000Y-81280000D02*
X160020000Y-81280000D01*
X161798000Y-45974000D02*
X162560000Y-46736000D01*
X129540000Y-45974000D02*
X161798000Y-45974000D01*
D34*
X119380000Y-38100000D02*
X121881900Y-38100000D01*
X121881900Y-38100000D02*
X124381260Y-40599360D01*
D35*
X124381260Y-40599360D02*
X125435360Y-40599360D01*
X124381260Y-65599360D02*
X127440640Y-65599360D01*
X160020000Y-85852000D02*
X160020000Y-83820000D01*
X159004000Y-86868000D02*
X160020000Y-85852000D01*
X127762000Y-86868000D02*
X159004000Y-86868000D01*
X127440640Y-65599360D02*
X127762000Y-65278000D01*
X124381260Y-65599360D02*
X124381260Y-64975740D01*
D34*
X119380000Y-63100000D02*
X121881900Y-63100000D01*
X121881900Y-63100000D02*
X124381260Y-65599360D01*
D35*
X114300000Y-73660000D02*
X141986000Y-73660000D01*
X141986000Y-55880000D02*
X144780000Y-55880000D01*
X141986000Y-73660000D02*
X142240000Y-73406000D01*
X114300000Y-76200000D02*
X140716000Y-76200000D01*
X140716000Y-58420000D02*
X144780000Y-58420000D01*
X134620000Y-60960000D02*
X144780000Y-60960000D01*
X114300000Y-78740000D02*
X134620000Y-78740000D01*
X134620000Y-60960000D02*
X134620000Y-63500000D01*
X134620000Y-63500000D02*
X134646694Y-64374441D01*
X169896000Y-61058000D02*
X169896000Y-59787000D01*
X148463000Y-66040000D02*
X144780000Y-66040000D01*
X162814000Y-52705000D02*
X148463000Y-52705000D01*
X169896000Y-59787000D02*
X162814000Y-52705000D01*
X169896000Y-61058000D02*
X169896000Y-56291000D01*
X178406000Y-73250000D02*
X173146000Y-73250000D01*
X178435000Y-73279000D02*
X178406000Y-73250000D01*
X170307000Y-55880000D02*
X178562000Y-55880000D01*
X169896000Y-56291000D02*
X170307000Y-55880000D01*
X171196000Y-61058000D02*
X171196000Y-59309000D01*
X162433000Y-88392000D02*
X139700000Y-88392000D01*
X165100000Y-83566000D02*
X162433000Y-88392000D01*
X139700000Y-68580000D02*
X144780000Y-68580000D01*
X144780000Y-68580000D02*
X147840000Y-68580000D01*
X141488160Y-40622220D02*
X141841220Y-40622220D01*
X135229600Y-43180000D02*
X132689600Y-43180000D01*
X135229600Y-43180000D02*
X135229600Y-43078400D01*
X136499600Y-40665400D02*
X136499600Y-41910000D01*
X136499600Y-41910000D02*
X135229600Y-43180000D01*
X144780000Y-71120000D02*
X138430000Y-71120000D01*
X210439000Y-78486000D02*
X210439000Y-75934000D01*
X210312000Y-78613000D02*
X210439000Y-78486000D01*
X178562000Y-87884000D02*
X210312000Y-87884000D01*
X138557000Y-95631000D02*
X178562000Y-95631000D01*
X138430000Y-95504000D02*
X138557000Y-95631000D01*
X233070400Y-101600000D02*
X233070400Y-100355400D01*
X142367000Y-75565000D02*
X144272000Y-73660000D01*
X142494000Y-94234000D02*
X142367000Y-94107000D01*
X224282000Y-94234000D02*
X142494000Y-94234000D01*
X228092000Y-98044000D02*
X224282000Y-94234000D01*
X230759000Y-98044000D02*
X228092000Y-98044000D01*
X233070400Y-100355400D02*
X230759000Y-98044000D01*
X144272000Y-73660000D02*
X144780000Y-73660000D01*
X144780000Y-76200000D02*
X144272000Y-76200000D01*
X144272000Y-76200000D02*
X142494000Y-77978000D01*
X198374000Y-96774000D02*
X223012000Y-96774000D01*
X198120000Y-97028000D02*
X198374000Y-96774000D01*
X136906000Y-97028000D02*
X198120000Y-97028000D01*
X142494000Y-77978000D02*
X136906000Y-77978000D01*
X144780000Y-76200000D02*
X144018000Y-76200000D01*
X144780000Y-78740000D02*
X144272000Y-78740000D01*
X144272000Y-78740000D02*
X142748000Y-80264000D01*
X142748000Y-80264000D02*
X133096000Y-80264000D01*
X133096000Y-97790000D02*
X201422000Y-97790000D01*
X201422000Y-78359000D02*
X201422000Y-76061000D01*
X124381260Y-55599360D02*
X126465360Y-55599360D01*
X130048000Y-81280000D02*
X144780000Y-81280000D01*
X126465360Y-55599360D02*
X130048000Y-59182000D01*
X124381260Y-55599360D02*
X124433360Y-55599360D01*
D34*
X119380000Y-53100000D02*
X121881900Y-53100000D01*
X121881900Y-53100000D02*
X124381260Y-55599360D01*
D35*
X124381260Y-60599360D02*
X128671360Y-60599360D01*
X128778000Y-83820000D02*
X144780000Y-83820000D01*
X128671360Y-60599360D02*
X128778000Y-60706000D01*
D34*
X119380000Y-58100000D02*
X121881900Y-58100000D01*
X121881900Y-58100000D02*
X124381260Y-60599360D01*
X203962000Y-52451000D02*
X203962000Y-60071000D01*
X203962000Y-49911000D02*
X206375000Y-47498000D01*
X206375000Y-47498000D02*
X207645000Y-47498000D01*
X207645000Y-47498000D02*
X208864200Y-46278800D01*
X208864200Y-46278800D02*
X208864200Y-43180000D01*
X203962000Y-52451000D02*
X203962000Y-49911000D01*
X203809600Y-45694600D02*
X205613000Y-47498000D01*
X205613000Y-47498000D02*
X206375000Y-47498000D01*
X203809600Y-43180000D02*
X203809600Y-45694600D01*
D35*
X201422000Y-67691000D02*
X201422000Y-74561000D01*
D34*
X124460000Y-83820000D02*
X124460000Y-91440000D01*
X125730000Y-92710000D02*
X218440000Y-92710000D01*
X124460000Y-91440000D02*
X125730000Y-92710000D01*
X247142000Y-92710000D02*
X247142000Y-94361000D01*
X256921000Y-84789000D02*
X252603000Y-80471000D01*
X256921000Y-91567000D02*
X256921000Y-84789000D01*
X253238000Y-95250000D02*
X256921000Y-91567000D01*
X248031000Y-95250000D02*
X253238000Y-95250000D01*
X247142000Y-94361000D02*
X248031000Y-95250000D01*
X250103640Y-77971640D02*
X252603000Y-80471000D01*
X247601740Y-77971640D02*
X250103640Y-77971640D01*
D35*
X226961000Y-54979000D02*
X228854000Y-53086000D01*
X226961000Y-83312000D02*
X226961000Y-54979000D01*
D34*
X252603000Y-85471000D02*
X252603000Y-89789000D01*
X252603000Y-89789000D02*
X249682000Y-92710000D01*
D35*
X198620380Y-36830000D02*
X194828160Y-40622220D01*
X218567000Y-36830000D02*
X198620380Y-36830000D01*
X220726000Y-38989000D02*
X218567000Y-36830000D01*
X220726000Y-44069000D02*
X220726000Y-38989000D01*
X220853000Y-44196000D02*
X220726000Y-44069000D01*
X219329000Y-49784000D02*
X220726000Y-48387000D01*
X219329000Y-57912000D02*
X219329000Y-49784000D01*
X221742000Y-60325000D02*
X219329000Y-57912000D01*
X221742000Y-66929000D02*
X221742000Y-60325000D01*
X189839600Y-41910000D02*
X188569600Y-43180000D01*
X189839600Y-40665400D02*
X189839600Y-41910000D01*
X189839600Y-40030400D02*
X190881000Y-38989000D01*
X189839600Y-40665400D02*
X189839600Y-40030400D01*
X194828160Y-39507160D02*
X194828160Y-40622220D01*
X194310000Y-38989000D02*
X194828160Y-39507160D01*
X190881000Y-38989000D02*
X194310000Y-38989000D01*
X194828160Y-42001440D02*
X193649600Y-43180000D01*
X194828160Y-40622220D02*
X194828160Y-42001440D01*
D34*
X250101100Y-85471000D02*
X247601740Y-82971640D01*
X252603000Y-85471000D02*
X250101100Y-85471000D01*
D35*
X122580400Y-104114600D02*
X122580400Y-105562400D01*
X117591840Y-105653840D02*
X117591840Y-104157780D01*
X117856000Y-105918000D02*
X117591840Y-105653840D01*
X122224800Y-105918000D02*
X117856000Y-105918000D01*
X122580400Y-105562400D02*
X122224800Y-105918000D01*
X154190000Y-62472000D02*
X154190000Y-63500000D01*
X154432000Y-62230000D02*
X154190000Y-62472000D01*
X167005000Y-62230000D02*
X154432000Y-62230000D01*
X167132000Y-62357000D02*
X167005000Y-62230000D01*
X171846000Y-73250000D02*
X171846000Y-71770000D01*
X160528000Y-49276000D02*
X154178000Y-49276000D01*
X165862000Y-54610000D02*
X160528000Y-49276000D01*
X180467000Y-54610000D02*
X165862000Y-54610000D01*
X180594000Y-54737000D02*
X180467000Y-54610000D01*
X174117000Y-71755000D02*
X180467000Y-71755000D01*
X171846000Y-71770000D02*
X171831000Y-71755000D01*
X131064000Y-49276000D02*
X154178000Y-49276000D01*
X126492000Y-88646000D02*
X131064000Y-88646000D01*
X122580400Y-102870000D02*
X122580400Y-104114600D01*
X123850400Y-101600000D02*
X122580400Y-102870000D01*
X126390400Y-101600000D02*
X123850400Y-101600000D01*
X157607000Y-90678000D02*
X154432000Y-90678000D01*
X153162000Y-89408000D02*
X143510000Y-89408000D01*
X154432000Y-90678000D02*
X153162000Y-89408000D01*
X141630400Y-101600000D02*
X144170400Y-101600000D01*
X140360400Y-104114600D02*
X140741400Y-104114600D01*
X140741400Y-104114600D02*
X141630400Y-103225600D01*
X141630400Y-103225600D02*
X141630400Y-101600000D01*
X135371840Y-104157780D02*
X135371840Y-104637840D01*
X135371840Y-104637840D02*
X136398000Y-105664000D01*
X136398000Y-105664000D02*
X138811000Y-105664000D01*
X138811000Y-105664000D02*
X140360400Y-104114600D01*
X155690000Y-76200000D02*
X157480000Y-76200000D01*
X170434000Y-76073000D02*
X171196000Y-75438000D01*
X171196000Y-75438000D02*
X171196000Y-73250000D01*
X169799000Y-76708000D02*
X170434000Y-76073000D01*
X167640000Y-77470000D02*
X169037000Y-77470000D01*
X169037000Y-77470000D02*
X169799000Y-76708000D01*
X167259000Y-77851000D02*
X167640000Y-77470000D01*
X167259000Y-86995000D02*
X167259000Y-85725000D01*
X163449000Y-90805000D02*
X167259000Y-86995000D01*
X157734000Y-90805000D02*
X163449000Y-90805000D01*
X157607000Y-90678000D02*
X157734000Y-90805000D01*
X157480000Y-76200000D02*
X157607000Y-76073000D01*
X235077000Y-83312000D02*
X235077000Y-85344000D01*
X199263000Y-45974000D02*
X199263000Y-43307000D01*
X196850000Y-48387000D02*
X199263000Y-45974000D01*
X217805000Y-85344000D02*
X196850000Y-85344000D01*
X217932000Y-85217000D02*
X217805000Y-85344000D01*
X233299000Y-87122000D02*
X223647000Y-87122000D01*
X235077000Y-85344000D02*
X233299000Y-87122000D01*
X169246000Y-66958000D02*
X169246000Y-68244000D01*
X172496000Y-76357000D02*
X172496000Y-79150000D01*
X172466000Y-76327000D02*
X172496000Y-76357000D01*
X167640000Y-69850000D02*
X167640000Y-76327000D01*
X169246000Y-68244000D02*
X167640000Y-69850000D01*
X169896000Y-66958000D02*
X169896000Y-68804000D01*
X170546000Y-69454000D02*
X170546000Y-73250000D01*
X169896000Y-68804000D02*
X170546000Y-69454000D01*
X171846000Y-66958000D02*
X171846000Y-68468000D01*
X170546000Y-58308000D02*
X170546000Y-61058000D01*
X170942000Y-57912000D02*
X170546000Y-58308000D01*
X179197000Y-57912000D02*
X170942000Y-57912000D01*
X179324000Y-58039000D02*
X179197000Y-57912000D01*
X172085000Y-68707000D02*
X179324000Y-68707000D01*
X171846000Y-68468000D02*
X172085000Y-68707000D01*
X172496000Y-66958000D02*
X172496000Y-65308000D01*
X171846000Y-62088000D02*
X171846000Y-61058000D01*
X171704000Y-62230000D02*
X171846000Y-62088000D01*
X171704000Y-64516000D02*
X171704000Y-62230000D01*
X172496000Y-65308000D02*
X171704000Y-64516000D01*
X173146000Y-61058000D02*
X174400000Y-61058000D01*
X227863400Y-98933000D02*
X230530400Y-101600000D01*
X227711000Y-98933000D02*
X227863400Y-98933000D01*
X224028000Y-95250000D02*
X227711000Y-98933000D01*
X222123000Y-95250000D02*
X224028000Y-95250000D01*
X184531000Y-95250000D02*
X222123000Y-95250000D01*
X175133000Y-60325000D02*
X184531000Y-60325000D01*
X174400000Y-61058000D02*
X175133000Y-60325000D01*
X229260400Y-104114600D02*
X229260400Y-102870000D01*
X229260400Y-102870000D02*
X230530400Y-101600000D01*
D36*
X249040640Y-35519360D02*
X249040640Y-38021260D01*
X251540000Y-33020000D02*
X249040640Y-35519360D01*
X256540000Y-33020000D02*
X251540000Y-33020000D01*
X251460000Y-40601900D02*
X251841000Y-53467000D01*
X254040640Y-38021260D02*
X251460000Y-40601900D01*
X249040640Y-38021260D02*
X254040640Y-38021260D01*
X241300000Y-33020000D02*
X236300000Y-33020000D01*
X236300000Y-35521900D02*
X233800640Y-38021260D01*
X236300000Y-33020000D02*
X236300000Y-35521900D01*
X241300000Y-40520620D02*
X241681000Y-53467000D01*
X238800640Y-38021260D02*
X241300000Y-40520620D01*
X233800640Y-38021260D02*
X238800640Y-38021260D01*
D35*
X228461000Y-83312000D02*
X232537000Y-83312000D01*
M02*
