M48
; DRILL file {KiCad 5.1.5} date Thu 19 Dec 2019 20:19:04 CET
; FORMAT={-:-/ absolute / inch / decimal}
; #@! TF.CreationDate,2019-12-19T20:19:04+01:00
; #@! TF.GenerationSoftware,Kicad,Pcbnew,5.1.5
FMAT,2
INCH
T1C0.0157
T2C0.0315
T3C0.0374
T4C0.0394
T5C0.0433
T6C0.0472
T7C0.0598
%
G90
G05
T1
X4.24Y-2.52
X4.4Y-2.86
X4.58Y-1.9
X4.58Y-2.1
T2
X4.14Y-2.26
X4.24Y-2.16
X4.34Y-2.26
X5.88Y-1.5863
X5.88Y-1.98
X3.24Y-2.12
X3.54Y-2.12
X3.94Y-2.12
X3.94Y-2.42
X5.6752Y-2.457
X5.7016Y-2.52
X5.8Y-2.52
X5.8264Y-2.583
X4.76Y-1.52
X4.76Y-1.82
X4.86Y-1.52
X4.86Y-1.82
X4.96Y-1.52
X4.96Y-1.82
X5.06Y-1.52
X5.06Y-1.82
X5.16Y-1.52
X5.16Y-1.82
X5.26Y-1.52
X5.26Y-1.82
X5.36Y-1.52
X5.36Y-1.82
T3
X4.56Y-2.58
X4.6584Y-2.58
X4.7569Y-2.58
X4.8553Y-2.58
X4.9537Y-2.58
T4
X3.8386Y-2.9528
X3.25Y-2.9528
X3.5433Y-2.9528
T5
X5.16Y-2.18
X5.56Y-2.18
T6
X4.76Y-2.0
X5.26Y-2.0
X5.54Y-1.78
X5.54Y-1.98
X4.94Y-2.36
X5.44Y-2.36
T7
X4.66Y-2.96
X4.86Y-2.96
X5.06Y-2.96
X5.26Y-2.96
X5.46Y-2.96
X5.66Y-2.96
X3.24Y-1.36
X3.44Y-1.36
T0
M30
