G04 #@! TF.GenerationSoftware,KiCad,Pcbnew,5.1.5*
G04 #@! TF.CreationDate,2019-12-19T20:19:00+01:00*
G04 #@! TF.ProjectId,counter,636f756e-7465-4722-9e6b-696361645f70,rev?*
G04 #@! TF.SameCoordinates,Original*
G04 #@! TF.FileFunction,Copper,L1,Top*
G04 #@! TF.FilePolarity,Positive*
%FSLAX46Y46*%
G04 Gerber Fmt 4.6, Leading zero omitted, Abs format (unit mm)*
G04 Created by KiCad (PCBNEW 5.1.5) date 2019-12-19 20:19:00*
%MOMM*%
%LPD*%
G04 APERTURE LIST*
%ADD10C,3.000000*%
%ADD11R,1.600000X1.600000*%
%ADD12C,1.600000*%
%ADD13R,2.500000X2.500000*%
%ADD14C,2.500000*%
%ADD15O,3.000000X3.000000*%
%ADD16C,4.000000*%
%ADD17R,4.000000X4.000000*%
%ADD18R,3.000000X3.000000*%
%ADD19C,0.100000*%
%ADD20O,1.800000X3.000000*%
%ADD21O,2.500000X3.000000*%
%ADD22R,1.600000X2.400000*%
%ADD23O,1.600000X2.400000*%
%ADD24C,0.500000*%
G04 APERTURE END LIST*
D10*
X149352000Y-50292000D03*
X149352000Y-40292000D03*
D11*
X147320000Y-64008000D03*
D12*
X144820000Y-64008000D03*
D13*
X147990937Y-65608000D03*
D14*
X144149063Y-62408000D03*
D13*
X131064000Y-55372000D03*
D15*
X141224000Y-55372000D03*
D16*
X82550000Y-75000000D03*
X90000000Y-75000000D03*
X97500000Y-75000000D03*
X123444000Y-75184000D03*
X128524000Y-75184000D03*
D17*
X118364000Y-75184000D03*
D16*
X133604000Y-75184000D03*
X138684000Y-75184000D03*
X143764000Y-75184000D03*
D18*
X82296000Y-34544000D03*
D10*
X87376000Y-34544000D03*
G04 #@! TA.AperFunction,ComponentPad*
D19*
G36*
X116485335Y-64033274D02*
G01*
X116511021Y-64037084D01*
X116536209Y-64043394D01*
X116560658Y-64052141D01*
X116584132Y-64063244D01*
X116606404Y-64076593D01*
X116627260Y-64092061D01*
X116646500Y-64109500D01*
X116663939Y-64128740D01*
X116679407Y-64149596D01*
X116692756Y-64171868D01*
X116703859Y-64195342D01*
X116712606Y-64219791D01*
X116718916Y-64244979D01*
X116722726Y-64270665D01*
X116724000Y-64296600D01*
X116724000Y-66767400D01*
X116722726Y-66793335D01*
X116718916Y-66819021D01*
X116712606Y-66844209D01*
X116703859Y-66868658D01*
X116692756Y-66892132D01*
X116679407Y-66914404D01*
X116663939Y-66935260D01*
X116646500Y-66954500D01*
X116627260Y-66971939D01*
X116606404Y-66987407D01*
X116584132Y-67000756D01*
X116560658Y-67011859D01*
X116536209Y-67020606D01*
X116511021Y-67026916D01*
X116485335Y-67030726D01*
X116459400Y-67032000D01*
X115188600Y-67032000D01*
X115162665Y-67030726D01*
X115136979Y-67026916D01*
X115111791Y-67020606D01*
X115087342Y-67011859D01*
X115063868Y-67000756D01*
X115041596Y-66987407D01*
X115020740Y-66971939D01*
X115001500Y-66954500D01*
X114984061Y-66935260D01*
X114968593Y-66914404D01*
X114955244Y-66892132D01*
X114944141Y-66868658D01*
X114935394Y-66844209D01*
X114929084Y-66819021D01*
X114925274Y-66793335D01*
X114924000Y-66767400D01*
X114924000Y-64296600D01*
X114925274Y-64270665D01*
X114929084Y-64244979D01*
X114935394Y-64219791D01*
X114944141Y-64195342D01*
X114955244Y-64171868D01*
X114968593Y-64149596D01*
X114984061Y-64128740D01*
X115001500Y-64109500D01*
X115020740Y-64092061D01*
X115041596Y-64076593D01*
X115063868Y-64063244D01*
X115087342Y-64052141D01*
X115111791Y-64043394D01*
X115136979Y-64037084D01*
X115162665Y-64033274D01*
X115188600Y-64032000D01*
X116459400Y-64032000D01*
X116485335Y-64033274D01*
G37*
G04 #@! TD.AperFunction*
D20*
X118324000Y-65532000D03*
X120824000Y-65532000D03*
X123324000Y-65532000D03*
X125824000Y-65532000D03*
D14*
X107696000Y-54864000D03*
X110236000Y-57404000D03*
G04 #@! TA.AperFunction,ComponentPad*
D19*
G36*
X105842261Y-56157010D02*
G01*
X105902931Y-56166009D01*
X105962428Y-56180912D01*
X106020177Y-56201575D01*
X106075623Y-56227799D01*
X106128231Y-56259331D01*
X106177496Y-56295868D01*
X106222942Y-56337058D01*
X106264132Y-56382504D01*
X106300669Y-56431769D01*
X106332201Y-56484377D01*
X106358425Y-56539823D01*
X106379088Y-56597572D01*
X106393991Y-56657069D01*
X106402990Y-56717739D01*
X106406000Y-56779000D01*
X106406000Y-58029000D01*
X106402990Y-58090261D01*
X106393991Y-58150931D01*
X106379088Y-58210428D01*
X106358425Y-58268177D01*
X106332201Y-58323623D01*
X106300669Y-58376231D01*
X106264132Y-58425496D01*
X106222942Y-58470942D01*
X106177496Y-58512132D01*
X106128231Y-58548669D01*
X106075623Y-58580201D01*
X106020177Y-58606425D01*
X105962428Y-58627088D01*
X105902931Y-58641991D01*
X105842261Y-58650990D01*
X105781000Y-58654000D01*
X104531000Y-58654000D01*
X104469739Y-58650990D01*
X104409069Y-58641991D01*
X104349572Y-58627088D01*
X104291823Y-58606425D01*
X104236377Y-58580201D01*
X104183769Y-58548669D01*
X104134504Y-58512132D01*
X104089058Y-58470942D01*
X104047868Y-58425496D01*
X104011331Y-58376231D01*
X103979799Y-58323623D01*
X103953575Y-58268177D01*
X103932912Y-58210428D01*
X103918009Y-58150931D01*
X103909010Y-58090261D01*
X103906000Y-58029000D01*
X103906000Y-56779000D01*
X103909010Y-56717739D01*
X103918009Y-56657069D01*
X103932912Y-56597572D01*
X103953575Y-56539823D01*
X103979799Y-56484377D01*
X104011331Y-56431769D01*
X104047868Y-56382504D01*
X104089058Y-56337058D01*
X104134504Y-56295868D01*
X104183769Y-56259331D01*
X104236377Y-56227799D01*
X104291823Y-56201575D01*
X104349572Y-56180912D01*
X104409069Y-56166009D01*
X104469739Y-56157010D01*
X104531000Y-56154000D01*
X105781000Y-56154000D01*
X105842261Y-56157010D01*
G37*
G04 #@! TD.AperFunction*
D15*
X140716000Y-45212000D03*
D10*
X140716000Y-50292000D03*
D21*
X100076000Y-53848000D03*
X89916000Y-53848000D03*
X82296000Y-53848000D03*
X100076000Y-61468000D03*
D22*
X120904000Y-46228000D03*
D23*
X136144000Y-38608000D03*
X123444000Y-46228000D03*
X133604000Y-38608000D03*
X125984000Y-46228000D03*
X131064000Y-38608000D03*
X128524000Y-46228000D03*
X128524000Y-38608000D03*
X131064000Y-46228000D03*
X125984000Y-38608000D03*
X133604000Y-46228000D03*
X123444000Y-38608000D03*
X136144000Y-46228000D03*
X120904000Y-38608000D03*
D10*
X138176000Y-59944000D03*
D15*
X125476000Y-59944000D03*
D10*
X120904000Y-50800000D03*
D15*
X133604000Y-50800000D03*
D10*
X107696000Y-64008000D03*
X111760000Y-72644000D03*
X116332000Y-48260000D03*
X116332000Y-53340000D03*
D24*
X107696000Y-64008000D02*
X111760000Y-72644000D01*
X116332000Y-48260000D02*
X116332000Y-53340000D01*
M02*
