G04 #@! TF.GenerationSoftware,KiCad,Pcbnew,5.1.5*
G04 #@! TF.CreationDate,2019-12-19T20:19:00+01:00*
G04 #@! TF.ProjectId,counter,636f756e-7465-4722-9e6b-696361645f70,rev?*
G04 #@! TF.SameCoordinates,Original*
G04 #@! TF.FileFunction,Soldermask,Top*
G04 #@! TF.FilePolarity,Negative*
%FSLAX46Y46*%
G04 Gerber Fmt 4.6, Leading zero omitted, Abs format (unit mm)*
G04 Created by KiCad (PCBNEW 5.1.5) date 2019-12-19 20:19:00*
%MOMM*%
%LPD*%
G04 APERTURE LIST*
%ADD10C,0.100000*%
G04 APERTURE END LIST*
D10*
G36*
X134202254Y-73211818D02*
G01*
X134575511Y-73366426D01*
X134575513Y-73366427D01*
X134636061Y-73406884D01*
X134911436Y-73590884D01*
X135197116Y-73876564D01*
X135421574Y-74212489D01*
X135576182Y-74585746D01*
X135655000Y-74981993D01*
X135655000Y-75386007D01*
X135576182Y-75782254D01*
X135497789Y-75971511D01*
X135421573Y-76155513D01*
X135197116Y-76491436D01*
X134911436Y-76777116D01*
X134575513Y-77001573D01*
X134575512Y-77001574D01*
X134575511Y-77001574D01*
X134202254Y-77156182D01*
X133806007Y-77235000D01*
X133401993Y-77235000D01*
X133005746Y-77156182D01*
X132632489Y-77001574D01*
X132632488Y-77001574D01*
X132632487Y-77001573D01*
X132296564Y-76777116D01*
X132010884Y-76491436D01*
X131786427Y-76155513D01*
X131710211Y-75971511D01*
X131631818Y-75782254D01*
X131553000Y-75386007D01*
X131553000Y-74981993D01*
X131631818Y-74585746D01*
X131786426Y-74212489D01*
X132010884Y-73876564D01*
X132296564Y-73590884D01*
X132571939Y-73406884D01*
X132632487Y-73366427D01*
X132632489Y-73366426D01*
X133005746Y-73211818D01*
X133401993Y-73133000D01*
X133806007Y-73133000D01*
X134202254Y-73211818D01*
G37*
G36*
X129122254Y-73211818D02*
G01*
X129495511Y-73366426D01*
X129495513Y-73366427D01*
X129556061Y-73406884D01*
X129831436Y-73590884D01*
X130117116Y-73876564D01*
X130341574Y-74212489D01*
X130496182Y-74585746D01*
X130575000Y-74981993D01*
X130575000Y-75386007D01*
X130496182Y-75782254D01*
X130417789Y-75971511D01*
X130341573Y-76155513D01*
X130117116Y-76491436D01*
X129831436Y-76777116D01*
X129495513Y-77001573D01*
X129495512Y-77001574D01*
X129495511Y-77001574D01*
X129122254Y-77156182D01*
X128726007Y-77235000D01*
X128321993Y-77235000D01*
X127925746Y-77156182D01*
X127552489Y-77001574D01*
X127552488Y-77001574D01*
X127552487Y-77001573D01*
X127216564Y-76777116D01*
X126930884Y-76491436D01*
X126706427Y-76155513D01*
X126630211Y-75971511D01*
X126551818Y-75782254D01*
X126473000Y-75386007D01*
X126473000Y-74981993D01*
X126551818Y-74585746D01*
X126706426Y-74212489D01*
X126930884Y-73876564D01*
X127216564Y-73590884D01*
X127491939Y-73406884D01*
X127552487Y-73366427D01*
X127552489Y-73366426D01*
X127925746Y-73211818D01*
X128321993Y-73133000D01*
X128726007Y-73133000D01*
X129122254Y-73211818D01*
G37*
G36*
X124042254Y-73211818D02*
G01*
X124415511Y-73366426D01*
X124415513Y-73366427D01*
X124476061Y-73406884D01*
X124751436Y-73590884D01*
X125037116Y-73876564D01*
X125261574Y-74212489D01*
X125416182Y-74585746D01*
X125495000Y-74981993D01*
X125495000Y-75386007D01*
X125416182Y-75782254D01*
X125337789Y-75971511D01*
X125261573Y-76155513D01*
X125037116Y-76491436D01*
X124751436Y-76777116D01*
X124415513Y-77001573D01*
X124415512Y-77001574D01*
X124415511Y-77001574D01*
X124042254Y-77156182D01*
X123646007Y-77235000D01*
X123241993Y-77235000D01*
X122845746Y-77156182D01*
X122472489Y-77001574D01*
X122472488Y-77001574D01*
X122472487Y-77001573D01*
X122136564Y-76777116D01*
X121850884Y-76491436D01*
X121626427Y-76155513D01*
X121550211Y-75971511D01*
X121471818Y-75782254D01*
X121393000Y-75386007D01*
X121393000Y-74981993D01*
X121471818Y-74585746D01*
X121626426Y-74212489D01*
X121850884Y-73876564D01*
X122136564Y-73590884D01*
X122411939Y-73406884D01*
X122472487Y-73366427D01*
X122472489Y-73366426D01*
X122845746Y-73211818D01*
X123241993Y-73133000D01*
X123646007Y-73133000D01*
X124042254Y-73211818D01*
G37*
G36*
X120415000Y-77235000D02*
G01*
X116313000Y-77235000D01*
X116313000Y-73133000D01*
X120415000Y-73133000D01*
X120415000Y-77235000D01*
G37*
G36*
X144362254Y-73211818D02*
G01*
X144735511Y-73366426D01*
X144735513Y-73366427D01*
X144796061Y-73406884D01*
X145071436Y-73590884D01*
X145357116Y-73876564D01*
X145581574Y-74212489D01*
X145736182Y-74585746D01*
X145815000Y-74981993D01*
X145815000Y-75386007D01*
X145736182Y-75782254D01*
X145657789Y-75971511D01*
X145581573Y-76155513D01*
X145357116Y-76491436D01*
X145071436Y-76777116D01*
X144735513Y-77001573D01*
X144735512Y-77001574D01*
X144735511Y-77001574D01*
X144362254Y-77156182D01*
X143966007Y-77235000D01*
X143561993Y-77235000D01*
X143165746Y-77156182D01*
X142792489Y-77001574D01*
X142792488Y-77001574D01*
X142792487Y-77001573D01*
X142456564Y-76777116D01*
X142170884Y-76491436D01*
X141946427Y-76155513D01*
X141870211Y-75971511D01*
X141791818Y-75782254D01*
X141713000Y-75386007D01*
X141713000Y-74981993D01*
X141791818Y-74585746D01*
X141946426Y-74212489D01*
X142170884Y-73876564D01*
X142456564Y-73590884D01*
X142731939Y-73406884D01*
X142792487Y-73366427D01*
X142792489Y-73366426D01*
X143165746Y-73211818D01*
X143561993Y-73133000D01*
X143966007Y-73133000D01*
X144362254Y-73211818D01*
G37*
G36*
X139282254Y-73211818D02*
G01*
X139655511Y-73366426D01*
X139655513Y-73366427D01*
X139716061Y-73406884D01*
X139991436Y-73590884D01*
X140277116Y-73876564D01*
X140501574Y-74212489D01*
X140656182Y-74585746D01*
X140735000Y-74981993D01*
X140735000Y-75386007D01*
X140656182Y-75782254D01*
X140577789Y-75971511D01*
X140501573Y-76155513D01*
X140277116Y-76491436D01*
X139991436Y-76777116D01*
X139655513Y-77001573D01*
X139655512Y-77001574D01*
X139655511Y-77001574D01*
X139282254Y-77156182D01*
X138886007Y-77235000D01*
X138481993Y-77235000D01*
X138085746Y-77156182D01*
X137712489Y-77001574D01*
X137712488Y-77001574D01*
X137712487Y-77001573D01*
X137376564Y-76777116D01*
X137090884Y-76491436D01*
X136866427Y-76155513D01*
X136790211Y-75971511D01*
X136711818Y-75782254D01*
X136633000Y-75386007D01*
X136633000Y-74981993D01*
X136711818Y-74585746D01*
X136866426Y-74212489D01*
X137090884Y-73876564D01*
X137376564Y-73590884D01*
X137651939Y-73406884D01*
X137712487Y-73366427D01*
X137712489Y-73366426D01*
X138085746Y-73211818D01*
X138481993Y-73133000D01*
X138886007Y-73133000D01*
X139282254Y-73211818D01*
G37*
G36*
X83148254Y-73027818D02*
G01*
X83521511Y-73182426D01*
X83521513Y-73182427D01*
X83565501Y-73211819D01*
X83857436Y-73406884D01*
X84143116Y-73692564D01*
X84367574Y-74028489D01*
X84522182Y-74401746D01*
X84601000Y-74797993D01*
X84601000Y-75202007D01*
X84522182Y-75598254D01*
X84445966Y-75782255D01*
X84367573Y-75971513D01*
X84143116Y-76307436D01*
X83857436Y-76593116D01*
X83521513Y-76817573D01*
X83521512Y-76817574D01*
X83521511Y-76817574D01*
X83148254Y-76972182D01*
X82752007Y-77051000D01*
X82347993Y-77051000D01*
X81951746Y-76972182D01*
X81578489Y-76817574D01*
X81578488Y-76817574D01*
X81578487Y-76817573D01*
X81242564Y-76593116D01*
X80956884Y-76307436D01*
X80732427Y-75971513D01*
X80654034Y-75782255D01*
X80577818Y-75598254D01*
X80499000Y-75202007D01*
X80499000Y-74797993D01*
X80577818Y-74401746D01*
X80732426Y-74028489D01*
X80956884Y-73692564D01*
X81242564Y-73406884D01*
X81534499Y-73211819D01*
X81578487Y-73182427D01*
X81578489Y-73182426D01*
X81951746Y-73027818D01*
X82347993Y-72949000D01*
X82752007Y-72949000D01*
X83148254Y-73027818D01*
G37*
G36*
X90598254Y-73027818D02*
G01*
X90971511Y-73182426D01*
X90971513Y-73182427D01*
X91015501Y-73211819D01*
X91307436Y-73406884D01*
X91593116Y-73692564D01*
X91817574Y-74028489D01*
X91972182Y-74401746D01*
X92051000Y-74797993D01*
X92051000Y-75202007D01*
X91972182Y-75598254D01*
X91895966Y-75782255D01*
X91817573Y-75971513D01*
X91593116Y-76307436D01*
X91307436Y-76593116D01*
X90971513Y-76817573D01*
X90971512Y-76817574D01*
X90971511Y-76817574D01*
X90598254Y-76972182D01*
X90202007Y-77051000D01*
X89797993Y-77051000D01*
X89401746Y-76972182D01*
X89028489Y-76817574D01*
X89028488Y-76817574D01*
X89028487Y-76817573D01*
X88692564Y-76593116D01*
X88406884Y-76307436D01*
X88182427Y-75971513D01*
X88104034Y-75782255D01*
X88027818Y-75598254D01*
X87949000Y-75202007D01*
X87949000Y-74797993D01*
X88027818Y-74401746D01*
X88182426Y-74028489D01*
X88406884Y-73692564D01*
X88692564Y-73406884D01*
X88984499Y-73211819D01*
X89028487Y-73182427D01*
X89028489Y-73182426D01*
X89401746Y-73027818D01*
X89797993Y-72949000D01*
X90202007Y-72949000D01*
X90598254Y-73027818D01*
G37*
G36*
X98098254Y-73027818D02*
G01*
X98471511Y-73182426D01*
X98471513Y-73182427D01*
X98515501Y-73211819D01*
X98807436Y-73406884D01*
X99093116Y-73692564D01*
X99317574Y-74028489D01*
X99472182Y-74401746D01*
X99551000Y-74797993D01*
X99551000Y-75202007D01*
X99472182Y-75598254D01*
X99395966Y-75782255D01*
X99317573Y-75971513D01*
X99093116Y-76307436D01*
X98807436Y-76593116D01*
X98471513Y-76817573D01*
X98471512Y-76817574D01*
X98471511Y-76817574D01*
X98098254Y-76972182D01*
X97702007Y-77051000D01*
X97297993Y-77051000D01*
X96901746Y-76972182D01*
X96528489Y-76817574D01*
X96528488Y-76817574D01*
X96528487Y-76817573D01*
X96192564Y-76593116D01*
X95906884Y-76307436D01*
X95682427Y-75971513D01*
X95604034Y-75782255D01*
X95527818Y-75598254D01*
X95449000Y-75202007D01*
X95449000Y-74797993D01*
X95527818Y-74401746D01*
X95682426Y-74028489D01*
X95906884Y-73692564D01*
X96192564Y-73406884D01*
X96484499Y-73211819D01*
X96528487Y-73182427D01*
X96528489Y-73182426D01*
X96901746Y-73027818D01*
X97297993Y-72949000D01*
X97702007Y-72949000D01*
X98098254Y-73027818D01*
G37*
G36*
X121010424Y-63994760D02*
G01*
X121010427Y-63994761D01*
X121010428Y-63994761D01*
X121189692Y-64049140D01*
X121189695Y-64049142D01*
X121189696Y-64049142D01*
X121354903Y-64137446D01*
X121499712Y-64256288D01*
X121618554Y-64401097D01*
X121698400Y-64550480D01*
X121706860Y-64566307D01*
X121706860Y-64566308D01*
X121761240Y-64745575D01*
X121775000Y-64885282D01*
X121775000Y-66178718D01*
X121761240Y-66318425D01*
X121761239Y-66318428D01*
X121761239Y-66318429D01*
X121706860Y-66497693D01*
X121706858Y-66497696D01*
X121706858Y-66497697D01*
X121618554Y-66662903D01*
X121499712Y-66807712D01*
X121354903Y-66926554D01*
X121189697Y-67014858D01*
X121189693Y-67014860D01*
X121010429Y-67069239D01*
X121010428Y-67069239D01*
X121010425Y-67069240D01*
X120824000Y-67087601D01*
X120637576Y-67069240D01*
X120637573Y-67069239D01*
X120637572Y-67069239D01*
X120458308Y-67014860D01*
X120458304Y-67014858D01*
X120293098Y-66926554D01*
X120148289Y-66807712D01*
X120029447Y-66662903D01*
X119941140Y-66497692D01*
X119886760Y-66318430D01*
X119873000Y-66178718D01*
X119873000Y-64885283D01*
X119886760Y-64745576D01*
X119886761Y-64745572D01*
X119941140Y-64566308D01*
X119941143Y-64566303D01*
X120029446Y-64401097D01*
X120148288Y-64256288D01*
X120293097Y-64137446D01*
X120458303Y-64049142D01*
X120458304Y-64049142D01*
X120458307Y-64049140D01*
X120637571Y-63994761D01*
X120637572Y-63994761D01*
X120637575Y-63994760D01*
X120824000Y-63976399D01*
X121010424Y-63994760D01*
G37*
G36*
X123510424Y-63994760D02*
G01*
X123510427Y-63994761D01*
X123510428Y-63994761D01*
X123689692Y-64049140D01*
X123689695Y-64049142D01*
X123689696Y-64049142D01*
X123854903Y-64137446D01*
X123999712Y-64256288D01*
X124118554Y-64401097D01*
X124198400Y-64550480D01*
X124206860Y-64566307D01*
X124206860Y-64566308D01*
X124261240Y-64745575D01*
X124275000Y-64885282D01*
X124275000Y-66178718D01*
X124261240Y-66318425D01*
X124261239Y-66318428D01*
X124261239Y-66318429D01*
X124206860Y-66497693D01*
X124206858Y-66497696D01*
X124206858Y-66497697D01*
X124118554Y-66662903D01*
X123999712Y-66807712D01*
X123854903Y-66926554D01*
X123689697Y-67014858D01*
X123689693Y-67014860D01*
X123510429Y-67069239D01*
X123510428Y-67069239D01*
X123510425Y-67069240D01*
X123324000Y-67087601D01*
X123137576Y-67069240D01*
X123137573Y-67069239D01*
X123137572Y-67069239D01*
X122958308Y-67014860D01*
X122958304Y-67014858D01*
X122793098Y-66926554D01*
X122648289Y-66807712D01*
X122529447Y-66662903D01*
X122441140Y-66497692D01*
X122386760Y-66318430D01*
X122373000Y-66178718D01*
X122373000Y-64885283D01*
X122386760Y-64745576D01*
X122386761Y-64745572D01*
X122441140Y-64566308D01*
X122441143Y-64566303D01*
X122529446Y-64401097D01*
X122648288Y-64256288D01*
X122793097Y-64137446D01*
X122958303Y-64049142D01*
X122958304Y-64049142D01*
X122958307Y-64049140D01*
X123137571Y-63994761D01*
X123137572Y-63994761D01*
X123137575Y-63994760D01*
X123324000Y-63976399D01*
X123510424Y-63994760D01*
G37*
G36*
X126010424Y-63994760D02*
G01*
X126010427Y-63994761D01*
X126010428Y-63994761D01*
X126189692Y-64049140D01*
X126189695Y-64049142D01*
X126189696Y-64049142D01*
X126354903Y-64137446D01*
X126499712Y-64256288D01*
X126618554Y-64401097D01*
X126698400Y-64550480D01*
X126706860Y-64566307D01*
X126706860Y-64566308D01*
X126761240Y-64745575D01*
X126775000Y-64885282D01*
X126775000Y-66178718D01*
X126761240Y-66318425D01*
X126761239Y-66318428D01*
X126761239Y-66318429D01*
X126706860Y-66497693D01*
X126706858Y-66497696D01*
X126706858Y-66497697D01*
X126618554Y-66662903D01*
X126499712Y-66807712D01*
X126354903Y-66926554D01*
X126189697Y-67014858D01*
X126189693Y-67014860D01*
X126010429Y-67069239D01*
X126010428Y-67069239D01*
X126010425Y-67069240D01*
X125824000Y-67087601D01*
X125637576Y-67069240D01*
X125637573Y-67069239D01*
X125637572Y-67069239D01*
X125458308Y-67014860D01*
X125458304Y-67014858D01*
X125293098Y-66926554D01*
X125148289Y-66807712D01*
X125029447Y-66662903D01*
X124941140Y-66497692D01*
X124886760Y-66318430D01*
X124873000Y-66178718D01*
X124873000Y-64885283D01*
X124886760Y-64745576D01*
X124886761Y-64745572D01*
X124941140Y-64566308D01*
X124941143Y-64566303D01*
X125029446Y-64401097D01*
X125148288Y-64256288D01*
X125293097Y-64137446D01*
X125458303Y-64049142D01*
X125458304Y-64049142D01*
X125458307Y-64049140D01*
X125637571Y-63994761D01*
X125637572Y-63994761D01*
X125637575Y-63994760D01*
X125824000Y-63976399D01*
X126010424Y-63994760D01*
G37*
G36*
X118510424Y-63994760D02*
G01*
X118510427Y-63994761D01*
X118510428Y-63994761D01*
X118689692Y-64049140D01*
X118689695Y-64049142D01*
X118689696Y-64049142D01*
X118854903Y-64137446D01*
X118999712Y-64256288D01*
X119118554Y-64401097D01*
X119198400Y-64550480D01*
X119206860Y-64566307D01*
X119206860Y-64566308D01*
X119261240Y-64745575D01*
X119275000Y-64885282D01*
X119275000Y-66178718D01*
X119261240Y-66318425D01*
X119261239Y-66318428D01*
X119261239Y-66318429D01*
X119206860Y-66497693D01*
X119206858Y-66497696D01*
X119206858Y-66497697D01*
X119118554Y-66662903D01*
X118999712Y-66807712D01*
X118854903Y-66926554D01*
X118689697Y-67014858D01*
X118689693Y-67014860D01*
X118510429Y-67069239D01*
X118510428Y-67069239D01*
X118510425Y-67069240D01*
X118324000Y-67087601D01*
X118137576Y-67069240D01*
X118137573Y-67069239D01*
X118137572Y-67069239D01*
X117958308Y-67014860D01*
X117958304Y-67014858D01*
X117793098Y-66926554D01*
X117648289Y-66807712D01*
X117529447Y-66662903D01*
X117441140Y-66497692D01*
X117386760Y-66318430D01*
X117373000Y-66178718D01*
X117373000Y-64885283D01*
X117386760Y-64745576D01*
X117386761Y-64745572D01*
X117441140Y-64566308D01*
X117441143Y-64566303D01*
X117529446Y-64401097D01*
X117648288Y-64256288D01*
X117793097Y-64137446D01*
X117958303Y-64049142D01*
X117958304Y-64049142D01*
X117958307Y-64049140D01*
X118137571Y-63994761D01*
X118137572Y-63994761D01*
X118137575Y-63994760D01*
X118324000Y-63976399D01*
X118510424Y-63994760D01*
G37*
G36*
X116620868Y-63985269D02*
G01*
X116656647Y-63996123D01*
X116689626Y-64013751D01*
X116718529Y-64037471D01*
X116742249Y-64066374D01*
X116759877Y-64099353D01*
X116770731Y-64135132D01*
X116775000Y-64178482D01*
X116775000Y-66885518D01*
X116770731Y-66928868D01*
X116759877Y-66964647D01*
X116742249Y-66997626D01*
X116718529Y-67026529D01*
X116689626Y-67050249D01*
X116656647Y-67067877D01*
X116620868Y-67078731D01*
X116577518Y-67083000D01*
X115070482Y-67083000D01*
X115027132Y-67078731D01*
X114991353Y-67067877D01*
X114958374Y-67050249D01*
X114929471Y-67026529D01*
X114905751Y-66997626D01*
X114888123Y-66964647D01*
X114877269Y-66928868D01*
X114873000Y-66885518D01*
X114873000Y-64178482D01*
X114877269Y-64135132D01*
X114888123Y-64099353D01*
X114905751Y-64066374D01*
X114929471Y-64037471D01*
X114958374Y-64013751D01*
X114991353Y-63996123D01*
X115027132Y-63985269D01*
X115070482Y-63981000D01*
X116577518Y-63981000D01*
X116620868Y-63985269D01*
G37*
G36*
X148171000Y-64182001D02*
G01*
X148173402Y-64206387D01*
X148180515Y-64229836D01*
X148192066Y-64251447D01*
X148207611Y-64270389D01*
X148226553Y-64285934D01*
X148248164Y-64297485D01*
X148271613Y-64304598D01*
X148295999Y-64307000D01*
X149291937Y-64307000D01*
X149291937Y-66909000D01*
X146689937Y-66909000D01*
X146689937Y-64983999D01*
X146687535Y-64959613D01*
X146680422Y-64936164D01*
X146668871Y-64914553D01*
X146653326Y-64895611D01*
X146634384Y-64880066D01*
X146612773Y-64868515D01*
X146589324Y-64861402D01*
X146564938Y-64859000D01*
X146469000Y-64859000D01*
X146469000Y-63157000D01*
X148171000Y-63157000D01*
X148171000Y-64182001D01*
G37*
G36*
X144528550Y-61156996D02*
G01*
X144765316Y-61255068D01*
X144765318Y-61255069D01*
X144978402Y-61397447D01*
X145159616Y-61578661D01*
X145295420Y-61781906D01*
X145301995Y-61791747D01*
X145400067Y-62028513D01*
X145450063Y-62279861D01*
X145450063Y-62536139D01*
X145400067Y-62787487D01*
X145301994Y-63024256D01*
X145241028Y-63115499D01*
X145229477Y-63137110D01*
X145222364Y-63160559D01*
X145219962Y-63184945D01*
X145222364Y-63209331D01*
X145229477Y-63232780D01*
X145241028Y-63254390D01*
X145256574Y-63273332D01*
X145275507Y-63288871D01*
X145362481Y-63346985D01*
X145481015Y-63465519D01*
X145574147Y-63604900D01*
X145638297Y-63759772D01*
X145671000Y-63924184D01*
X145671000Y-64091816D01*
X145638297Y-64256228D01*
X145574147Y-64411100D01*
X145481015Y-64550481D01*
X145362481Y-64669015D01*
X145223100Y-64762147D01*
X145068228Y-64826297D01*
X144903816Y-64859000D01*
X144736184Y-64859000D01*
X144571772Y-64826297D01*
X144416900Y-64762147D01*
X144277519Y-64669015D01*
X144158985Y-64550481D01*
X144065853Y-64411100D01*
X144001703Y-64256228D01*
X143969000Y-64091816D01*
X143969000Y-63924184D01*
X143987765Y-63829847D01*
X143990166Y-63805466D01*
X143987764Y-63781080D01*
X143980651Y-63757631D01*
X143969100Y-63736021D01*
X143953555Y-63717079D01*
X143934613Y-63701533D01*
X143913002Y-63689982D01*
X143889553Y-63682869D01*
X143769576Y-63659004D01*
X143532810Y-63560932D01*
X143532809Y-63560932D01*
X143532808Y-63560931D01*
X143319724Y-63418553D01*
X143138510Y-63237339D01*
X142996132Y-63024255D01*
X142955343Y-62925782D01*
X142898059Y-62787487D01*
X142848063Y-62536139D01*
X142848063Y-62279861D01*
X142898059Y-62028513D01*
X142996131Y-61791747D01*
X143002707Y-61781906D01*
X143138510Y-61578661D01*
X143319724Y-61397447D01*
X143532808Y-61255069D01*
X143532810Y-61255068D01*
X143769576Y-61156996D01*
X144020924Y-61107000D01*
X144277202Y-61107000D01*
X144528550Y-61156996D01*
G37*
G36*
X100331040Y-59935825D02*
G01*
X100576280Y-60010218D01*
X100802294Y-60131025D01*
X100853899Y-60173376D01*
X101000397Y-60293603D01*
X101120624Y-60440101D01*
X101162975Y-60491706D01*
X101283782Y-60717721D01*
X101358175Y-60962961D01*
X101358175Y-60962962D01*
X101376473Y-61148740D01*
X101377000Y-61154096D01*
X101377000Y-61781905D01*
X101358175Y-61973040D01*
X101283782Y-62218280D01*
X101162975Y-62444294D01*
X101000396Y-62642396D01*
X100802293Y-62804975D01*
X100576279Y-62925782D01*
X100331039Y-63000175D01*
X100076000Y-63025294D01*
X99820960Y-63000175D01*
X99575720Y-62925782D01*
X99575718Y-62925781D01*
X99349707Y-62804976D01*
X99151604Y-62642396D01*
X99064401Y-62536139D01*
X98989025Y-62444293D01*
X98868218Y-62218279D01*
X98793825Y-61973039D01*
X98775000Y-61781904D01*
X98775000Y-61154095D01*
X98793825Y-60962960D01*
X98868218Y-60717720D01*
X98868219Y-60717718D01*
X98989024Y-60491707D01*
X99151604Y-60293604D01*
X99262805Y-60202344D01*
X99349707Y-60131025D01*
X99575721Y-60010218D01*
X99820961Y-59935825D01*
X100076000Y-59910706D01*
X100331040Y-59935825D01*
G37*
G36*
X125743876Y-58415898D02*
G01*
X125928410Y-58452604D01*
X126210674Y-58569521D01*
X126464705Y-58739259D01*
X126680741Y-58955295D01*
X126850479Y-59209326D01*
X126967396Y-59491590D01*
X126967396Y-59491591D01*
X127027000Y-59791239D01*
X127027000Y-60096761D01*
X127020184Y-60131025D01*
X126967396Y-60396410D01*
X126850479Y-60678674D01*
X126680741Y-60932705D01*
X126464705Y-61148741D01*
X126210674Y-61318479D01*
X125928410Y-61435396D01*
X125778585Y-61465198D01*
X125628761Y-61495000D01*
X125323239Y-61495000D01*
X125173415Y-61465198D01*
X125023590Y-61435396D01*
X124741326Y-61318479D01*
X124487295Y-61148741D01*
X124271259Y-60932705D01*
X124101521Y-60678674D01*
X123984604Y-60396410D01*
X123931816Y-60131025D01*
X123925000Y-60096761D01*
X123925000Y-59791239D01*
X123984604Y-59491591D01*
X123984604Y-59491590D01*
X124101521Y-59209326D01*
X124271259Y-58955295D01*
X124487295Y-58739259D01*
X124741326Y-58569521D01*
X125023590Y-58452604D01*
X125208124Y-58415898D01*
X125323239Y-58393000D01*
X125628761Y-58393000D01*
X125743876Y-58415898D01*
G37*
G36*
X138443876Y-58415898D02*
G01*
X138628410Y-58452604D01*
X138910674Y-58569521D01*
X139164705Y-58739259D01*
X139380741Y-58955295D01*
X139550479Y-59209326D01*
X139667396Y-59491590D01*
X139667396Y-59491591D01*
X139727000Y-59791239D01*
X139727000Y-60096761D01*
X139720184Y-60131025D01*
X139667396Y-60396410D01*
X139550479Y-60678674D01*
X139380741Y-60932705D01*
X139164705Y-61148741D01*
X138910674Y-61318479D01*
X138628410Y-61435396D01*
X138478585Y-61465198D01*
X138328761Y-61495000D01*
X138023239Y-61495000D01*
X137873415Y-61465198D01*
X137723590Y-61435396D01*
X137441326Y-61318479D01*
X137187295Y-61148741D01*
X136971259Y-60932705D01*
X136801521Y-60678674D01*
X136684604Y-60396410D01*
X136631816Y-60131025D01*
X136625000Y-60096761D01*
X136625000Y-59791239D01*
X136684604Y-59491591D01*
X136684604Y-59491590D01*
X136801521Y-59209326D01*
X136971259Y-58955295D01*
X137187295Y-58739259D01*
X137441326Y-58569521D01*
X137723590Y-58452604D01*
X137908124Y-58415898D01*
X138023239Y-58393000D01*
X138328761Y-58393000D01*
X138443876Y-58415898D01*
G37*
G36*
X110615487Y-56152996D02*
G01*
X110735236Y-56202598D01*
X110852255Y-56251069D01*
X111016337Y-56360705D01*
X111065339Y-56393447D01*
X111246553Y-56574661D01*
X111388932Y-56787747D01*
X111487004Y-57024513D01*
X111537000Y-57275861D01*
X111537000Y-57532139D01*
X111487004Y-57783487D01*
X111388932Y-58020253D01*
X111388931Y-58020255D01*
X111246553Y-58233339D01*
X111065339Y-58414553D01*
X110852255Y-58556931D01*
X110852254Y-58556932D01*
X110852253Y-58556932D01*
X110615487Y-58655004D01*
X110364139Y-58705000D01*
X110107861Y-58705000D01*
X109856513Y-58655004D01*
X109619747Y-58556932D01*
X109619746Y-58556932D01*
X109619745Y-58556931D01*
X109406661Y-58414553D01*
X109225447Y-58233339D01*
X109083069Y-58020255D01*
X109083068Y-58020253D01*
X108984996Y-57783487D01*
X108935000Y-57532139D01*
X108935000Y-57275861D01*
X108984996Y-57024513D01*
X109083068Y-56787747D01*
X109225447Y-56574661D01*
X109406661Y-56393447D01*
X109455663Y-56360705D01*
X109619745Y-56251069D01*
X109736764Y-56202598D01*
X109856513Y-56152996D01*
X110107861Y-56103000D01*
X110364139Y-56103000D01*
X110615487Y-56152996D01*
G37*
G36*
X105983593Y-56114891D02*
G01*
X106093789Y-56148319D01*
X106195338Y-56202598D01*
X106284351Y-56275649D01*
X106357402Y-56364662D01*
X106411681Y-56466211D01*
X106445109Y-56576407D01*
X106457000Y-56697140D01*
X106457000Y-58110860D01*
X106445109Y-58231593D01*
X106411681Y-58341789D01*
X106357402Y-58443338D01*
X106284351Y-58532351D01*
X106195338Y-58605402D01*
X106093789Y-58659681D01*
X105983593Y-58693109D01*
X105862860Y-58705000D01*
X104449140Y-58705000D01*
X104328407Y-58693109D01*
X104218211Y-58659681D01*
X104116662Y-58605402D01*
X104027649Y-58532351D01*
X103954598Y-58443338D01*
X103900319Y-58341789D01*
X103866891Y-58231593D01*
X103855000Y-58110860D01*
X103855000Y-56697140D01*
X103866891Y-56576407D01*
X103900319Y-56466211D01*
X103954598Y-56364662D01*
X104027649Y-56275649D01*
X104116662Y-56202598D01*
X104218211Y-56148319D01*
X104328407Y-56114891D01*
X104449140Y-56103000D01*
X105862860Y-56103000D01*
X105983593Y-56114891D01*
G37*
G36*
X141526585Y-53850802D02*
G01*
X141676410Y-53880604D01*
X141958674Y-53997521D01*
X142212705Y-54167259D01*
X142428741Y-54383295D01*
X142598479Y-54637326D01*
X142675923Y-54824294D01*
X142715396Y-54919591D01*
X142768185Y-55184976D01*
X142775000Y-55219240D01*
X142775000Y-55524760D01*
X142715396Y-55824410D01*
X142598479Y-56106674D01*
X142428741Y-56360705D01*
X142212705Y-56576741D01*
X141958674Y-56746479D01*
X141676410Y-56863396D01*
X141526585Y-56893198D01*
X141376761Y-56923000D01*
X141071239Y-56923000D01*
X140921415Y-56893198D01*
X140771590Y-56863396D01*
X140489326Y-56746479D01*
X140235295Y-56576741D01*
X140019259Y-56360705D01*
X139849521Y-56106674D01*
X139732604Y-55824410D01*
X139673000Y-55524760D01*
X139673000Y-55219240D01*
X139679816Y-55184976D01*
X139732604Y-54919591D01*
X139772077Y-54824294D01*
X139849521Y-54637326D01*
X140019259Y-54383295D01*
X140235295Y-54167259D01*
X140489326Y-53997521D01*
X140771590Y-53880604D01*
X140921415Y-53850802D01*
X141071239Y-53821000D01*
X141376761Y-53821000D01*
X141526585Y-53850802D01*
G37*
G36*
X132365000Y-56673000D02*
G01*
X129763000Y-56673000D01*
X129763000Y-54071000D01*
X132365000Y-54071000D01*
X132365000Y-56673000D01*
G37*
G36*
X108075487Y-53612996D02*
G01*
X108312253Y-53711068D01*
X108312255Y-53711069D01*
X108525339Y-53853447D01*
X108706553Y-54034661D01*
X108795153Y-54167260D01*
X108848932Y-54247747D01*
X108947004Y-54484513D01*
X108997000Y-54735861D01*
X108997000Y-54992139D01*
X108947004Y-55243487D01*
X108879981Y-55405294D01*
X108848931Y-55480255D01*
X108706553Y-55693339D01*
X108525339Y-55874553D01*
X108312255Y-56016931D01*
X108312254Y-56016932D01*
X108312253Y-56016932D01*
X108075487Y-56115004D01*
X107824139Y-56165000D01*
X107567861Y-56165000D01*
X107316513Y-56115004D01*
X107079747Y-56016932D01*
X107079746Y-56016932D01*
X107079745Y-56016931D01*
X106866661Y-55874553D01*
X106685447Y-55693339D01*
X106543069Y-55480255D01*
X106512019Y-55405294D01*
X106444996Y-55243487D01*
X106395000Y-54992139D01*
X106395000Y-54735861D01*
X106444996Y-54484513D01*
X106543068Y-54247747D01*
X106596848Y-54167260D01*
X106685447Y-54034661D01*
X106866661Y-53853447D01*
X107079745Y-53711069D01*
X107079747Y-53711068D01*
X107316513Y-53612996D01*
X107567861Y-53563000D01*
X107824139Y-53563000D01*
X108075487Y-53612996D01*
G37*
G36*
X82551040Y-52315825D02*
G01*
X82796280Y-52390218D01*
X83022294Y-52511025D01*
X83073899Y-52553376D01*
X83220397Y-52673603D01*
X83340624Y-52820101D01*
X83382975Y-52871706D01*
X83503782Y-53097721D01*
X83578175Y-53342961D01*
X83578175Y-53342962D01*
X83597000Y-53534095D01*
X83597000Y-54161906D01*
X83578175Y-54353039D01*
X83503781Y-54598282D01*
X83430243Y-54735863D01*
X83382975Y-54824294D01*
X83220396Y-55022396D01*
X83022293Y-55184975D01*
X82796279Y-55305782D01*
X82551039Y-55380175D01*
X82296000Y-55405294D01*
X82040960Y-55380175D01*
X81795720Y-55305782D01*
X81633809Y-55219239D01*
X81569707Y-55184976D01*
X81371604Y-55022396D01*
X81287234Y-54919591D01*
X81209025Y-54824293D01*
X81088218Y-54598279D01*
X81013825Y-54353039D01*
X81003455Y-54247745D01*
X80995000Y-54161905D01*
X80995000Y-53534094D01*
X81013825Y-53342961D01*
X81088219Y-53097718D01*
X81209024Y-52871707D01*
X81371604Y-52673604D01*
X81482805Y-52582344D01*
X81569707Y-52511025D01*
X81795721Y-52390218D01*
X82040961Y-52315825D01*
X82296000Y-52290706D01*
X82551040Y-52315825D01*
G37*
G36*
X100331040Y-52315825D02*
G01*
X100576280Y-52390218D01*
X100802294Y-52511025D01*
X100853899Y-52553376D01*
X101000397Y-52673603D01*
X101120624Y-52820101D01*
X101162975Y-52871706D01*
X101283782Y-53097721D01*
X101358175Y-53342961D01*
X101358175Y-53342962D01*
X101377000Y-53534095D01*
X101377000Y-54161906D01*
X101358175Y-54353039D01*
X101283781Y-54598282D01*
X101210243Y-54735863D01*
X101162975Y-54824294D01*
X101000396Y-55022396D01*
X100802293Y-55184975D01*
X100576279Y-55305782D01*
X100331039Y-55380175D01*
X100076000Y-55405294D01*
X99820960Y-55380175D01*
X99575720Y-55305782D01*
X99413809Y-55219239D01*
X99349707Y-55184976D01*
X99151604Y-55022396D01*
X99067234Y-54919591D01*
X98989025Y-54824293D01*
X98868218Y-54598279D01*
X98793825Y-54353039D01*
X98783455Y-54247745D01*
X98775000Y-54161905D01*
X98775000Y-53534094D01*
X98793825Y-53342961D01*
X98868219Y-53097718D01*
X98989024Y-52871707D01*
X99151604Y-52673604D01*
X99262805Y-52582344D01*
X99349707Y-52511025D01*
X99575721Y-52390218D01*
X99820961Y-52315825D01*
X100076000Y-52290706D01*
X100331040Y-52315825D01*
G37*
G36*
X90171040Y-52315825D02*
G01*
X90416280Y-52390218D01*
X90642294Y-52511025D01*
X90693899Y-52553376D01*
X90840397Y-52673603D01*
X90960624Y-52820101D01*
X91002975Y-52871706D01*
X91123782Y-53097721D01*
X91198175Y-53342961D01*
X91198175Y-53342962D01*
X91217000Y-53534095D01*
X91217000Y-54161906D01*
X91198175Y-54353039D01*
X91123781Y-54598282D01*
X91050243Y-54735863D01*
X91002975Y-54824294D01*
X90840396Y-55022396D01*
X90642293Y-55184975D01*
X90416279Y-55305782D01*
X90171039Y-55380175D01*
X89916000Y-55405294D01*
X89660960Y-55380175D01*
X89415720Y-55305782D01*
X89253809Y-55219239D01*
X89189707Y-55184976D01*
X88991604Y-55022396D01*
X88907234Y-54919591D01*
X88829025Y-54824293D01*
X88708218Y-54598279D01*
X88633825Y-54353039D01*
X88623455Y-54247745D01*
X88615000Y-54161905D01*
X88615000Y-53534094D01*
X88633825Y-53342961D01*
X88708219Y-53097718D01*
X88829024Y-52871707D01*
X88991604Y-52673604D01*
X89102805Y-52582344D01*
X89189707Y-52511025D01*
X89415721Y-52390218D01*
X89660961Y-52315825D01*
X89916000Y-52290706D01*
X90171040Y-52315825D01*
G37*
G36*
X121206585Y-49278802D02*
G01*
X121356410Y-49308604D01*
X121638674Y-49425521D01*
X121892705Y-49595259D01*
X122108741Y-49811295D01*
X122278479Y-50065326D01*
X122395396Y-50347590D01*
X122455000Y-50647240D01*
X122455000Y-50952760D01*
X122395396Y-51252410D01*
X122278479Y-51534674D01*
X122108741Y-51788705D01*
X121892705Y-52004741D01*
X121638674Y-52174479D01*
X121356410Y-52291396D01*
X121233597Y-52315825D01*
X121056761Y-52351000D01*
X120751239Y-52351000D01*
X120574403Y-52315825D01*
X120451590Y-52291396D01*
X120169326Y-52174479D01*
X119915295Y-52004741D01*
X119699259Y-51788705D01*
X119529521Y-51534674D01*
X119412604Y-51252410D01*
X119353000Y-50952760D01*
X119353000Y-50647240D01*
X119412604Y-50347590D01*
X119529521Y-50065326D01*
X119699259Y-49811295D01*
X119915295Y-49595259D01*
X120169326Y-49425521D01*
X120451590Y-49308604D01*
X120601415Y-49278802D01*
X120751239Y-49249000D01*
X121056761Y-49249000D01*
X121206585Y-49278802D01*
G37*
G36*
X133906585Y-49278802D02*
G01*
X134056410Y-49308604D01*
X134338674Y-49425521D01*
X134592705Y-49595259D01*
X134808741Y-49811295D01*
X134978479Y-50065326D01*
X135095396Y-50347590D01*
X135155000Y-50647240D01*
X135155000Y-50952760D01*
X135095396Y-51252410D01*
X134978479Y-51534674D01*
X134808741Y-51788705D01*
X134592705Y-52004741D01*
X134338674Y-52174479D01*
X134056410Y-52291396D01*
X133933597Y-52315825D01*
X133756761Y-52351000D01*
X133451239Y-52351000D01*
X133274403Y-52315825D01*
X133151590Y-52291396D01*
X132869326Y-52174479D01*
X132615295Y-52004741D01*
X132399259Y-51788705D01*
X132229521Y-51534674D01*
X132112604Y-51252410D01*
X132053000Y-50952760D01*
X132053000Y-50647240D01*
X132112604Y-50347590D01*
X132229521Y-50065326D01*
X132399259Y-49811295D01*
X132615295Y-49595259D01*
X132869326Y-49425521D01*
X133151590Y-49308604D01*
X133301415Y-49278802D01*
X133451239Y-49249000D01*
X133756761Y-49249000D01*
X133906585Y-49278802D01*
G37*
G36*
X149654585Y-48770802D02*
G01*
X149804410Y-48800604D01*
X150086674Y-48917521D01*
X150340705Y-49087259D01*
X150556741Y-49303295D01*
X150726479Y-49557326D01*
X150843396Y-49839590D01*
X150903000Y-50139240D01*
X150903000Y-50444760D01*
X150843396Y-50744410D01*
X150726479Y-51026674D01*
X150556741Y-51280705D01*
X150340705Y-51496741D01*
X150086674Y-51666479D01*
X149804410Y-51783396D01*
X149654585Y-51813198D01*
X149504761Y-51843000D01*
X149199239Y-51843000D01*
X149049415Y-51813198D01*
X148899590Y-51783396D01*
X148617326Y-51666479D01*
X148363295Y-51496741D01*
X148147259Y-51280705D01*
X147977521Y-51026674D01*
X147860604Y-50744410D01*
X147801000Y-50444760D01*
X147801000Y-50139240D01*
X147860604Y-49839590D01*
X147977521Y-49557326D01*
X148147259Y-49303295D01*
X148363295Y-49087259D01*
X148617326Y-48917521D01*
X148899590Y-48800604D01*
X149049415Y-48770802D01*
X149199239Y-48741000D01*
X149504761Y-48741000D01*
X149654585Y-48770802D01*
G37*
G36*
X141018585Y-48770802D02*
G01*
X141168410Y-48800604D01*
X141450674Y-48917521D01*
X141704705Y-49087259D01*
X141920741Y-49303295D01*
X142090479Y-49557326D01*
X142207396Y-49839590D01*
X142267000Y-50139240D01*
X142267000Y-50444760D01*
X142207396Y-50744410D01*
X142090479Y-51026674D01*
X141920741Y-51280705D01*
X141704705Y-51496741D01*
X141450674Y-51666479D01*
X141168410Y-51783396D01*
X141018585Y-51813198D01*
X140868761Y-51843000D01*
X140563239Y-51843000D01*
X140413415Y-51813198D01*
X140263590Y-51783396D01*
X139981326Y-51666479D01*
X139727295Y-51496741D01*
X139511259Y-51280705D01*
X139341521Y-51026674D01*
X139224604Y-50744410D01*
X139165000Y-50444760D01*
X139165000Y-50139240D01*
X139224604Y-49839590D01*
X139341521Y-49557326D01*
X139511259Y-49303295D01*
X139727295Y-49087259D01*
X139981326Y-48917521D01*
X140263590Y-48800604D01*
X140413415Y-48770802D01*
X140563239Y-48741000D01*
X140868761Y-48741000D01*
X141018585Y-48770802D01*
G37*
G36*
X136310822Y-44989313D02*
G01*
X136471241Y-45037976D01*
X136619077Y-45116995D01*
X136748659Y-45223341D01*
X136855004Y-45352922D01*
X136855005Y-45352924D01*
X136934024Y-45500758D01*
X136982687Y-45661177D01*
X136995000Y-45786196D01*
X136995000Y-46669803D01*
X136982687Y-46794822D01*
X136934024Y-46955242D01*
X136863114Y-47087906D01*
X136855004Y-47103078D01*
X136748659Y-47232659D01*
X136619078Y-47339004D01*
X136619076Y-47339005D01*
X136471242Y-47418024D01*
X136310823Y-47466687D01*
X136144000Y-47483117D01*
X135977178Y-47466687D01*
X135816759Y-47418024D01*
X135668925Y-47339005D01*
X135668923Y-47339004D01*
X135539342Y-47232659D01*
X135432997Y-47103078D01*
X135424887Y-47087906D01*
X135353977Y-46955242D01*
X135305314Y-46794823D01*
X135293000Y-46669803D01*
X135293000Y-45786197D01*
X135305313Y-45661178D01*
X135353976Y-45500759D01*
X135432995Y-45352923D01*
X135539341Y-45223341D01*
X135668922Y-45116996D01*
X135684094Y-45108886D01*
X135816758Y-45037976D01*
X135977177Y-44989313D01*
X136144000Y-44972883D01*
X136310822Y-44989313D01*
G37*
G36*
X126150822Y-44989313D02*
G01*
X126311241Y-45037976D01*
X126459077Y-45116995D01*
X126588659Y-45223341D01*
X126695004Y-45352922D01*
X126695005Y-45352924D01*
X126774024Y-45500758D01*
X126822687Y-45661177D01*
X126835000Y-45786196D01*
X126835000Y-46669803D01*
X126822687Y-46794822D01*
X126774024Y-46955242D01*
X126703114Y-47087906D01*
X126695004Y-47103078D01*
X126588659Y-47232659D01*
X126459078Y-47339004D01*
X126459076Y-47339005D01*
X126311242Y-47418024D01*
X126150823Y-47466687D01*
X125984000Y-47483117D01*
X125817178Y-47466687D01*
X125656759Y-47418024D01*
X125508925Y-47339005D01*
X125508923Y-47339004D01*
X125379342Y-47232659D01*
X125272997Y-47103078D01*
X125264887Y-47087906D01*
X125193977Y-46955242D01*
X125145314Y-46794823D01*
X125133000Y-46669803D01*
X125133000Y-45786197D01*
X125145313Y-45661178D01*
X125193976Y-45500759D01*
X125272995Y-45352923D01*
X125379341Y-45223341D01*
X125508922Y-45116996D01*
X125524094Y-45108886D01*
X125656758Y-45037976D01*
X125817177Y-44989313D01*
X125984000Y-44972883D01*
X126150822Y-44989313D01*
G37*
G36*
X128690822Y-44989313D02*
G01*
X128851241Y-45037976D01*
X128999077Y-45116995D01*
X129128659Y-45223341D01*
X129235004Y-45352922D01*
X129235005Y-45352924D01*
X129314024Y-45500758D01*
X129362687Y-45661177D01*
X129375000Y-45786196D01*
X129375000Y-46669803D01*
X129362687Y-46794822D01*
X129314024Y-46955242D01*
X129243114Y-47087906D01*
X129235004Y-47103078D01*
X129128659Y-47232659D01*
X128999078Y-47339004D01*
X128999076Y-47339005D01*
X128851242Y-47418024D01*
X128690823Y-47466687D01*
X128524000Y-47483117D01*
X128357178Y-47466687D01*
X128196759Y-47418024D01*
X128048925Y-47339005D01*
X128048923Y-47339004D01*
X127919342Y-47232659D01*
X127812997Y-47103078D01*
X127804887Y-47087906D01*
X127733977Y-46955242D01*
X127685314Y-46794823D01*
X127673000Y-46669803D01*
X127673000Y-45786197D01*
X127685313Y-45661178D01*
X127733976Y-45500759D01*
X127812995Y-45352923D01*
X127919341Y-45223341D01*
X128048922Y-45116996D01*
X128064094Y-45108886D01*
X128196758Y-45037976D01*
X128357177Y-44989313D01*
X128524000Y-44972883D01*
X128690822Y-44989313D01*
G37*
G36*
X131230822Y-44989313D02*
G01*
X131391241Y-45037976D01*
X131539077Y-45116995D01*
X131668659Y-45223341D01*
X131775004Y-45352922D01*
X131775005Y-45352924D01*
X131854024Y-45500758D01*
X131902687Y-45661177D01*
X131915000Y-45786196D01*
X131915000Y-46669803D01*
X131902687Y-46794822D01*
X131854024Y-46955242D01*
X131783114Y-47087906D01*
X131775004Y-47103078D01*
X131668659Y-47232659D01*
X131539078Y-47339004D01*
X131539076Y-47339005D01*
X131391242Y-47418024D01*
X131230823Y-47466687D01*
X131064000Y-47483117D01*
X130897178Y-47466687D01*
X130736759Y-47418024D01*
X130588925Y-47339005D01*
X130588923Y-47339004D01*
X130459342Y-47232659D01*
X130352997Y-47103078D01*
X130344887Y-47087906D01*
X130273977Y-46955242D01*
X130225314Y-46794823D01*
X130213000Y-46669803D01*
X130213000Y-45786197D01*
X130225313Y-45661178D01*
X130273976Y-45500759D01*
X130352995Y-45352923D01*
X130459341Y-45223341D01*
X130588922Y-45116996D01*
X130604094Y-45108886D01*
X130736758Y-45037976D01*
X130897177Y-44989313D01*
X131064000Y-44972883D01*
X131230822Y-44989313D01*
G37*
G36*
X123610822Y-44989313D02*
G01*
X123771241Y-45037976D01*
X123919077Y-45116995D01*
X124048659Y-45223341D01*
X124155004Y-45352922D01*
X124155005Y-45352924D01*
X124234024Y-45500758D01*
X124282687Y-45661177D01*
X124295000Y-45786196D01*
X124295000Y-46669803D01*
X124282687Y-46794822D01*
X124234024Y-46955242D01*
X124163114Y-47087906D01*
X124155004Y-47103078D01*
X124048659Y-47232659D01*
X123919078Y-47339004D01*
X123919076Y-47339005D01*
X123771242Y-47418024D01*
X123610823Y-47466687D01*
X123444000Y-47483117D01*
X123277178Y-47466687D01*
X123116759Y-47418024D01*
X122968925Y-47339005D01*
X122968923Y-47339004D01*
X122839342Y-47232659D01*
X122732997Y-47103078D01*
X122724887Y-47087906D01*
X122653977Y-46955242D01*
X122605314Y-46794823D01*
X122593000Y-46669803D01*
X122593000Y-45786197D01*
X122605313Y-45661178D01*
X122653976Y-45500759D01*
X122732995Y-45352923D01*
X122839341Y-45223341D01*
X122968922Y-45116996D01*
X122984094Y-45108886D01*
X123116758Y-45037976D01*
X123277177Y-44989313D01*
X123444000Y-44972883D01*
X123610822Y-44989313D01*
G37*
G36*
X133770822Y-44989313D02*
G01*
X133931241Y-45037976D01*
X134079077Y-45116995D01*
X134208659Y-45223341D01*
X134315004Y-45352922D01*
X134315005Y-45352924D01*
X134394024Y-45500758D01*
X134442687Y-45661177D01*
X134455000Y-45786196D01*
X134455000Y-46669803D01*
X134442687Y-46794822D01*
X134394024Y-46955242D01*
X134323114Y-47087906D01*
X134315004Y-47103078D01*
X134208659Y-47232659D01*
X134079078Y-47339004D01*
X134079076Y-47339005D01*
X133931242Y-47418024D01*
X133770823Y-47466687D01*
X133604000Y-47483117D01*
X133437178Y-47466687D01*
X133276759Y-47418024D01*
X133128925Y-47339005D01*
X133128923Y-47339004D01*
X132999342Y-47232659D01*
X132892997Y-47103078D01*
X132884887Y-47087906D01*
X132813977Y-46955242D01*
X132765314Y-46794823D01*
X132753000Y-46669803D01*
X132753000Y-45786197D01*
X132765313Y-45661178D01*
X132813976Y-45500759D01*
X132892995Y-45352923D01*
X132999341Y-45223341D01*
X133128922Y-45116996D01*
X133144094Y-45108886D01*
X133276758Y-45037976D01*
X133437177Y-44989313D01*
X133604000Y-44972883D01*
X133770822Y-44989313D01*
G37*
G36*
X121755000Y-47479000D02*
G01*
X120053000Y-47479000D01*
X120053000Y-44977000D01*
X121755000Y-44977000D01*
X121755000Y-47479000D01*
G37*
G36*
X141018585Y-43690802D02*
G01*
X141168410Y-43720604D01*
X141450674Y-43837521D01*
X141704705Y-44007259D01*
X141920741Y-44223295D01*
X142090479Y-44477326D01*
X142207396Y-44759590D01*
X142207396Y-44759591D01*
X142262771Y-45037976D01*
X142267000Y-45059240D01*
X142267000Y-45364760D01*
X142207396Y-45664410D01*
X142090479Y-45946674D01*
X141920741Y-46200705D01*
X141704705Y-46416741D01*
X141450674Y-46586479D01*
X141168410Y-46703396D01*
X141018585Y-46733198D01*
X140868761Y-46763000D01*
X140563239Y-46763000D01*
X140413415Y-46733198D01*
X140263590Y-46703396D01*
X139981326Y-46586479D01*
X139727295Y-46416741D01*
X139511259Y-46200705D01*
X139341521Y-45946674D01*
X139224604Y-45664410D01*
X139165000Y-45364760D01*
X139165000Y-45059240D01*
X139169230Y-45037976D01*
X139224604Y-44759591D01*
X139224604Y-44759590D01*
X139341521Y-44477326D01*
X139511259Y-44223295D01*
X139727295Y-44007259D01*
X139981326Y-43837521D01*
X140263590Y-43720604D01*
X140413415Y-43690802D01*
X140563239Y-43661000D01*
X140868761Y-43661000D01*
X141018585Y-43690802D01*
G37*
G36*
X149654585Y-38770802D02*
G01*
X149804410Y-38800604D01*
X150086674Y-38917521D01*
X150340705Y-39087259D01*
X150556741Y-39303295D01*
X150726479Y-39557326D01*
X150843396Y-39839590D01*
X150903000Y-40139240D01*
X150903000Y-40444760D01*
X150843396Y-40744410D01*
X150726479Y-41026674D01*
X150556741Y-41280705D01*
X150340705Y-41496741D01*
X150086674Y-41666479D01*
X149804410Y-41783396D01*
X149654585Y-41813198D01*
X149504761Y-41843000D01*
X149199239Y-41843000D01*
X149049415Y-41813198D01*
X148899590Y-41783396D01*
X148617326Y-41666479D01*
X148363295Y-41496741D01*
X148147259Y-41280705D01*
X147977521Y-41026674D01*
X147860604Y-40744410D01*
X147801000Y-40444760D01*
X147801000Y-40139240D01*
X147860604Y-39839590D01*
X147977521Y-39557326D01*
X148147259Y-39303295D01*
X148363295Y-39087259D01*
X148617326Y-38917521D01*
X148899590Y-38800604D01*
X149049415Y-38770802D01*
X149199239Y-38741000D01*
X149504761Y-38741000D01*
X149654585Y-38770802D01*
G37*
G36*
X131230822Y-37369313D02*
G01*
X131391241Y-37417976D01*
X131539077Y-37496995D01*
X131668659Y-37603341D01*
X131775004Y-37732922D01*
X131775005Y-37732924D01*
X131854024Y-37880758D01*
X131902687Y-38041177D01*
X131915000Y-38166196D01*
X131915000Y-39049803D01*
X131902687Y-39174822D01*
X131854024Y-39335242D01*
X131783114Y-39467906D01*
X131775004Y-39483078D01*
X131668659Y-39612659D01*
X131539078Y-39719004D01*
X131539076Y-39719005D01*
X131391242Y-39798024D01*
X131230823Y-39846687D01*
X131064000Y-39863117D01*
X130897178Y-39846687D01*
X130736759Y-39798024D01*
X130588925Y-39719005D01*
X130588923Y-39719004D01*
X130459342Y-39612659D01*
X130352997Y-39483078D01*
X130344887Y-39467906D01*
X130273977Y-39335242D01*
X130225314Y-39174823D01*
X130213000Y-39049803D01*
X130213000Y-38166197D01*
X130225313Y-38041178D01*
X130273976Y-37880759D01*
X130352995Y-37732923D01*
X130459341Y-37603341D01*
X130588922Y-37496996D01*
X130604094Y-37488886D01*
X130736758Y-37417976D01*
X130897177Y-37369313D01*
X131064000Y-37352883D01*
X131230822Y-37369313D01*
G37*
G36*
X133770822Y-37369313D02*
G01*
X133931241Y-37417976D01*
X134079077Y-37496995D01*
X134208659Y-37603341D01*
X134315004Y-37732922D01*
X134315005Y-37732924D01*
X134394024Y-37880758D01*
X134442687Y-38041177D01*
X134455000Y-38166196D01*
X134455000Y-39049803D01*
X134442687Y-39174822D01*
X134394024Y-39335242D01*
X134323114Y-39467906D01*
X134315004Y-39483078D01*
X134208659Y-39612659D01*
X134079078Y-39719004D01*
X134079076Y-39719005D01*
X133931242Y-39798024D01*
X133770823Y-39846687D01*
X133604000Y-39863117D01*
X133437178Y-39846687D01*
X133276759Y-39798024D01*
X133128925Y-39719005D01*
X133128923Y-39719004D01*
X132999342Y-39612659D01*
X132892997Y-39483078D01*
X132884887Y-39467906D01*
X132813977Y-39335242D01*
X132765314Y-39174823D01*
X132753000Y-39049803D01*
X132753000Y-38166197D01*
X132765313Y-38041178D01*
X132813976Y-37880759D01*
X132892995Y-37732923D01*
X132999341Y-37603341D01*
X133128922Y-37496996D01*
X133144094Y-37488886D01*
X133276758Y-37417976D01*
X133437177Y-37369313D01*
X133604000Y-37352883D01*
X133770822Y-37369313D01*
G37*
G36*
X136310822Y-37369313D02*
G01*
X136471241Y-37417976D01*
X136619077Y-37496995D01*
X136748659Y-37603341D01*
X136855004Y-37732922D01*
X136855005Y-37732924D01*
X136934024Y-37880758D01*
X136982687Y-38041177D01*
X136995000Y-38166196D01*
X136995000Y-39049803D01*
X136982687Y-39174822D01*
X136934024Y-39335242D01*
X136863114Y-39467906D01*
X136855004Y-39483078D01*
X136748659Y-39612659D01*
X136619078Y-39719004D01*
X136619076Y-39719005D01*
X136471242Y-39798024D01*
X136310823Y-39846687D01*
X136144000Y-39863117D01*
X135977178Y-39846687D01*
X135816759Y-39798024D01*
X135668925Y-39719005D01*
X135668923Y-39719004D01*
X135539342Y-39612659D01*
X135432997Y-39483078D01*
X135424887Y-39467906D01*
X135353977Y-39335242D01*
X135305314Y-39174823D01*
X135293000Y-39049803D01*
X135293000Y-38166197D01*
X135305313Y-38041178D01*
X135353976Y-37880759D01*
X135432995Y-37732923D01*
X135539341Y-37603341D01*
X135668922Y-37496996D01*
X135684094Y-37488886D01*
X135816758Y-37417976D01*
X135977177Y-37369313D01*
X136144000Y-37352883D01*
X136310822Y-37369313D01*
G37*
G36*
X121070822Y-37369313D02*
G01*
X121231241Y-37417976D01*
X121379077Y-37496995D01*
X121508659Y-37603341D01*
X121615004Y-37732922D01*
X121615005Y-37732924D01*
X121694024Y-37880758D01*
X121742687Y-38041177D01*
X121755000Y-38166196D01*
X121755000Y-39049803D01*
X121742687Y-39174822D01*
X121694024Y-39335242D01*
X121623114Y-39467906D01*
X121615004Y-39483078D01*
X121508659Y-39612659D01*
X121379078Y-39719004D01*
X121379076Y-39719005D01*
X121231242Y-39798024D01*
X121070823Y-39846687D01*
X120904000Y-39863117D01*
X120737178Y-39846687D01*
X120576759Y-39798024D01*
X120428925Y-39719005D01*
X120428923Y-39719004D01*
X120299342Y-39612659D01*
X120192997Y-39483078D01*
X120184887Y-39467906D01*
X120113977Y-39335242D01*
X120065314Y-39174823D01*
X120053000Y-39049803D01*
X120053000Y-38166197D01*
X120065313Y-38041178D01*
X120113976Y-37880759D01*
X120192995Y-37732923D01*
X120299341Y-37603341D01*
X120428922Y-37496996D01*
X120444094Y-37488886D01*
X120576758Y-37417976D01*
X120737177Y-37369313D01*
X120904000Y-37352883D01*
X121070822Y-37369313D01*
G37*
G36*
X128690822Y-37369313D02*
G01*
X128851241Y-37417976D01*
X128999077Y-37496995D01*
X129128659Y-37603341D01*
X129235004Y-37732922D01*
X129235005Y-37732924D01*
X129314024Y-37880758D01*
X129362687Y-38041177D01*
X129375000Y-38166196D01*
X129375000Y-39049803D01*
X129362687Y-39174822D01*
X129314024Y-39335242D01*
X129243114Y-39467906D01*
X129235004Y-39483078D01*
X129128659Y-39612659D01*
X128999078Y-39719004D01*
X128999076Y-39719005D01*
X128851242Y-39798024D01*
X128690823Y-39846687D01*
X128524000Y-39863117D01*
X128357178Y-39846687D01*
X128196759Y-39798024D01*
X128048925Y-39719005D01*
X128048923Y-39719004D01*
X127919342Y-39612659D01*
X127812997Y-39483078D01*
X127804887Y-39467906D01*
X127733977Y-39335242D01*
X127685314Y-39174823D01*
X127673000Y-39049803D01*
X127673000Y-38166197D01*
X127685313Y-38041178D01*
X127733976Y-37880759D01*
X127812995Y-37732923D01*
X127919341Y-37603341D01*
X128048922Y-37496996D01*
X128064094Y-37488886D01*
X128196758Y-37417976D01*
X128357177Y-37369313D01*
X128524000Y-37352883D01*
X128690822Y-37369313D01*
G37*
G36*
X123610822Y-37369313D02*
G01*
X123771241Y-37417976D01*
X123919077Y-37496995D01*
X124048659Y-37603341D01*
X124155004Y-37732922D01*
X124155005Y-37732924D01*
X124234024Y-37880758D01*
X124282687Y-38041177D01*
X124295000Y-38166196D01*
X124295000Y-39049803D01*
X124282687Y-39174822D01*
X124234024Y-39335242D01*
X124163114Y-39467906D01*
X124155004Y-39483078D01*
X124048659Y-39612659D01*
X123919078Y-39719004D01*
X123919076Y-39719005D01*
X123771242Y-39798024D01*
X123610823Y-39846687D01*
X123444000Y-39863117D01*
X123277178Y-39846687D01*
X123116759Y-39798024D01*
X122968925Y-39719005D01*
X122968923Y-39719004D01*
X122839342Y-39612659D01*
X122732997Y-39483078D01*
X122724887Y-39467906D01*
X122653977Y-39335242D01*
X122605314Y-39174823D01*
X122593000Y-39049803D01*
X122593000Y-38166197D01*
X122605313Y-38041178D01*
X122653976Y-37880759D01*
X122732995Y-37732923D01*
X122839341Y-37603341D01*
X122968922Y-37496996D01*
X122984094Y-37488886D01*
X123116758Y-37417976D01*
X123277177Y-37369313D01*
X123444000Y-37352883D01*
X123610822Y-37369313D01*
G37*
G36*
X126150822Y-37369313D02*
G01*
X126311241Y-37417976D01*
X126459077Y-37496995D01*
X126588659Y-37603341D01*
X126695004Y-37732922D01*
X126695005Y-37732924D01*
X126774024Y-37880758D01*
X126822687Y-38041177D01*
X126835000Y-38166196D01*
X126835000Y-39049803D01*
X126822687Y-39174822D01*
X126774024Y-39335242D01*
X126703114Y-39467906D01*
X126695004Y-39483078D01*
X126588659Y-39612659D01*
X126459078Y-39719004D01*
X126459076Y-39719005D01*
X126311242Y-39798024D01*
X126150823Y-39846687D01*
X125984000Y-39863117D01*
X125817178Y-39846687D01*
X125656759Y-39798024D01*
X125508925Y-39719005D01*
X125508923Y-39719004D01*
X125379342Y-39612659D01*
X125272997Y-39483078D01*
X125264887Y-39467906D01*
X125193977Y-39335242D01*
X125145314Y-39174823D01*
X125133000Y-39049803D01*
X125133000Y-38166197D01*
X125145313Y-38041178D01*
X125193976Y-37880759D01*
X125272995Y-37732923D01*
X125379341Y-37603341D01*
X125508922Y-37496996D01*
X125524094Y-37488886D01*
X125656758Y-37417976D01*
X125817177Y-37369313D01*
X125984000Y-37352883D01*
X126150822Y-37369313D01*
G37*
G36*
X87678585Y-33022802D02*
G01*
X87828410Y-33052604D01*
X88110674Y-33169521D01*
X88364705Y-33339259D01*
X88580741Y-33555295D01*
X88750479Y-33809326D01*
X88867396Y-34091590D01*
X88927000Y-34391240D01*
X88927000Y-34696760D01*
X88867396Y-34996410D01*
X88750479Y-35278674D01*
X88580741Y-35532705D01*
X88364705Y-35748741D01*
X88110674Y-35918479D01*
X87828410Y-36035396D01*
X87678585Y-36065198D01*
X87528761Y-36095000D01*
X87223239Y-36095000D01*
X87073415Y-36065198D01*
X86923590Y-36035396D01*
X86641326Y-35918479D01*
X86387295Y-35748741D01*
X86171259Y-35532705D01*
X86001521Y-35278674D01*
X85884604Y-34996410D01*
X85825000Y-34696760D01*
X85825000Y-34391240D01*
X85884604Y-34091590D01*
X86001521Y-33809326D01*
X86171259Y-33555295D01*
X86387295Y-33339259D01*
X86641326Y-33169521D01*
X86923590Y-33052604D01*
X87073415Y-33022802D01*
X87223239Y-32993000D01*
X87528761Y-32993000D01*
X87678585Y-33022802D01*
G37*
G36*
X83847000Y-36095000D02*
G01*
X80745000Y-36095000D01*
X80745000Y-32993000D01*
X83847000Y-32993000D01*
X83847000Y-36095000D01*
G37*
M02*
