<?xml version="1.0" standalone="no"?>
<!DOCTYPE svg PUBLIC "-//W3C//DTD SVG 1.1//EN"
"http://www.w3.org/Graphics/SVG/1.1/DTD/svg11.dtd">
<svg width="6850.68" height="4850.68" viewBox="0 0 6850.68 4850.68" version="1.1"
xmlns="http://www.w3.org/2000/svg"
xmlns:xlink="http://www.w3.org/1999/xlink">
<circle cx="3645.34" cy="2325.34" r="15.7" style=""/>
<circle cx="3645.34" cy="1925.34" r="15.7" style=""/>
<circle cx="2965.34" cy="3165.34" r="15.7" style=""/>
<circle cx="3285.34" cy="3845.34" r="15.7" style=""/>
<circle cx="6138.14" cy="3291.34" r="31.5" style=""/>
<circle cx="6085.34" cy="3165.34" r="31.5" style=""/>
<circle cx="5888.54" cy="3165.34" r="31.5" style=""/>
<circle cx="5835.74" cy="3039.34" r="31.5" style=""/>
<circle cx="6245.34" cy="2085.34" r="31.5" style=""/>
<circle cx="6245.34" cy="1297.94" r="31.5" style=""/>
<circle cx="5205.34" cy="1165.34" r="31.5" style=""/>
<circle cx="5005.34" cy="1165.34" r="31.5" style=""/>
<circle cx="4805.34" cy="1165.34" r="31.5" style=""/>
<circle cx="4605.34" cy="1165.34" r="31.5" style=""/>
<circle cx="4405.34" cy="1165.34" r="31.5" style=""/>
<circle cx="4205.34" cy="1165.34" r="31.5" style=""/>
<circle cx="4005.34" cy="1165.34" r="31.5" style=""/>
<circle cx="4005.34" cy="1765.34" r="31.5" style=""/>
<circle cx="4205.34" cy="1765.34" r="31.5" style=""/>
<circle cx="4405.34" cy="1765.34" r="31.5" style=""/>
<circle cx="4605.34" cy="1765.34" r="31.5" style=""/>
<circle cx="4805.34" cy="1765.34" r="31.5" style=""/>
<circle cx="5005.34" cy="1765.34" r="31.5" style=""/>
<circle cx="5205.34" cy="1765.34" r="31.5" style=""/>
<circle cx="3165.34" cy="2645.34" r="31.5" style=""/>
<circle cx="2965.34" cy="2445.34" r="31.5" style=""/>
<circle cx="2765.34" cy="2645.34" r="31.5" style=""/>
<circle cx="2365.34" cy="2365.34" r="31.5" style=""/>
<circle cx="2365.34" cy="2965.34" r="31.5" style=""/>
<circle cx="1565.34" cy="2365.34" r="31.5" style=""/>
<circle cx="965.339" cy="2365.34" r="31.5" style=""/>
<circle cx="4392.74" cy="3285.34" r="37.4" style=""/>
<circle cx="4195.94" cy="3285.34" r="37.4" style=""/>
<circle cx="3999.14" cy="3285.34" r="37.4" style=""/>
<circle cx="3802.14" cy="3285.34" r="37.4" style=""/>
<circle cx="3605.34" cy="3285.34" r="37.4" style=""/>
<circle cx="2162.54" cy="4030.94" r="39.4" style=""/>
<circle cx="1571.94" cy="4030.94" r="39.4" style=""/>
<circle cx="985.339" cy="4030.94" r="39.4" style=""/>
<circle cx="5605.34" cy="2485.34" r="43.3" style=""/>
<circle cx="4805.34" cy="2485.34" r="43.3" style=""/>
<circle cx="5565.34" cy="2085.34" r="47.2" style=""/>
<circle cx="5565.34" cy="1685.34" r="47.2" style=""/>
<circle cx="5005.34" cy="2125.34" r="47.2" style=""/>
<circle cx="5365.34" cy="2845.34" r="47.2" style=""/>
<circle cx="4365.34" cy="2845.34" r="47.2" style=""/>
<circle cx="4005.34" cy="2125.34" r="47.2" style=""/>
<circle cx="5805.34" cy="4045.34" r="59.8" style=""/>
<circle cx="5405.34" cy="4045.34" r="59.8" style=""/>
<circle cx="5005.34" cy="4045.34" r="59.8" style=""/>
<circle cx="4605.34" cy="4045.34" r="59.8" style=""/>
<circle cx="4205.34" cy="4045.34" r="59.8" style=""/>
<circle cx="3805.34" cy="4045.34" r="59.8" style=""/>
<circle cx="1365.34" cy="845.339" r="59.8" style=""/>
<circle cx="965.339" cy="845.339" r="59.8" style=""/>
</svg>
